G04 EAGLE Gerber X2 export*
%TF.Part,Single*%
%TF.FileFunction,Profile,NP*%
%TF.FilePolarity,Positive*%
%TF.GenerationSoftware,Autodesk,EAGLE,9.6.2*%
%TF.CreationDate,2023-04-05T08:52:26Z*%
G75*
%MOIN*%
%FSLAX36Y36*%
%LPD*%
%INBoard Outline*%
%AMOC8*
5,1,8,0,0,1.08239X$1,22.5*%
G01*
%ADD10C,0.000000*%
%ADD11C,0.010000*%


D10*
X0Y0D02*
X1771654Y0D01*
X1771654Y2362205D01*
X0Y2362205D01*
X0Y0D01*
X1607086Y551181D02*
X1607088Y551355D01*
X1607095Y551529D01*
X1607105Y551702D01*
X1607120Y551876D01*
X1607139Y552049D01*
X1607163Y552221D01*
X1607190Y552393D01*
X1607222Y552564D01*
X1607258Y552734D01*
X1607298Y552903D01*
X1607343Y553071D01*
X1607391Y553238D01*
X1607444Y553404D01*
X1607500Y553569D01*
X1607561Y553732D01*
X1607625Y553893D01*
X1607694Y554053D01*
X1607766Y554211D01*
X1607843Y554367D01*
X1607923Y554522D01*
X1608007Y554674D01*
X1608094Y554824D01*
X1608186Y554973D01*
X1608280Y555118D01*
X1608379Y555262D01*
X1608481Y555403D01*
X1608586Y555541D01*
X1608695Y555677D01*
X1608807Y555810D01*
X1608922Y555940D01*
X1609040Y556068D01*
X1609162Y556192D01*
X1609286Y556314D01*
X1609414Y556432D01*
X1609544Y556547D01*
X1609677Y556659D01*
X1609813Y556768D01*
X1609951Y556873D01*
X1610092Y556975D01*
X1610236Y557074D01*
X1610381Y557168D01*
X1610530Y557260D01*
X1610680Y557347D01*
X1610832Y557431D01*
X1610987Y557511D01*
X1611143Y557588D01*
X1611301Y557660D01*
X1611461Y557729D01*
X1611622Y557793D01*
X1611785Y557854D01*
X1611950Y557910D01*
X1612116Y557963D01*
X1612283Y558011D01*
X1612451Y558056D01*
X1612620Y558096D01*
X1612790Y558132D01*
X1612961Y558164D01*
X1613133Y558191D01*
X1613305Y558215D01*
X1613478Y558234D01*
X1613652Y558249D01*
X1613825Y558259D01*
X1613999Y558266D01*
X1614173Y558268D01*
X1614347Y558266D01*
X1614521Y558259D01*
X1614694Y558249D01*
X1614868Y558234D01*
X1615041Y558215D01*
X1615213Y558191D01*
X1615385Y558164D01*
X1615556Y558132D01*
X1615726Y558096D01*
X1615895Y558056D01*
X1616063Y558011D01*
X1616230Y557963D01*
X1616396Y557910D01*
X1616561Y557854D01*
X1616724Y557793D01*
X1616885Y557729D01*
X1617045Y557660D01*
X1617203Y557588D01*
X1617359Y557511D01*
X1617514Y557431D01*
X1617666Y557347D01*
X1617816Y557260D01*
X1617965Y557168D01*
X1618110Y557074D01*
X1618254Y556975D01*
X1618395Y556873D01*
X1618533Y556768D01*
X1618669Y556659D01*
X1618802Y556547D01*
X1618932Y556432D01*
X1619060Y556314D01*
X1619184Y556192D01*
X1619306Y556068D01*
X1619424Y555940D01*
X1619539Y555810D01*
X1619651Y555677D01*
X1619760Y555541D01*
X1619865Y555403D01*
X1619967Y555262D01*
X1620066Y555118D01*
X1620160Y554973D01*
X1620252Y554824D01*
X1620339Y554674D01*
X1620423Y554522D01*
X1620503Y554367D01*
X1620580Y554211D01*
X1620652Y554053D01*
X1620721Y553893D01*
X1620785Y553732D01*
X1620846Y553569D01*
X1620902Y553404D01*
X1620955Y553238D01*
X1621003Y553071D01*
X1621048Y552903D01*
X1621088Y552734D01*
X1621124Y552564D01*
X1621156Y552393D01*
X1621183Y552221D01*
X1621207Y552049D01*
X1621226Y551876D01*
X1621241Y551702D01*
X1621251Y551529D01*
X1621258Y551355D01*
X1621260Y551181D01*
X1621258Y551007D01*
X1621251Y550833D01*
X1621241Y550660D01*
X1621226Y550486D01*
X1621207Y550313D01*
X1621183Y550141D01*
X1621156Y549969D01*
X1621124Y549798D01*
X1621088Y549628D01*
X1621048Y549459D01*
X1621003Y549291D01*
X1620955Y549124D01*
X1620902Y548958D01*
X1620846Y548793D01*
X1620785Y548630D01*
X1620721Y548469D01*
X1620652Y548309D01*
X1620580Y548151D01*
X1620503Y547995D01*
X1620423Y547840D01*
X1620339Y547688D01*
X1620252Y547538D01*
X1620160Y547389D01*
X1620066Y547244D01*
X1619967Y547100D01*
X1619865Y546959D01*
X1619760Y546821D01*
X1619651Y546685D01*
X1619539Y546552D01*
X1619424Y546422D01*
X1619306Y546294D01*
X1619184Y546170D01*
X1619060Y546048D01*
X1618932Y545930D01*
X1618802Y545815D01*
X1618669Y545703D01*
X1618533Y545594D01*
X1618395Y545489D01*
X1618254Y545387D01*
X1618110Y545288D01*
X1617965Y545194D01*
X1617816Y545102D01*
X1617666Y545015D01*
X1617514Y544931D01*
X1617359Y544851D01*
X1617203Y544774D01*
X1617045Y544702D01*
X1616885Y544633D01*
X1616724Y544569D01*
X1616561Y544508D01*
X1616396Y544452D01*
X1616230Y544399D01*
X1616063Y544351D01*
X1615895Y544306D01*
X1615726Y544266D01*
X1615556Y544230D01*
X1615385Y544198D01*
X1615213Y544171D01*
X1615041Y544147D01*
X1614868Y544128D01*
X1614694Y544113D01*
X1614521Y544103D01*
X1614347Y544096D01*
X1614173Y544094D01*
X1613999Y544096D01*
X1613825Y544103D01*
X1613652Y544113D01*
X1613478Y544128D01*
X1613305Y544147D01*
X1613133Y544171D01*
X1612961Y544198D01*
X1612790Y544230D01*
X1612620Y544266D01*
X1612451Y544306D01*
X1612283Y544351D01*
X1612116Y544399D01*
X1611950Y544452D01*
X1611785Y544508D01*
X1611622Y544569D01*
X1611461Y544633D01*
X1611301Y544702D01*
X1611143Y544774D01*
X1610987Y544851D01*
X1610832Y544931D01*
X1610680Y545015D01*
X1610530Y545102D01*
X1610381Y545194D01*
X1610236Y545288D01*
X1610092Y545387D01*
X1609951Y545489D01*
X1609813Y545594D01*
X1609677Y545703D01*
X1609544Y545815D01*
X1609414Y545930D01*
X1609286Y546048D01*
X1609162Y546170D01*
X1609040Y546294D01*
X1608922Y546422D01*
X1608807Y546552D01*
X1608695Y546685D01*
X1608586Y546821D01*
X1608481Y546959D01*
X1608379Y547100D01*
X1608280Y547244D01*
X1608186Y547389D01*
X1608094Y547538D01*
X1608007Y547688D01*
X1607923Y547840D01*
X1607843Y547995D01*
X1607766Y548151D01*
X1607694Y548309D01*
X1607625Y548469D01*
X1607561Y548630D01*
X1607500Y548793D01*
X1607444Y548958D01*
X1607391Y549124D01*
X1607343Y549291D01*
X1607298Y549459D01*
X1607258Y549628D01*
X1607222Y549798D01*
X1607190Y549969D01*
X1607163Y550141D01*
X1607139Y550313D01*
X1607120Y550486D01*
X1607105Y550660D01*
X1607095Y550833D01*
X1607088Y551007D01*
X1607086Y551181D01*
X148819Y590551D02*
X148822Y590764D01*
X148829Y590976D01*
X148842Y591188D01*
X148861Y591400D01*
X148884Y591611D01*
X148913Y591822D01*
X148947Y592032D01*
X148985Y592241D01*
X149029Y592449D01*
X149079Y592655D01*
X149133Y592861D01*
X149192Y593065D01*
X149256Y593268D01*
X149325Y593469D01*
X149399Y593668D01*
X149478Y593865D01*
X149562Y594061D01*
X149651Y594254D01*
X149744Y594445D01*
X149842Y594634D01*
X149944Y594820D01*
X150051Y595004D01*
X150163Y595185D01*
X150279Y595363D01*
X150399Y595538D01*
X150523Y595710D01*
X150652Y595880D01*
X150785Y596045D01*
X150922Y596208D01*
X151063Y596367D01*
X151207Y596523D01*
X151356Y596675D01*
X151508Y596824D01*
X151664Y596968D01*
X151823Y597109D01*
X151986Y597246D01*
X152151Y597379D01*
X152321Y597508D01*
X152493Y597632D01*
X152668Y597752D01*
X152846Y597868D01*
X153027Y597980D01*
X153211Y598087D01*
X153397Y598189D01*
X153586Y598287D01*
X153777Y598380D01*
X153970Y598469D01*
X154166Y598553D01*
X154363Y598632D01*
X154562Y598706D01*
X154763Y598775D01*
X154966Y598839D01*
X155170Y598898D01*
X155376Y598952D01*
X155582Y599002D01*
X155790Y599046D01*
X155999Y599084D01*
X156209Y599118D01*
X156420Y599147D01*
X156631Y599170D01*
X156843Y599189D01*
X157055Y599202D01*
X157267Y599209D01*
X157480Y599212D01*
X157693Y599209D01*
X157905Y599202D01*
X158117Y599189D01*
X158329Y599170D01*
X158540Y599147D01*
X158751Y599118D01*
X158961Y599084D01*
X159170Y599046D01*
X159378Y599002D01*
X159584Y598952D01*
X159790Y598898D01*
X159994Y598839D01*
X160197Y598775D01*
X160398Y598706D01*
X160597Y598632D01*
X160794Y598553D01*
X160990Y598469D01*
X161183Y598380D01*
X161374Y598287D01*
X161563Y598189D01*
X161749Y598087D01*
X161933Y597980D01*
X162114Y597868D01*
X162292Y597752D01*
X162467Y597632D01*
X162639Y597508D01*
X162809Y597379D01*
X162974Y597246D01*
X163137Y597109D01*
X163296Y596968D01*
X163452Y596824D01*
X163604Y596675D01*
X163753Y596523D01*
X163897Y596367D01*
X164038Y596208D01*
X164175Y596045D01*
X164308Y595880D01*
X164437Y595710D01*
X164561Y595538D01*
X164681Y595363D01*
X164797Y595185D01*
X164909Y595004D01*
X165016Y594820D01*
X165118Y594634D01*
X165216Y594445D01*
X165309Y594254D01*
X165398Y594061D01*
X165482Y593865D01*
X165561Y593668D01*
X165635Y593469D01*
X165704Y593268D01*
X165768Y593065D01*
X165827Y592861D01*
X165881Y592655D01*
X165931Y592449D01*
X165975Y592241D01*
X166013Y592032D01*
X166047Y591822D01*
X166076Y591611D01*
X166099Y591400D01*
X166118Y591188D01*
X166131Y590976D01*
X166138Y590764D01*
X166141Y590551D01*
X166138Y590338D01*
X166131Y590126D01*
X166118Y589914D01*
X166099Y589702D01*
X166076Y589491D01*
X166047Y589280D01*
X166013Y589070D01*
X165975Y588861D01*
X165931Y588653D01*
X165881Y588447D01*
X165827Y588241D01*
X165768Y588037D01*
X165704Y587834D01*
X165635Y587633D01*
X165561Y587434D01*
X165482Y587237D01*
X165398Y587041D01*
X165309Y586848D01*
X165216Y586657D01*
X165118Y586468D01*
X165016Y586282D01*
X164909Y586098D01*
X164797Y585917D01*
X164681Y585739D01*
X164561Y585564D01*
X164437Y585392D01*
X164308Y585222D01*
X164175Y585057D01*
X164038Y584894D01*
X163897Y584735D01*
X163753Y584579D01*
X163604Y584427D01*
X163452Y584278D01*
X163296Y584134D01*
X163137Y583993D01*
X162974Y583856D01*
X162809Y583723D01*
X162639Y583594D01*
X162467Y583470D01*
X162292Y583350D01*
X162114Y583234D01*
X161933Y583122D01*
X161749Y583015D01*
X161563Y582913D01*
X161374Y582815D01*
X161183Y582722D01*
X160990Y582633D01*
X160794Y582549D01*
X160597Y582470D01*
X160398Y582396D01*
X160197Y582327D01*
X159994Y582263D01*
X159790Y582204D01*
X159584Y582150D01*
X159378Y582100D01*
X159170Y582056D01*
X158961Y582018D01*
X158751Y581984D01*
X158540Y581955D01*
X158329Y581932D01*
X158117Y581913D01*
X157905Y581900D01*
X157693Y581893D01*
X157480Y581890D01*
X157267Y581893D01*
X157055Y581900D01*
X156843Y581913D01*
X156631Y581932D01*
X156420Y581955D01*
X156209Y581984D01*
X155999Y582018D01*
X155790Y582056D01*
X155582Y582100D01*
X155376Y582150D01*
X155170Y582204D01*
X154966Y582263D01*
X154763Y582327D01*
X154562Y582396D01*
X154363Y582470D01*
X154166Y582549D01*
X153970Y582633D01*
X153777Y582722D01*
X153586Y582815D01*
X153397Y582913D01*
X153211Y583015D01*
X153027Y583122D01*
X152846Y583234D01*
X152668Y583350D01*
X152493Y583470D01*
X152321Y583594D01*
X152151Y583723D01*
X151986Y583856D01*
X151823Y583993D01*
X151664Y584134D01*
X151508Y584278D01*
X151356Y584427D01*
X151207Y584579D01*
X151063Y584735D01*
X150922Y584894D01*
X150785Y585057D01*
X150652Y585222D01*
X150523Y585392D01*
X150399Y585564D01*
X150279Y585739D01*
X150163Y585917D01*
X150051Y586098D01*
X149944Y586282D01*
X149842Y586468D01*
X149744Y586657D01*
X149651Y586848D01*
X149562Y587041D01*
X149478Y587237D01*
X149399Y587434D01*
X149325Y587633D01*
X149256Y587834D01*
X149192Y588037D01*
X149133Y588241D01*
X149079Y588447D01*
X149029Y588653D01*
X148985Y588861D01*
X148947Y589070D01*
X148913Y589280D01*
X148884Y589491D01*
X148861Y589702D01*
X148842Y589914D01*
X148829Y590126D01*
X148822Y590338D01*
X148819Y590551D01*
X149409Y1614173D02*
X149411Y1614371D01*
X149419Y1614569D01*
X149431Y1614767D01*
X149448Y1614964D01*
X149470Y1615161D01*
X149496Y1615357D01*
X149528Y1615553D01*
X149564Y1615748D01*
X149605Y1615941D01*
X149651Y1616134D01*
X149701Y1616326D01*
X149757Y1616516D01*
X149816Y1616705D01*
X149881Y1616892D01*
X149950Y1617078D01*
X150023Y1617262D01*
X150101Y1617444D01*
X150184Y1617624D01*
X150271Y1617802D01*
X150362Y1617978D01*
X150458Y1618151D01*
X150557Y1618322D01*
X150661Y1618491D01*
X150769Y1618657D01*
X150881Y1618820D01*
X150997Y1618981D01*
X151117Y1619139D01*
X151241Y1619293D01*
X151369Y1619445D01*
X151500Y1619593D01*
X151635Y1619738D01*
X151773Y1619880D01*
X151915Y1620018D01*
X152060Y1620153D01*
X152208Y1620284D01*
X152360Y1620412D01*
X152514Y1620536D01*
X152672Y1620656D01*
X152833Y1620772D01*
X152996Y1620884D01*
X153162Y1620992D01*
X153331Y1621096D01*
X153502Y1621195D01*
X153675Y1621291D01*
X153851Y1621382D01*
X154029Y1621469D01*
X154209Y1621552D01*
X154391Y1621630D01*
X154575Y1621703D01*
X154761Y1621772D01*
X154948Y1621837D01*
X155137Y1621896D01*
X155327Y1621952D01*
X155519Y1622002D01*
X155712Y1622048D01*
X155905Y1622089D01*
X156100Y1622125D01*
X156296Y1622157D01*
X156492Y1622183D01*
X156689Y1622205D01*
X156886Y1622222D01*
X157084Y1622234D01*
X157282Y1622242D01*
X157480Y1622244D01*
X157678Y1622242D01*
X157876Y1622234D01*
X158074Y1622222D01*
X158271Y1622205D01*
X158468Y1622183D01*
X158664Y1622157D01*
X158860Y1622125D01*
X159055Y1622089D01*
X159248Y1622048D01*
X159441Y1622002D01*
X159633Y1621952D01*
X159823Y1621896D01*
X160012Y1621837D01*
X160199Y1621772D01*
X160385Y1621703D01*
X160569Y1621630D01*
X160751Y1621552D01*
X160931Y1621469D01*
X161109Y1621382D01*
X161285Y1621291D01*
X161458Y1621195D01*
X161629Y1621096D01*
X161798Y1620992D01*
X161964Y1620884D01*
X162127Y1620772D01*
X162288Y1620656D01*
X162446Y1620536D01*
X162600Y1620412D01*
X162752Y1620284D01*
X162900Y1620153D01*
X163045Y1620018D01*
X163187Y1619880D01*
X163325Y1619738D01*
X163460Y1619593D01*
X163591Y1619445D01*
X163719Y1619293D01*
X163843Y1619139D01*
X163963Y1618981D01*
X164079Y1618820D01*
X164191Y1618657D01*
X164299Y1618491D01*
X164403Y1618322D01*
X164502Y1618151D01*
X164598Y1617978D01*
X164689Y1617802D01*
X164776Y1617624D01*
X164859Y1617444D01*
X164937Y1617262D01*
X165010Y1617078D01*
X165079Y1616892D01*
X165144Y1616705D01*
X165203Y1616516D01*
X165259Y1616326D01*
X165309Y1616134D01*
X165355Y1615941D01*
X165396Y1615748D01*
X165432Y1615553D01*
X165464Y1615357D01*
X165490Y1615161D01*
X165512Y1614964D01*
X165529Y1614767D01*
X165541Y1614569D01*
X165549Y1614371D01*
X165551Y1614173D01*
X165549Y1613975D01*
X165541Y1613777D01*
X165529Y1613579D01*
X165512Y1613382D01*
X165490Y1613185D01*
X165464Y1612989D01*
X165432Y1612793D01*
X165396Y1612598D01*
X165355Y1612405D01*
X165309Y1612212D01*
X165259Y1612020D01*
X165203Y1611830D01*
X165144Y1611641D01*
X165079Y1611454D01*
X165010Y1611268D01*
X164937Y1611084D01*
X164859Y1610902D01*
X164776Y1610722D01*
X164689Y1610544D01*
X164598Y1610368D01*
X164502Y1610195D01*
X164403Y1610024D01*
X164299Y1609855D01*
X164191Y1609689D01*
X164079Y1609526D01*
X163963Y1609365D01*
X163843Y1609207D01*
X163719Y1609053D01*
X163591Y1608901D01*
X163460Y1608753D01*
X163325Y1608608D01*
X163187Y1608466D01*
X163045Y1608328D01*
X162900Y1608193D01*
X162752Y1608062D01*
X162600Y1607934D01*
X162446Y1607810D01*
X162288Y1607690D01*
X162127Y1607574D01*
X161964Y1607462D01*
X161798Y1607354D01*
X161629Y1607250D01*
X161458Y1607151D01*
X161285Y1607055D01*
X161109Y1606964D01*
X160931Y1606877D01*
X160751Y1606794D01*
X160569Y1606716D01*
X160385Y1606643D01*
X160199Y1606574D01*
X160012Y1606509D01*
X159823Y1606450D01*
X159633Y1606394D01*
X159441Y1606344D01*
X159248Y1606298D01*
X159055Y1606257D01*
X158860Y1606221D01*
X158664Y1606189D01*
X158468Y1606163D01*
X158271Y1606141D01*
X158074Y1606124D01*
X157876Y1606112D01*
X157678Y1606104D01*
X157480Y1606102D01*
X157282Y1606104D01*
X157084Y1606112D01*
X156886Y1606124D01*
X156689Y1606141D01*
X156492Y1606163D01*
X156296Y1606189D01*
X156100Y1606221D01*
X155905Y1606257D01*
X155712Y1606298D01*
X155519Y1606344D01*
X155327Y1606394D01*
X155137Y1606450D01*
X154948Y1606509D01*
X154761Y1606574D01*
X154575Y1606643D01*
X154391Y1606716D01*
X154209Y1606794D01*
X154029Y1606877D01*
X153851Y1606964D01*
X153675Y1607055D01*
X153502Y1607151D01*
X153331Y1607250D01*
X153162Y1607354D01*
X152996Y1607462D01*
X152833Y1607574D01*
X152672Y1607690D01*
X152514Y1607810D01*
X152360Y1607934D01*
X152208Y1608062D01*
X152060Y1608193D01*
X151915Y1608328D01*
X151773Y1608466D01*
X151635Y1608608D01*
X151500Y1608753D01*
X151369Y1608901D01*
X151241Y1609053D01*
X151117Y1609207D01*
X150997Y1609365D01*
X150881Y1609526D01*
X150769Y1609689D01*
X150661Y1609855D01*
X150557Y1610024D01*
X150458Y1610195D01*
X150362Y1610368D01*
X150271Y1610544D01*
X150184Y1610722D01*
X150101Y1610902D01*
X150023Y1611084D01*
X149950Y1611268D01*
X149881Y1611454D01*
X149816Y1611641D01*
X149757Y1611830D01*
X149701Y1612020D01*
X149651Y1612212D01*
X149605Y1612405D01*
X149564Y1612598D01*
X149528Y1612793D01*
X149496Y1612989D01*
X149470Y1613185D01*
X149448Y1613382D01*
X149431Y1613579D01*
X149419Y1613777D01*
X149411Y1613975D01*
X149409Y1614173D01*
X1607086Y1771654D02*
X1607088Y1771828D01*
X1607095Y1772002D01*
X1607105Y1772175D01*
X1607120Y1772349D01*
X1607139Y1772522D01*
X1607163Y1772694D01*
X1607190Y1772866D01*
X1607222Y1773037D01*
X1607258Y1773207D01*
X1607298Y1773376D01*
X1607343Y1773544D01*
X1607391Y1773711D01*
X1607444Y1773877D01*
X1607500Y1774042D01*
X1607561Y1774205D01*
X1607625Y1774366D01*
X1607694Y1774526D01*
X1607766Y1774684D01*
X1607843Y1774840D01*
X1607923Y1774995D01*
X1608007Y1775147D01*
X1608094Y1775297D01*
X1608186Y1775446D01*
X1608280Y1775591D01*
X1608379Y1775735D01*
X1608481Y1775876D01*
X1608586Y1776014D01*
X1608695Y1776150D01*
X1608807Y1776283D01*
X1608922Y1776413D01*
X1609040Y1776541D01*
X1609162Y1776665D01*
X1609286Y1776787D01*
X1609414Y1776905D01*
X1609544Y1777020D01*
X1609677Y1777132D01*
X1609813Y1777241D01*
X1609951Y1777346D01*
X1610092Y1777448D01*
X1610236Y1777547D01*
X1610381Y1777641D01*
X1610530Y1777733D01*
X1610680Y1777820D01*
X1610832Y1777904D01*
X1610987Y1777984D01*
X1611143Y1778061D01*
X1611301Y1778133D01*
X1611461Y1778202D01*
X1611622Y1778266D01*
X1611785Y1778327D01*
X1611950Y1778383D01*
X1612116Y1778436D01*
X1612283Y1778484D01*
X1612451Y1778529D01*
X1612620Y1778569D01*
X1612790Y1778605D01*
X1612961Y1778637D01*
X1613133Y1778664D01*
X1613305Y1778688D01*
X1613478Y1778707D01*
X1613652Y1778722D01*
X1613825Y1778732D01*
X1613999Y1778739D01*
X1614173Y1778741D01*
X1614347Y1778739D01*
X1614521Y1778732D01*
X1614694Y1778722D01*
X1614868Y1778707D01*
X1615041Y1778688D01*
X1615213Y1778664D01*
X1615385Y1778637D01*
X1615556Y1778605D01*
X1615726Y1778569D01*
X1615895Y1778529D01*
X1616063Y1778484D01*
X1616230Y1778436D01*
X1616396Y1778383D01*
X1616561Y1778327D01*
X1616724Y1778266D01*
X1616885Y1778202D01*
X1617045Y1778133D01*
X1617203Y1778061D01*
X1617359Y1777984D01*
X1617514Y1777904D01*
X1617666Y1777820D01*
X1617816Y1777733D01*
X1617965Y1777641D01*
X1618110Y1777547D01*
X1618254Y1777448D01*
X1618395Y1777346D01*
X1618533Y1777241D01*
X1618669Y1777132D01*
X1618802Y1777020D01*
X1618932Y1776905D01*
X1619060Y1776787D01*
X1619184Y1776665D01*
X1619306Y1776541D01*
X1619424Y1776413D01*
X1619539Y1776283D01*
X1619651Y1776150D01*
X1619760Y1776014D01*
X1619865Y1775876D01*
X1619967Y1775735D01*
X1620066Y1775591D01*
X1620160Y1775446D01*
X1620252Y1775297D01*
X1620339Y1775147D01*
X1620423Y1774995D01*
X1620503Y1774840D01*
X1620580Y1774684D01*
X1620652Y1774526D01*
X1620721Y1774366D01*
X1620785Y1774205D01*
X1620846Y1774042D01*
X1620902Y1773877D01*
X1620955Y1773711D01*
X1621003Y1773544D01*
X1621048Y1773376D01*
X1621088Y1773207D01*
X1621124Y1773037D01*
X1621156Y1772866D01*
X1621183Y1772694D01*
X1621207Y1772522D01*
X1621226Y1772349D01*
X1621241Y1772175D01*
X1621251Y1772002D01*
X1621258Y1771828D01*
X1621260Y1771654D01*
X1621258Y1771480D01*
X1621251Y1771306D01*
X1621241Y1771133D01*
X1621226Y1770959D01*
X1621207Y1770786D01*
X1621183Y1770614D01*
X1621156Y1770442D01*
X1621124Y1770271D01*
X1621088Y1770101D01*
X1621048Y1769932D01*
X1621003Y1769764D01*
X1620955Y1769597D01*
X1620902Y1769431D01*
X1620846Y1769266D01*
X1620785Y1769103D01*
X1620721Y1768942D01*
X1620652Y1768782D01*
X1620580Y1768624D01*
X1620503Y1768468D01*
X1620423Y1768313D01*
X1620339Y1768161D01*
X1620252Y1768011D01*
X1620160Y1767862D01*
X1620066Y1767717D01*
X1619967Y1767573D01*
X1619865Y1767432D01*
X1619760Y1767294D01*
X1619651Y1767158D01*
X1619539Y1767025D01*
X1619424Y1766895D01*
X1619306Y1766767D01*
X1619184Y1766643D01*
X1619060Y1766521D01*
X1618932Y1766403D01*
X1618802Y1766288D01*
X1618669Y1766176D01*
X1618533Y1766067D01*
X1618395Y1765962D01*
X1618254Y1765860D01*
X1618110Y1765761D01*
X1617965Y1765667D01*
X1617816Y1765575D01*
X1617666Y1765488D01*
X1617514Y1765404D01*
X1617359Y1765324D01*
X1617203Y1765247D01*
X1617045Y1765175D01*
X1616885Y1765106D01*
X1616724Y1765042D01*
X1616561Y1764981D01*
X1616396Y1764925D01*
X1616230Y1764872D01*
X1616063Y1764824D01*
X1615895Y1764779D01*
X1615726Y1764739D01*
X1615556Y1764703D01*
X1615385Y1764671D01*
X1615213Y1764644D01*
X1615041Y1764620D01*
X1614868Y1764601D01*
X1614694Y1764586D01*
X1614521Y1764576D01*
X1614347Y1764569D01*
X1614173Y1764567D01*
X1613999Y1764569D01*
X1613825Y1764576D01*
X1613652Y1764586D01*
X1613478Y1764601D01*
X1613305Y1764620D01*
X1613133Y1764644D01*
X1612961Y1764671D01*
X1612790Y1764703D01*
X1612620Y1764739D01*
X1612451Y1764779D01*
X1612283Y1764824D01*
X1612116Y1764872D01*
X1611950Y1764925D01*
X1611785Y1764981D01*
X1611622Y1765042D01*
X1611461Y1765106D01*
X1611301Y1765175D01*
X1611143Y1765247D01*
X1610987Y1765324D01*
X1610832Y1765404D01*
X1610680Y1765488D01*
X1610530Y1765575D01*
X1610381Y1765667D01*
X1610236Y1765761D01*
X1610092Y1765860D01*
X1609951Y1765962D01*
X1609813Y1766067D01*
X1609677Y1766176D01*
X1609544Y1766288D01*
X1609414Y1766403D01*
X1609286Y1766521D01*
X1609162Y1766643D01*
X1609040Y1766767D01*
X1608922Y1766895D01*
X1608807Y1767025D01*
X1608695Y1767158D01*
X1608586Y1767294D01*
X1608481Y1767432D01*
X1608379Y1767573D01*
X1608280Y1767717D01*
X1608186Y1767862D01*
X1608094Y1768011D01*
X1608007Y1768161D01*
X1607923Y1768313D01*
X1607843Y1768468D01*
X1607766Y1768624D01*
X1607694Y1768782D01*
X1607625Y1768942D01*
X1607561Y1769103D01*
X1607500Y1769266D01*
X1607444Y1769431D01*
X1607391Y1769597D01*
X1607343Y1769764D01*
X1607298Y1769932D01*
X1607258Y1770101D01*
X1607222Y1770271D01*
X1607190Y1770442D01*
X1607163Y1770614D01*
X1607139Y1770786D01*
X1607120Y1770959D01*
X1607105Y1771133D01*
X1607095Y1771306D01*
X1607088Y1771480D01*
X1607086Y1771654D01*
D11*
X0Y0D02*
X1771654Y0D01*
X1771654Y2362205D01*
X0Y2362205D01*
X0Y0D01*
X1621260Y550483D02*
X1620987Y549114D01*
X1620453Y547824D01*
X1619678Y546664D01*
X1618691Y545677D01*
X1617530Y544901D01*
X1616240Y544367D01*
X1614871Y544094D01*
X1613475Y544094D01*
X1612106Y544367D01*
X1610816Y544901D01*
X1609656Y545677D01*
X1608669Y546664D01*
X1607893Y547824D01*
X1607359Y549114D01*
X1607087Y550483D01*
X1607087Y551879D01*
X1607359Y553248D01*
X1607893Y554538D01*
X1608669Y555699D01*
X1609656Y556686D01*
X1610816Y557461D01*
X1612106Y557995D01*
X1613475Y558268D01*
X1614871Y558268D01*
X1616240Y557995D01*
X1617530Y557461D01*
X1618691Y556686D01*
X1619678Y555699D01*
X1620453Y554538D01*
X1620987Y553248D01*
X1621260Y551879D01*
X1621260Y550483D01*
X166142Y589869D02*
X165929Y588523D01*
X165507Y587226D01*
X164888Y586012D01*
X164087Y584909D01*
X163123Y583945D01*
X162020Y583143D01*
X160805Y582524D01*
X159508Y582103D01*
X158162Y581890D01*
X156799Y581890D01*
X155452Y582103D01*
X154156Y582524D01*
X152941Y583143D01*
X151838Y583945D01*
X150874Y584909D01*
X150072Y586012D01*
X149453Y587226D01*
X149032Y588523D01*
X148819Y589869D01*
X148819Y591233D01*
X149032Y592579D01*
X149453Y593876D01*
X150072Y595091D01*
X150874Y596194D01*
X151838Y597158D01*
X152941Y597959D01*
X154156Y598578D01*
X155452Y598999D01*
X156799Y599213D01*
X158162Y599213D01*
X159508Y598999D01*
X160805Y598578D01*
X162020Y597959D01*
X163123Y597158D01*
X164087Y596194D01*
X164888Y595091D01*
X165507Y593876D01*
X165929Y592579D01*
X166142Y591233D01*
X166142Y589869D01*
X165551Y1613378D02*
X165241Y1611819D01*
X164633Y1610350D01*
X163749Y1609028D01*
X162625Y1607904D01*
X161303Y1607021D01*
X159835Y1606413D01*
X158275Y1606102D01*
X156685Y1606102D01*
X155126Y1606413D01*
X153657Y1607021D01*
X152335Y1607904D01*
X151211Y1609028D01*
X150328Y1610350D01*
X149720Y1611819D01*
X149409Y1613378D01*
X149409Y1614968D01*
X149720Y1616527D01*
X150328Y1617996D01*
X151211Y1619318D01*
X152335Y1620442D01*
X153657Y1621326D01*
X155126Y1621934D01*
X156685Y1622244D01*
X158275Y1622244D01*
X159835Y1621934D01*
X161303Y1621326D01*
X162625Y1620442D01*
X163749Y1619318D01*
X164633Y1617996D01*
X165241Y1616527D01*
X165551Y1614968D01*
X165551Y1613378D01*
X1621260Y1770956D02*
X1620987Y1769586D01*
X1620453Y1768297D01*
X1619678Y1767136D01*
X1618691Y1766149D01*
X1617530Y1765374D01*
X1616240Y1764839D01*
X1614871Y1764567D01*
X1613475Y1764567D01*
X1612106Y1764839D01*
X1610816Y1765374D01*
X1609656Y1766149D01*
X1608669Y1767136D01*
X1607893Y1768297D01*
X1607359Y1769586D01*
X1607087Y1770956D01*
X1607087Y1772352D01*
X1607359Y1773721D01*
X1607893Y1775010D01*
X1608669Y1776171D01*
X1609656Y1777158D01*
X1610816Y1777934D01*
X1612106Y1778468D01*
X1613475Y1778740D01*
X1614871Y1778740D01*
X1616240Y1778468D01*
X1617530Y1777934D01*
X1618691Y1777158D01*
X1619678Y1776171D01*
X1620453Y1775010D01*
X1620987Y1773721D01*
X1621260Y1772352D01*
X1621260Y1770956D01*
M02*
