G04 EAGLE Gerber X2 export*
%TF.Part,Single*%
%TF.FileFunction,Copper,L2,Bot,Mixed*%
%TF.FilePolarity,Positive*%
%TF.GenerationSoftware,Autodesk,EAGLE,9.6.2*%
%TF.CreationDate,2023-04-05T08:52:26Z*%
G75*
%MOIN*%
%FSLAX36Y36*%
%LPD*%
%INBottom Copper Layer*%
%AMOC8*
5,1,8,0,0,1.08239X$1,22.5*%
G01*
%ADD10P,0.067108X8X112.500000*%
%ADD11C,0.062000*%
%ADD12P,0.056284X8X202.500000*%
%ADD13P,0.056284X8X22.500000*%
%ADD14C,0.060000*%
%ADD15C,0.170000*%
%ADD16P,0.064943X8X22.500000*%
%ADD17P,0.071438X8X202.500000*%
%ADD18P,0.071438X8X22.500000*%
%ADD19P,0.056284X8X292.500000*%
%ADD20C,0.074000*%
%ADD21C,0.064000*%
%ADD22C,0.065000*%
%ADD23R,0.039370X0.070866*%
%ADD24C,0.050000*%
%ADD25C,0.016000*%

G36*
X1723723Y40008D02*
X1723723Y40008D01*
X1723792Y40002D01*
X1724510Y40086D01*
X1725231Y40158D01*
X1725297Y40178D01*
X1725366Y40186D01*
X1726053Y40410D01*
X1726747Y40623D01*
X1726808Y40656D01*
X1726874Y40677D01*
X1727502Y41032D01*
X1728141Y41378D01*
X1728194Y41422D01*
X1728254Y41456D01*
X1728803Y41929D01*
X1729359Y42393D01*
X1729402Y42446D01*
X1729455Y42492D01*
X1729900Y43065D01*
X1730352Y43628D01*
X1730384Y43689D01*
X1730427Y43744D01*
X1730750Y44394D01*
X1731083Y45035D01*
X1731102Y45101D01*
X1731133Y45164D01*
X1731322Y45865D01*
X1731522Y46558D01*
X1731527Y46627D01*
X1731546Y46694D01*
X1731653Y48000D01*
X1731653Y2314205D01*
X1731646Y2314274D01*
X1731652Y2314343D01*
X1731568Y2315061D01*
X1731496Y2315782D01*
X1731475Y2315849D01*
X1731467Y2315918D01*
X1731243Y2316604D01*
X1731031Y2317298D01*
X1730997Y2317359D01*
X1730976Y2317425D01*
X1730622Y2318053D01*
X1730276Y2318692D01*
X1730231Y2318745D01*
X1730197Y2318806D01*
X1729724Y2319354D01*
X1729261Y2319910D01*
X1729207Y2319953D01*
X1729161Y2320006D01*
X1728588Y2320451D01*
X1728026Y2320903D01*
X1727964Y2320935D01*
X1727909Y2320978D01*
X1727259Y2321301D01*
X1726619Y2321634D01*
X1726552Y2321653D01*
X1726490Y2321684D01*
X1725789Y2321873D01*
X1725095Y2322073D01*
X1725026Y2322079D01*
X1724959Y2322097D01*
X1723654Y2322204D01*
X48000Y2322204D01*
X47931Y2322197D01*
X47862Y2322203D01*
X47143Y2322119D01*
X46422Y2322047D01*
X46356Y2322027D01*
X46287Y2322018D01*
X45601Y2321795D01*
X44907Y2321582D01*
X44845Y2321549D01*
X44780Y2321527D01*
X44152Y2321173D01*
X43513Y2320827D01*
X43459Y2320782D01*
X43399Y2320748D01*
X42851Y2320275D01*
X42295Y2319812D01*
X42251Y2319758D01*
X42199Y2319713D01*
X41754Y2319139D01*
X41301Y2318577D01*
X41269Y2318515D01*
X41227Y2318460D01*
X40903Y2317811D01*
X40570Y2317170D01*
X40551Y2317104D01*
X40520Y2317041D01*
X40331Y2316340D01*
X40132Y2315647D01*
X40126Y2315577D01*
X40108Y2315510D01*
X40001Y2314205D01*
X40001Y48000D01*
X40008Y47931D01*
X40002Y47862D01*
X40086Y47143D01*
X40158Y46422D01*
X40178Y46356D01*
X40186Y46287D01*
X40410Y45601D01*
X40623Y44907D01*
X40656Y44845D01*
X40677Y44780D01*
X41032Y44152D01*
X41378Y43513D01*
X41422Y43459D01*
X41456Y43399D01*
X41929Y42851D01*
X42393Y42295D01*
X42446Y42251D01*
X42492Y42199D01*
X43065Y41754D01*
X43628Y41301D01*
X43689Y41269D01*
X43744Y41227D01*
X44394Y40903D01*
X45035Y40570D01*
X45101Y40551D01*
X45164Y40520D01*
X45865Y40331D01*
X46558Y40132D01*
X46627Y40126D01*
X46694Y40108D01*
X48000Y40001D01*
X1723654Y40001D01*
X1723723Y40008D01*
G37*
%LPC*%
G36*
X522955Y333472D02*
X522955Y333472D01*
X509356Y339105D01*
X498947Y349513D01*
X496806Y354683D01*
X496765Y354760D01*
X496738Y354842D01*
X496392Y355456D01*
X496057Y356080D01*
X496002Y356148D01*
X495959Y356223D01*
X495497Y356759D01*
X495047Y357303D01*
X494980Y357357D01*
X494923Y357423D01*
X494363Y357858D01*
X493816Y358302D01*
X493740Y358342D01*
X493671Y358395D01*
X493037Y358711D01*
X492413Y359039D01*
X492330Y359063D01*
X492252Y359102D01*
X491568Y359286D01*
X490891Y359484D01*
X490805Y359492D01*
X490721Y359514D01*
X489415Y359621D01*
X372056Y359621D01*
X371969Y359613D01*
X371883Y359619D01*
X371180Y359534D01*
X370478Y359464D01*
X370395Y359439D01*
X370309Y359428D01*
X369640Y359207D01*
X368963Y358999D01*
X368886Y358958D01*
X368804Y358930D01*
X368191Y358581D01*
X367569Y358244D01*
X367502Y358189D01*
X367426Y358146D01*
X366893Y357681D01*
X366351Y357229D01*
X366297Y357162D01*
X366231Y357105D01*
X365798Y356542D01*
X365357Y355994D01*
X365317Y355917D01*
X365264Y355848D01*
X364665Y354683D01*
X364063Y353229D01*
X353936Y343102D01*
X340704Y337621D01*
X266382Y337621D01*
X253151Y343102D01*
X243023Y353229D01*
X237543Y366461D01*
X237543Y380783D01*
X243023Y394015D01*
X253151Y404142D01*
X266382Y409623D01*
X340704Y409623D01*
X353936Y404142D01*
X364063Y394015D01*
X364665Y392561D01*
X364706Y392484D01*
X364733Y392402D01*
X365080Y391787D01*
X365414Y391164D01*
X365469Y391096D01*
X365512Y391021D01*
X365973Y390487D01*
X366424Y389941D01*
X366491Y389887D01*
X366548Y389821D01*
X367105Y389388D01*
X367655Y388942D01*
X367732Y388902D01*
X367800Y388849D01*
X368432Y388534D01*
X369058Y388205D01*
X369141Y388181D01*
X369219Y388142D01*
X369902Y387958D01*
X370580Y387760D01*
X370667Y387752D01*
X370750Y387730D01*
X372056Y387623D01*
X492025Y387623D01*
X492112Y387631D01*
X492199Y387625D01*
X492899Y387710D01*
X493602Y387780D01*
X493686Y387805D01*
X493773Y387816D01*
X494442Y388037D01*
X495118Y388245D01*
X495195Y388287D01*
X495278Y388314D01*
X495890Y388663D01*
X496512Y389000D01*
X496579Y389056D01*
X496655Y389099D01*
X497189Y389564D01*
X497730Y390015D01*
X497784Y390083D01*
X497851Y390141D01*
X498282Y390702D01*
X498550Y391034D01*
X509356Y401840D01*
X522955Y407473D01*
X537675Y407473D01*
X551274Y401840D01*
X561683Y391431D01*
X562519Y389411D01*
X562560Y389335D01*
X562587Y389252D01*
X562934Y388638D01*
X563268Y388014D01*
X563324Y387947D01*
X563366Y387871D01*
X563827Y387337D01*
X564278Y386792D01*
X564345Y386737D01*
X564402Y386671D01*
X564959Y386238D01*
X565509Y385793D01*
X565586Y385752D01*
X565654Y385699D01*
X566286Y385385D01*
X566912Y385056D01*
X566996Y385031D01*
X567073Y384993D01*
X567756Y384809D01*
X568434Y384610D01*
X568521Y384603D01*
X568604Y384580D01*
X569910Y384473D01*
X708305Y384473D01*
X708339Y384477D01*
X708374Y384473D01*
X709132Y384555D01*
X709882Y384630D01*
X709915Y384640D01*
X709950Y384644D01*
X710670Y384872D01*
X711398Y385095D01*
X711429Y385112D01*
X711461Y385122D01*
X712121Y385487D01*
X712792Y385850D01*
X712819Y385872D01*
X712849Y385889D01*
X713422Y386376D01*
X714010Y386865D01*
X714032Y386892D01*
X714058Y386915D01*
X714526Y387506D01*
X715003Y388100D01*
X715019Y388131D01*
X715041Y388158D01*
X715384Y388832D01*
X715734Y389507D01*
X715744Y389541D01*
X715759Y389571D01*
X715963Y390302D01*
X716173Y391031D01*
X716176Y391065D01*
X716185Y391099D01*
X716241Y391857D01*
X716303Y392610D01*
X716299Y392645D01*
X716301Y392680D01*
X716207Y393431D01*
X716118Y394185D01*
X716108Y394218D01*
X716103Y394253D01*
X715862Y394971D01*
X715627Y395692D01*
X715610Y395723D01*
X715599Y395756D01*
X715220Y396414D01*
X714848Y397073D01*
X714826Y397100D01*
X714808Y397130D01*
X713961Y398129D01*
X610999Y501090D01*
X610999Y537147D01*
X610989Y537251D01*
X610997Y537354D01*
X610911Y538038D01*
X610842Y538725D01*
X610812Y538824D01*
X610799Y538927D01*
X610580Y539579D01*
X610377Y540240D01*
X610327Y540332D01*
X610294Y540430D01*
X609951Y541027D01*
X609622Y541634D01*
X609555Y541714D01*
X609504Y541804D01*
X608656Y542803D01*
X593677Y557782D01*
X593597Y557848D01*
X593529Y557927D01*
X592984Y558350D01*
X592451Y558787D01*
X592359Y558835D01*
X592277Y558899D01*
X591660Y559206D01*
X591050Y559530D01*
X590951Y559559D01*
X590857Y559606D01*
X590193Y559785D01*
X589531Y559982D01*
X589427Y559991D01*
X589327Y560018D01*
X588021Y560125D01*
X565879Y560125D01*
X547133Y578871D01*
X547133Y605381D01*
X565879Y624127D01*
X592389Y624127D01*
X611134Y605381D01*
X611134Y583239D01*
X611145Y583135D01*
X611137Y583031D01*
X611223Y582348D01*
X611292Y581661D01*
X611322Y581562D01*
X611335Y581458D01*
X611554Y580806D01*
X611757Y580146D01*
X611806Y580054D01*
X611839Y579955D01*
X612183Y579359D01*
X612512Y578751D01*
X612578Y578672D01*
X612630Y578581D01*
X613477Y577582D01*
X639001Y552059D01*
X639001Y516002D01*
X639011Y515899D01*
X639003Y515795D01*
X639089Y515112D01*
X639158Y514425D01*
X639188Y514325D01*
X639201Y514222D01*
X639420Y513570D01*
X639623Y512909D01*
X639672Y512818D01*
X639705Y512719D01*
X640049Y512123D01*
X640378Y511515D01*
X640444Y511435D01*
X640496Y511345D01*
X641344Y510346D01*
X737454Y414236D01*
X737508Y414191D01*
X737553Y414139D01*
X738118Y413692D01*
X738680Y413231D01*
X738742Y413199D01*
X738796Y413156D01*
X739439Y412829D01*
X740081Y412489D01*
X740148Y412469D01*
X740209Y412437D01*
X740903Y412244D01*
X741601Y412037D01*
X741670Y412030D01*
X741736Y412012D01*
X742455Y411959D01*
X743179Y411893D01*
X743249Y411901D01*
X743318Y411896D01*
X744032Y411985D01*
X744755Y412064D01*
X744822Y412085D01*
X744891Y412094D01*
X745576Y412324D01*
X746267Y412542D01*
X746328Y412576D01*
X746393Y412598D01*
X747021Y412959D01*
X747654Y413309D01*
X747707Y413354D01*
X747767Y413388D01*
X748767Y414236D01*
X849798Y515267D01*
X849864Y515348D01*
X849943Y515416D01*
X850366Y515961D01*
X850802Y516494D01*
X850851Y516586D01*
X850915Y516668D01*
X851222Y517285D01*
X851545Y517894D01*
X851575Y517994D01*
X851621Y518087D01*
X851800Y518752D01*
X851997Y519414D01*
X852007Y519518D01*
X852034Y519618D01*
X852141Y520924D01*
X852141Y1526320D01*
X852131Y1526424D01*
X852138Y1526528D01*
X852052Y1527211D01*
X851984Y1527898D01*
X851953Y1527997D01*
X851940Y1528101D01*
X851722Y1528753D01*
X851519Y1529413D01*
X851469Y1529505D01*
X851436Y1529603D01*
X851093Y1530200D01*
X850764Y1530807D01*
X850697Y1530887D01*
X850645Y1530977D01*
X849798Y1531977D01*
X774103Y1607672D01*
X774022Y1607738D01*
X773954Y1607817D01*
X773409Y1608240D01*
X772876Y1608676D01*
X772784Y1608725D01*
X772702Y1608789D01*
X772085Y1609096D01*
X771476Y1609419D01*
X771376Y1609449D01*
X771283Y1609495D01*
X770618Y1609674D01*
X769956Y1609871D01*
X769852Y1609881D01*
X769752Y1609908D01*
X768446Y1610015D01*
X762331Y1610015D01*
X762245Y1610006D01*
X762158Y1610013D01*
X761457Y1609928D01*
X760753Y1609858D01*
X760670Y1609832D01*
X760584Y1609822D01*
X759916Y1609601D01*
X759238Y1609393D01*
X759161Y1609351D01*
X759079Y1609324D01*
X758467Y1608976D01*
X757844Y1608638D01*
X757777Y1608582D01*
X757702Y1608539D01*
X757170Y1608077D01*
X756626Y1607623D01*
X756571Y1607555D01*
X756506Y1607499D01*
X756075Y1606938D01*
X755632Y1606388D01*
X755592Y1606311D01*
X755539Y1606242D01*
X754940Y1605077D01*
X753869Y1602490D01*
X743179Y1591800D01*
X729212Y1586015D01*
X714095Y1586015D01*
X700128Y1591800D01*
X689438Y1602490D01*
X683653Y1616457D01*
X683653Y1631575D01*
X689438Y1645541D01*
X700128Y1656231D01*
X702715Y1657303D01*
X702792Y1657344D01*
X702874Y1657371D01*
X703487Y1657717D01*
X704112Y1658052D01*
X704179Y1658107D01*
X704254Y1658149D01*
X704791Y1658612D01*
X705334Y1659061D01*
X705389Y1659128D01*
X705455Y1659185D01*
X705888Y1659743D01*
X706333Y1660292D01*
X706374Y1660369D01*
X706427Y1660437D01*
X706741Y1661068D01*
X707070Y1661696D01*
X707094Y1661779D01*
X707133Y1661857D01*
X707317Y1662540D01*
X707516Y1663217D01*
X707523Y1663304D01*
X707546Y1663387D01*
X707653Y1664693D01*
X707653Y1683338D01*
X707644Y1683424D01*
X707651Y1683511D01*
X707566Y1684212D01*
X707496Y1684916D01*
X707470Y1684999D01*
X707460Y1685085D01*
X707239Y1685753D01*
X707031Y1686431D01*
X706989Y1686508D01*
X706962Y1686590D01*
X706613Y1687202D01*
X706276Y1687826D01*
X706220Y1687892D01*
X706177Y1687967D01*
X705715Y1688499D01*
X705261Y1689043D01*
X705193Y1689098D01*
X705136Y1689163D01*
X704576Y1689594D01*
X704026Y1690037D01*
X703949Y1690077D01*
X703880Y1690130D01*
X702715Y1690729D01*
X700128Y1691800D01*
X689438Y1702490D01*
X683653Y1716457D01*
X683653Y1731575D01*
X689438Y1745541D01*
X700128Y1756231D01*
X714095Y1762016D01*
X729212Y1762016D01*
X743179Y1756231D01*
X753869Y1745541D01*
X759654Y1731575D01*
X759654Y1716457D01*
X753869Y1702490D01*
X743179Y1691800D01*
X740592Y1690729D01*
X740515Y1690688D01*
X740433Y1690661D01*
X739820Y1690315D01*
X739195Y1689980D01*
X739128Y1689925D01*
X739053Y1689882D01*
X738516Y1689419D01*
X737973Y1688970D01*
X737918Y1688903D01*
X737852Y1688846D01*
X737419Y1688288D01*
X736974Y1687739D01*
X736933Y1687662D01*
X736880Y1687594D01*
X736566Y1686963D01*
X736237Y1686336D01*
X736212Y1686252D01*
X736174Y1686175D01*
X735990Y1685491D01*
X735791Y1684814D01*
X735784Y1684728D01*
X735761Y1684644D01*
X735654Y1683338D01*
X735654Y1664693D01*
X735663Y1664607D01*
X735656Y1664520D01*
X735741Y1663819D01*
X735811Y1663116D01*
X735837Y1663032D01*
X735847Y1662947D01*
X736068Y1662278D01*
X736276Y1661600D01*
X736318Y1661523D01*
X736345Y1661441D01*
X736694Y1660829D01*
X737031Y1660206D01*
X737087Y1660139D01*
X737130Y1660064D01*
X737593Y1659532D01*
X738046Y1658988D01*
X738114Y1658934D01*
X738171Y1658868D01*
X738731Y1658437D01*
X739281Y1657994D01*
X739358Y1657954D01*
X739427Y1657901D01*
X740592Y1657303D01*
X743179Y1656231D01*
X753869Y1645541D01*
X754940Y1642954D01*
X754982Y1642877D01*
X755008Y1642796D01*
X755355Y1642182D01*
X755689Y1641557D01*
X755745Y1641490D01*
X755787Y1641415D01*
X756250Y1640878D01*
X756699Y1640335D01*
X756766Y1640281D01*
X756823Y1640215D01*
X757381Y1639781D01*
X757930Y1639336D01*
X758007Y1639295D01*
X758075Y1639242D01*
X758706Y1638928D01*
X759334Y1638599D01*
X759417Y1638575D01*
X759494Y1638536D01*
X760178Y1638352D01*
X760855Y1638154D01*
X760942Y1638146D01*
X761025Y1638124D01*
X762331Y1638016D01*
X783358Y1638016D01*
X881015Y1540359D01*
X881096Y1540293D01*
X881164Y1540215D01*
X881709Y1539791D01*
X882242Y1539355D01*
X882334Y1539306D01*
X882416Y1539242D01*
X883033Y1538935D01*
X883642Y1538612D01*
X883742Y1538582D01*
X883835Y1538536D01*
X884500Y1538357D01*
X885162Y1538160D01*
X885266Y1538151D01*
X885366Y1538124D01*
X886672Y1538016D01*
X980976Y1538016D01*
X981063Y1538025D01*
X981149Y1538018D01*
X981851Y1538103D01*
X982554Y1538173D01*
X982637Y1538199D01*
X982723Y1538209D01*
X983392Y1538431D01*
X984069Y1538639D01*
X984146Y1538680D01*
X984228Y1538707D01*
X984841Y1539056D01*
X985463Y1539393D01*
X985530Y1539449D01*
X985606Y1539492D01*
X986139Y1539957D01*
X986681Y1540408D01*
X986735Y1540476D01*
X986801Y1540533D01*
X987234Y1541096D01*
X987675Y1541644D01*
X987715Y1541720D01*
X987768Y1541789D01*
X988367Y1542955D01*
X989438Y1545541D01*
X1000128Y1556231D01*
X1014095Y1562016D01*
X1029212Y1562016D01*
X1043179Y1556231D01*
X1053869Y1545541D01*
X1054940Y1542955D01*
X1054981Y1542878D01*
X1055008Y1542796D01*
X1055355Y1542181D01*
X1055689Y1541557D01*
X1055744Y1541490D01*
X1055787Y1541415D01*
X1056250Y1540879D01*
X1056699Y1540335D01*
X1056766Y1540281D01*
X1056823Y1540215D01*
X1057382Y1539781D01*
X1057930Y1539336D01*
X1058007Y1539295D01*
X1058075Y1539242D01*
X1058708Y1538927D01*
X1059333Y1538599D01*
X1059416Y1538575D01*
X1059494Y1538536D01*
X1060178Y1538352D01*
X1060855Y1538154D01*
X1060942Y1538146D01*
X1061025Y1538124D01*
X1062331Y1538016D01*
X1584236Y1538016D01*
X1584357Y1538028D01*
X1584478Y1538020D01*
X1585144Y1538107D01*
X1585814Y1538173D01*
X1585930Y1538209D01*
X1586050Y1538225D01*
X1587297Y1538625D01*
X1592367Y1540725D01*
X1666688Y1540725D01*
X1679920Y1535244D01*
X1690047Y1525117D01*
X1695528Y1511885D01*
X1695528Y1497563D01*
X1690047Y1484332D01*
X1679920Y1474204D01*
X1666688Y1468724D01*
X1592367Y1468724D01*
X1579135Y1474204D01*
X1569008Y1484332D01*
X1563527Y1497563D01*
X1563527Y1502016D01*
X1563520Y1502085D01*
X1563526Y1502154D01*
X1563442Y1502872D01*
X1563370Y1503593D01*
X1563349Y1503660D01*
X1563341Y1503729D01*
X1563117Y1504415D01*
X1562905Y1505109D01*
X1562871Y1505170D01*
X1562850Y1505236D01*
X1562496Y1505864D01*
X1562150Y1506503D01*
X1562105Y1506556D01*
X1562071Y1506617D01*
X1561598Y1507165D01*
X1561135Y1507721D01*
X1561081Y1507764D01*
X1561035Y1507817D01*
X1560462Y1508262D01*
X1559900Y1508714D01*
X1559838Y1508746D01*
X1559783Y1508789D01*
X1559133Y1509112D01*
X1558493Y1509445D01*
X1558426Y1509464D01*
X1558364Y1509495D01*
X1557663Y1509684D01*
X1556969Y1509884D01*
X1556900Y1509890D01*
X1556833Y1509908D01*
X1555528Y1510015D01*
X1062331Y1510015D01*
X1062244Y1510006D01*
X1062158Y1510013D01*
X1061456Y1509928D01*
X1060753Y1509858D01*
X1060670Y1509832D01*
X1060584Y1509822D01*
X1059915Y1509601D01*
X1059238Y1509393D01*
X1059161Y1509351D01*
X1059079Y1509324D01*
X1058466Y1508975D01*
X1057844Y1508638D01*
X1057777Y1508582D01*
X1057701Y1508539D01*
X1057168Y1508075D01*
X1056626Y1507623D01*
X1056571Y1507556D01*
X1056506Y1507498D01*
X1056073Y1506936D01*
X1055632Y1506388D01*
X1055592Y1506311D01*
X1055539Y1506242D01*
X1054940Y1505077D01*
X1053869Y1502490D01*
X1043179Y1491800D01*
X1029212Y1486015D01*
X1014095Y1486015D01*
X1000128Y1491800D01*
X989438Y1502490D01*
X988367Y1505077D01*
X988326Y1505153D01*
X988299Y1505236D01*
X987952Y1505851D01*
X987618Y1506474D01*
X987563Y1506541D01*
X987520Y1506617D01*
X987057Y1507153D01*
X986608Y1507696D01*
X986541Y1507751D01*
X986484Y1507817D01*
X985925Y1508251D01*
X985377Y1508695D01*
X985300Y1508736D01*
X985232Y1508789D01*
X984599Y1509104D01*
X983974Y1509432D01*
X983891Y1509456D01*
X983813Y1509495D01*
X983129Y1509679D01*
X982452Y1509878D01*
X982365Y1509885D01*
X982282Y1509908D01*
X980976Y1510015D01*
X888142Y1510015D01*
X888072Y1510008D01*
X888003Y1510014D01*
X887285Y1509930D01*
X886564Y1509858D01*
X886498Y1509838D01*
X886429Y1509829D01*
X885742Y1509606D01*
X885048Y1509393D01*
X884987Y1509360D01*
X884922Y1509338D01*
X884293Y1508984D01*
X883654Y1508638D01*
X883601Y1508594D01*
X883541Y1508559D01*
X882993Y1508086D01*
X882437Y1507623D01*
X882393Y1507569D01*
X882341Y1507524D01*
X881895Y1506950D01*
X881443Y1506388D01*
X881411Y1506326D01*
X881368Y1506271D01*
X881045Y1505622D01*
X880712Y1504981D01*
X880693Y1504915D01*
X880662Y1504852D01*
X880473Y1504151D01*
X880273Y1503458D01*
X880268Y1503388D01*
X880250Y1503321D01*
X880142Y1502016D01*
X880142Y533811D01*
X880149Y533742D01*
X880144Y533673D01*
X880228Y532954D01*
X880299Y532233D01*
X880320Y532167D01*
X880328Y532098D01*
X880552Y531412D01*
X880765Y530718D01*
X880798Y530656D01*
X880819Y530591D01*
X881173Y529963D01*
X881519Y529324D01*
X881564Y529270D01*
X881598Y529210D01*
X882071Y528662D01*
X882534Y528106D01*
X882588Y528063D01*
X882634Y528010D01*
X883209Y527563D01*
X883770Y527112D01*
X883831Y527080D01*
X883886Y527038D01*
X884536Y526714D01*
X885176Y526382D01*
X885243Y526362D01*
X885305Y526331D01*
X886006Y526142D01*
X886700Y525943D01*
X886769Y525937D01*
X886836Y525919D01*
X888142Y525812D01*
X1129076Y525812D01*
X1129180Y525822D01*
X1129283Y525814D01*
X1129967Y525900D01*
X1130654Y525969D01*
X1130753Y525999D01*
X1130856Y526012D01*
X1131508Y526231D01*
X1132169Y526434D01*
X1132261Y526484D01*
X1132359Y526516D01*
X1132956Y526860D01*
X1133563Y527189D01*
X1133643Y527255D01*
X1133733Y527307D01*
X1134733Y528155D01*
X1148334Y541756D01*
X1148399Y541836D01*
X1148478Y541904D01*
X1148901Y542449D01*
X1149338Y542982D01*
X1149387Y543074D01*
X1149450Y543156D01*
X1149758Y543773D01*
X1150081Y544383D01*
X1150110Y544482D01*
X1150157Y544576D01*
X1150336Y545240D01*
X1150533Y545902D01*
X1150542Y546006D01*
X1150569Y546106D01*
X1150676Y547412D01*
X1150676Y569554D01*
X1169422Y588300D01*
X1195932Y588300D01*
X1211589Y572643D01*
X1211670Y572577D01*
X1211738Y572498D01*
X1212283Y572075D01*
X1212816Y571638D01*
X1212908Y571590D01*
X1212990Y571526D01*
X1213607Y571219D01*
X1214216Y570896D01*
X1214316Y570866D01*
X1214409Y570820D01*
X1215074Y570640D01*
X1215736Y570444D01*
X1215840Y570434D01*
X1215940Y570407D01*
X1217246Y570300D01*
X1286950Y570300D01*
X1287054Y570310D01*
X1287157Y570303D01*
X1287841Y570389D01*
X1288528Y570457D01*
X1288627Y570488D01*
X1288730Y570500D01*
X1289383Y570719D01*
X1290043Y570922D01*
X1290135Y570972D01*
X1290233Y571005D01*
X1290830Y571348D01*
X1291437Y571677D01*
X1291517Y571744D01*
X1291607Y571795D01*
X1292607Y572643D01*
X1323515Y603551D01*
X1323559Y603605D01*
X1323612Y603650D01*
X1324062Y604219D01*
X1324519Y604778D01*
X1324552Y604839D01*
X1324595Y604893D01*
X1324922Y605537D01*
X1325262Y606178D01*
X1325282Y606245D01*
X1325313Y606307D01*
X1325506Y606998D01*
X1325714Y607698D01*
X1325720Y607767D01*
X1325739Y607834D01*
X1325792Y608551D01*
X1325858Y609277D01*
X1325850Y609346D01*
X1325855Y609415D01*
X1325765Y610130D01*
X1325687Y610853D01*
X1325666Y610919D01*
X1325657Y610988D01*
X1325427Y611674D01*
X1325209Y612364D01*
X1325175Y612425D01*
X1325153Y612491D01*
X1324790Y613122D01*
X1324442Y613752D01*
X1324397Y613804D01*
X1324362Y613865D01*
X1323515Y614864D01*
X1319008Y619371D01*
X1313527Y632603D01*
X1313527Y646925D01*
X1319008Y660156D01*
X1329135Y670284D01*
X1342367Y675764D01*
X1416688Y675764D01*
X1429920Y670284D01*
X1440047Y660156D01*
X1440650Y658703D01*
X1440691Y658626D01*
X1440718Y658544D01*
X1441064Y657929D01*
X1441398Y657305D01*
X1441454Y657238D01*
X1441496Y657163D01*
X1441957Y656629D01*
X1442408Y656083D01*
X1442475Y656028D01*
X1442532Y655963D01*
X1443090Y655530D01*
X1443639Y655084D01*
X1443716Y655043D01*
X1443784Y654990D01*
X1444416Y654676D01*
X1445043Y654347D01*
X1445126Y654323D01*
X1445204Y654284D01*
X1445886Y654100D01*
X1446564Y653902D01*
X1446651Y653894D01*
X1446734Y653872D01*
X1448040Y653764D01*
X1555454Y653764D01*
X1555558Y653775D01*
X1555661Y653767D01*
X1556344Y653853D01*
X1557032Y653922D01*
X1557131Y653952D01*
X1557234Y653965D01*
X1557886Y654184D01*
X1558547Y654387D01*
X1558639Y654436D01*
X1558737Y654469D01*
X1559334Y654813D01*
X1559941Y655141D01*
X1560021Y655208D01*
X1560111Y655260D01*
X1561110Y656107D01*
X1573515Y668512D01*
X1573559Y668565D01*
X1573612Y668610D01*
X1574060Y669178D01*
X1574519Y669738D01*
X1574552Y669800D01*
X1574595Y669854D01*
X1574921Y670496D01*
X1575262Y671139D01*
X1575282Y671206D01*
X1575313Y671267D01*
X1575508Y671964D01*
X1575714Y672658D01*
X1575720Y672727D01*
X1575739Y672794D01*
X1575792Y673515D01*
X1575858Y674237D01*
X1575850Y674306D01*
X1575855Y674375D01*
X1575765Y675091D01*
X1575687Y675813D01*
X1575666Y675880D01*
X1575657Y675948D01*
X1575427Y676635D01*
X1575209Y677325D01*
X1575175Y677385D01*
X1575153Y677451D01*
X1574791Y678080D01*
X1574442Y678712D01*
X1574397Y678765D01*
X1574362Y678825D01*
X1573515Y679824D01*
X1569008Y684332D01*
X1563527Y697563D01*
X1563527Y711885D01*
X1569008Y725117D01*
X1579135Y735244D01*
X1592367Y740725D01*
X1666688Y740725D01*
X1679920Y735244D01*
X1690047Y725117D01*
X1695528Y711885D01*
X1695528Y697563D01*
X1690047Y684332D01*
X1679920Y674204D01*
X1666688Y668724D01*
X1616640Y668724D01*
X1616537Y668713D01*
X1616433Y668721D01*
X1615750Y668635D01*
X1615063Y668567D01*
X1614963Y668536D01*
X1614860Y668523D01*
X1614208Y668304D01*
X1613547Y668102D01*
X1613455Y668052D01*
X1613357Y668019D01*
X1612761Y667676D01*
X1612153Y667347D01*
X1612073Y667280D01*
X1611983Y667228D01*
X1610984Y666381D01*
X1570366Y625763D01*
X1448040Y625763D01*
X1447954Y625754D01*
X1447867Y625761D01*
X1447164Y625676D01*
X1446462Y625606D01*
X1446380Y625580D01*
X1446293Y625570D01*
X1445624Y625349D01*
X1444947Y625141D01*
X1444870Y625099D01*
X1444788Y625072D01*
X1444176Y624723D01*
X1443553Y624386D01*
X1443486Y624330D01*
X1443411Y624287D01*
X1442877Y623823D01*
X1442335Y623371D01*
X1442281Y623304D01*
X1442215Y623246D01*
X1441782Y622684D01*
X1441341Y622136D01*
X1441301Y622059D01*
X1441248Y621990D01*
X1440650Y620825D01*
X1440047Y619371D01*
X1429920Y609244D01*
X1416688Y603763D01*
X1366640Y603763D01*
X1366537Y603753D01*
X1366433Y603760D01*
X1365750Y603674D01*
X1365063Y603606D01*
X1364963Y603575D01*
X1364860Y603562D01*
X1364208Y603344D01*
X1363547Y603141D01*
X1363455Y603091D01*
X1363357Y603058D01*
X1362761Y602715D01*
X1362153Y602386D01*
X1362073Y602319D01*
X1361983Y602267D01*
X1360984Y601420D01*
X1301862Y542298D01*
X1217246Y542298D01*
X1217142Y542288D01*
X1217038Y542296D01*
X1216355Y542210D01*
X1215668Y542141D01*
X1215568Y542111D01*
X1215465Y542098D01*
X1214813Y541879D01*
X1214152Y541676D01*
X1214061Y541627D01*
X1213962Y541594D01*
X1213366Y541250D01*
X1212758Y540921D01*
X1212678Y540855D01*
X1212588Y540803D01*
X1211589Y539956D01*
X1195932Y524298D01*
X1173790Y524298D01*
X1173686Y524288D01*
X1173583Y524296D01*
X1172899Y524210D01*
X1172212Y524141D01*
X1172113Y524111D01*
X1172010Y524098D01*
X1171358Y523879D01*
X1170697Y523676D01*
X1170605Y523627D01*
X1170507Y523594D01*
X1169910Y523250D01*
X1169303Y522921D01*
X1169223Y522855D01*
X1169133Y522803D01*
X1168133Y521956D01*
X1143988Y497810D01*
X875254Y497810D01*
X875151Y497800D01*
X875047Y497808D01*
X874364Y497722D01*
X873677Y497653D01*
X873577Y497623D01*
X873474Y497610D01*
X872822Y497391D01*
X872161Y497188D01*
X872069Y497138D01*
X871971Y497105D01*
X871375Y496762D01*
X870767Y496433D01*
X870687Y496367D01*
X870597Y496315D01*
X869598Y495467D01*
X764375Y390244D01*
X764374Y390244D01*
X751488Y377357D01*
X741148Y367017D01*
X741147Y367016D01*
X730602Y356472D01*
X569910Y356472D01*
X569824Y356463D01*
X569737Y356470D01*
X569034Y356384D01*
X568332Y356315D01*
X568249Y356289D01*
X568163Y356279D01*
X567494Y356057D01*
X566817Y355850D01*
X566740Y355808D01*
X566658Y355781D01*
X566045Y355432D01*
X565423Y355095D01*
X565356Y355039D01*
X565281Y354996D01*
X564747Y354531D01*
X564205Y354080D01*
X564151Y354012D01*
X564085Y353955D01*
X563652Y353392D01*
X563211Y352844D01*
X563171Y352768D01*
X563118Y352699D01*
X562519Y351533D01*
X561683Y349513D01*
X551274Y339105D01*
X537675Y333472D01*
X522955Y333472D01*
G37*
%LPD*%
%LPC*%
G36*
X954486Y725133D02*
X954486Y725133D01*
X938681Y731680D01*
X926585Y743776D01*
X920039Y759580D01*
X920039Y776687D01*
X926585Y792492D01*
X938681Y804588D01*
X954486Y811134D01*
X971593Y811134D01*
X977012Y808890D01*
X977095Y808865D01*
X977172Y808825D01*
X977852Y808636D01*
X978529Y808431D01*
X978616Y808423D01*
X978699Y808400D01*
X979405Y808348D01*
X980108Y808281D01*
X980194Y808290D01*
X980280Y808284D01*
X980982Y808372D01*
X981684Y808445D01*
X981767Y808471D01*
X981853Y808482D01*
X982522Y808706D01*
X983198Y808916D01*
X983274Y808958D01*
X983356Y808986D01*
X983969Y809338D01*
X984589Y809677D01*
X984655Y809733D01*
X984730Y809776D01*
X985729Y810624D01*
X1007278Y832173D01*
X1007344Y832253D01*
X1007423Y832321D01*
X1007846Y832867D01*
X1008283Y833399D01*
X1008331Y833491D01*
X1008395Y833574D01*
X1008703Y834192D01*
X1009026Y834800D01*
X1009055Y834899D01*
X1009102Y834993D01*
X1009281Y835658D01*
X1009478Y836320D01*
X1009487Y836423D01*
X1009514Y836524D01*
X1009621Y837829D01*
X1009621Y882523D01*
X1009613Y882609D01*
X1009619Y882696D01*
X1009534Y883397D01*
X1009464Y884101D01*
X1009439Y884184D01*
X1009428Y884270D01*
X1009207Y884940D01*
X1008999Y885616D01*
X1008958Y885692D01*
X1008931Y885775D01*
X1008580Y886389D01*
X1008244Y887010D01*
X1008189Y887077D01*
X1008146Y887152D01*
X1007682Y887685D01*
X1007229Y888228D01*
X1007162Y888282D01*
X1007105Y888348D01*
X1006544Y888779D01*
X1005994Y889222D01*
X1005917Y889262D01*
X1005848Y889315D01*
X1004683Y889913D01*
X1000128Y891800D01*
X989438Y902490D01*
X983653Y916457D01*
X983653Y931575D01*
X989438Y945541D01*
X1000128Y956231D01*
X1014095Y962016D01*
X1029212Y962016D01*
X1043179Y956231D01*
X1053869Y945541D01*
X1054940Y942955D01*
X1054981Y942878D01*
X1055008Y942796D01*
X1055355Y942181D01*
X1055689Y941557D01*
X1055744Y941490D01*
X1055787Y941415D01*
X1056250Y940879D01*
X1056699Y940335D01*
X1056766Y940281D01*
X1056823Y940215D01*
X1057382Y939781D01*
X1057930Y939336D01*
X1058007Y939295D01*
X1058075Y939242D01*
X1058708Y938927D01*
X1059333Y938599D01*
X1059416Y938575D01*
X1059494Y938536D01*
X1060178Y938352D01*
X1060855Y938154D01*
X1060942Y938146D01*
X1061025Y938124D01*
X1062331Y938016D01*
X1104014Y938016D01*
X1104118Y938027D01*
X1104221Y938019D01*
X1104905Y938105D01*
X1105592Y938173D01*
X1105691Y938204D01*
X1105794Y938217D01*
X1106446Y938436D01*
X1107107Y938639D01*
X1107199Y938688D01*
X1107297Y938721D01*
X1107894Y939064D01*
X1108501Y939393D01*
X1108581Y939460D01*
X1108671Y939512D01*
X1109671Y940359D01*
X1127690Y958379D01*
X1154200Y958379D01*
X1172945Y939633D01*
X1172945Y917491D01*
X1172956Y917387D01*
X1172948Y917283D01*
X1173034Y916600D01*
X1173103Y915913D01*
X1173133Y915813D01*
X1173146Y915710D01*
X1173365Y915058D01*
X1173568Y914397D01*
X1173617Y914306D01*
X1173650Y914207D01*
X1173995Y913609D01*
X1174323Y913003D01*
X1174389Y912924D01*
X1174441Y912833D01*
X1175289Y911834D01*
X1186133Y900990D01*
X1186133Y900989D01*
X1196712Y890411D01*
X1196766Y889977D01*
X1196835Y889290D01*
X1196866Y889190D01*
X1196878Y889087D01*
X1197097Y888435D01*
X1197300Y887774D01*
X1197350Y887683D01*
X1197383Y887584D01*
X1197726Y886988D01*
X1198055Y886380D01*
X1198122Y886300D01*
X1198173Y886210D01*
X1199021Y885211D01*
X1211589Y872643D01*
X1211670Y872577D01*
X1211738Y872498D01*
X1212283Y872075D01*
X1212816Y871638D01*
X1212908Y871590D01*
X1212990Y871526D01*
X1213607Y871219D01*
X1214216Y870896D01*
X1214316Y870866D01*
X1214409Y870820D01*
X1215074Y870640D01*
X1215736Y870444D01*
X1215840Y870434D01*
X1215940Y870407D01*
X1216785Y870338D01*
X1231015Y856107D01*
X1231096Y856041D01*
X1231164Y855963D01*
X1231709Y855539D01*
X1232242Y855103D01*
X1232334Y855054D01*
X1232416Y854990D01*
X1233033Y854683D01*
X1233642Y854360D01*
X1233742Y854330D01*
X1233835Y854284D01*
X1234500Y854105D01*
X1235162Y853908D01*
X1235266Y853899D01*
X1235366Y853872D01*
X1236672Y853764D01*
X1311015Y853764D01*
X1311101Y853773D01*
X1311188Y853766D01*
X1311891Y853852D01*
X1312593Y853922D01*
X1312675Y853947D01*
X1312762Y853957D01*
X1313431Y854179D01*
X1314108Y854387D01*
X1314185Y854428D01*
X1314267Y854455D01*
X1314879Y854804D01*
X1315502Y855141D01*
X1315569Y855197D01*
X1315644Y855240D01*
X1316178Y855705D01*
X1316720Y856156D01*
X1316774Y856224D01*
X1316840Y856281D01*
X1317273Y856844D01*
X1317714Y857392D01*
X1317754Y857468D01*
X1317807Y857537D01*
X1318405Y858703D01*
X1319008Y860156D01*
X1329135Y870284D01*
X1341328Y875334D01*
X1341343Y875342D01*
X1341360Y875347D01*
X1342042Y875717D01*
X1342725Y876083D01*
X1342739Y876094D01*
X1342754Y876102D01*
X1343353Y876602D01*
X1343947Y877093D01*
X1343958Y877106D01*
X1343972Y877117D01*
X1344460Y877724D01*
X1344946Y878323D01*
X1344954Y878339D01*
X1344965Y878352D01*
X1345323Y879041D01*
X1345683Y879727D01*
X1345688Y879744D01*
X1345696Y879759D01*
X1345911Y880505D01*
X1346129Y881249D01*
X1346130Y881266D01*
X1346135Y881283D01*
X1346195Y882022D01*
X1346265Y882828D01*
X1346263Y882846D01*
X1346265Y882863D01*
X1346176Y883617D01*
X1346088Y884403D01*
X1346082Y884420D01*
X1346080Y884437D01*
X1345844Y885163D01*
X1345603Y885913D01*
X1345594Y885928D01*
X1345589Y885945D01*
X1345213Y886612D01*
X1344830Y887297D01*
X1344819Y887310D01*
X1344810Y887325D01*
X1344301Y887915D01*
X1343799Y888502D01*
X1343786Y888512D01*
X1343774Y888525D01*
X1343161Y889001D01*
X1342552Y889479D01*
X1342536Y889487D01*
X1342522Y889498D01*
X1341824Y889845D01*
X1341135Y890192D01*
X1341119Y890196D01*
X1341103Y890204D01*
X1340351Y890407D01*
X1339606Y890611D01*
X1339589Y890612D01*
X1339572Y890616D01*
X1338267Y890724D01*
X1256799Y890724D01*
X1255488Y892034D01*
X1255408Y892100D01*
X1255340Y892179D01*
X1254795Y892602D01*
X1254262Y893039D01*
X1254170Y893087D01*
X1254088Y893151D01*
X1253471Y893458D01*
X1252861Y893781D01*
X1252762Y893811D01*
X1252668Y893858D01*
X1252004Y894037D01*
X1251342Y894234D01*
X1251238Y894243D01*
X1251138Y894270D01*
X1249832Y894377D01*
X1227690Y894377D01*
X1208944Y913123D01*
X1208944Y939633D01*
X1227690Y958379D01*
X1254200Y958379D01*
X1272945Y939633D01*
X1272945Y926724D01*
X1272952Y926655D01*
X1272947Y926586D01*
X1273031Y925868D01*
X1273103Y925147D01*
X1273123Y925080D01*
X1273131Y925011D01*
X1273355Y924325D01*
X1273568Y923631D01*
X1273601Y923570D01*
X1273622Y923504D01*
X1273977Y922876D01*
X1274323Y922237D01*
X1274367Y922184D01*
X1274401Y922123D01*
X1274874Y921575D01*
X1275337Y921019D01*
X1275391Y920976D01*
X1275437Y920923D01*
X1276010Y920478D01*
X1276573Y920026D01*
X1276634Y919994D01*
X1276689Y919951D01*
X1277339Y919628D01*
X1277980Y919295D01*
X1278046Y919276D01*
X1278108Y919245D01*
X1278809Y919056D01*
X1279503Y918856D01*
X1279572Y918850D01*
X1279639Y918832D01*
X1280945Y918725D01*
X1561015Y918725D01*
X1561101Y918734D01*
X1561188Y918727D01*
X1561891Y918812D01*
X1562593Y918882D01*
X1562675Y918908D01*
X1562762Y918918D01*
X1563431Y919140D01*
X1564108Y919347D01*
X1564185Y919389D01*
X1564267Y919416D01*
X1564879Y919765D01*
X1565502Y920102D01*
X1565569Y920158D01*
X1565644Y920201D01*
X1566178Y920665D01*
X1566720Y921117D01*
X1566774Y921184D01*
X1566840Y921242D01*
X1567273Y921804D01*
X1567714Y922352D01*
X1567754Y922429D01*
X1567807Y922498D01*
X1568405Y923663D01*
X1569008Y925117D01*
X1579135Y935244D01*
X1592367Y940725D01*
X1666688Y940725D01*
X1679920Y935244D01*
X1690047Y925117D01*
X1695528Y911885D01*
X1695528Y897563D01*
X1690047Y884332D01*
X1679920Y874204D01*
X1666688Y868724D01*
X1592367Y868724D01*
X1579135Y874204D01*
X1569008Y884332D01*
X1568405Y885785D01*
X1568364Y885862D01*
X1568337Y885945D01*
X1567991Y886559D01*
X1567657Y887183D01*
X1567601Y887250D01*
X1567559Y887325D01*
X1567099Y887858D01*
X1566647Y888405D01*
X1566580Y888460D01*
X1566523Y888525D01*
X1565965Y888958D01*
X1565416Y889404D01*
X1565339Y889445D01*
X1565271Y889498D01*
X1564639Y889812D01*
X1564012Y890141D01*
X1563929Y890165D01*
X1563851Y890204D01*
X1563169Y890388D01*
X1562491Y890586D01*
X1562404Y890594D01*
X1562321Y890616D01*
X1561015Y890724D01*
X1420788Y890724D01*
X1420771Y890722D01*
X1420754Y890724D01*
X1419987Y890644D01*
X1419211Y890567D01*
X1419194Y890562D01*
X1419177Y890560D01*
X1418444Y890331D01*
X1417695Y890102D01*
X1417680Y890093D01*
X1417663Y890088D01*
X1416992Y889720D01*
X1416301Y889347D01*
X1416288Y889336D01*
X1416273Y889327D01*
X1415678Y888828D01*
X1415083Y888332D01*
X1415073Y888318D01*
X1415059Y888307D01*
X1414569Y887692D01*
X1414090Y887096D01*
X1414082Y887081D01*
X1414071Y887067D01*
X1413706Y886357D01*
X1413359Y885690D01*
X1413354Y885673D01*
X1413346Y885657D01*
X1413130Y884893D01*
X1412920Y884166D01*
X1412919Y884149D01*
X1412914Y884132D01*
X1412853Y883355D01*
X1412790Y882586D01*
X1412792Y882569D01*
X1412791Y882552D01*
X1412885Y881777D01*
X1412975Y881012D01*
X1412980Y880995D01*
X1412982Y880978D01*
X1413227Y880237D01*
X1413466Y879504D01*
X1413474Y879490D01*
X1413480Y879473D01*
X1413870Y878787D01*
X1414245Y878124D01*
X1414256Y878110D01*
X1414265Y878095D01*
X1414772Y877513D01*
X1415281Y876923D01*
X1415295Y876912D01*
X1415306Y876900D01*
X1415918Y876428D01*
X1416533Y875951D01*
X1416548Y875944D01*
X1416562Y875933D01*
X1417727Y875334D01*
X1429920Y870284D01*
X1440047Y860156D01*
X1445528Y846925D01*
X1445528Y832603D01*
X1440047Y819371D01*
X1429920Y809244D01*
X1416688Y803763D01*
X1342367Y803763D01*
X1329135Y809244D01*
X1319008Y819371D01*
X1318405Y820825D01*
X1318364Y820901D01*
X1318337Y820984D01*
X1317991Y821599D01*
X1317657Y822222D01*
X1317601Y822289D01*
X1317559Y822365D01*
X1317098Y822899D01*
X1316647Y823444D01*
X1316580Y823499D01*
X1316523Y823565D01*
X1315967Y823996D01*
X1315416Y824444D01*
X1315339Y824484D01*
X1315271Y824537D01*
X1314639Y824852D01*
X1314012Y825180D01*
X1313929Y825205D01*
X1313851Y825243D01*
X1313169Y825427D01*
X1312491Y825626D01*
X1312404Y825633D01*
X1312321Y825656D01*
X1311015Y825763D01*
X1221760Y825763D01*
X1215235Y832288D01*
X1215181Y832332D01*
X1215136Y832385D01*
X1214571Y832832D01*
X1214008Y833293D01*
X1213946Y833325D01*
X1213892Y833368D01*
X1213251Y833694D01*
X1212608Y834035D01*
X1212541Y834055D01*
X1212479Y834087D01*
X1211782Y834281D01*
X1211088Y834487D01*
X1211019Y834494D01*
X1210952Y834512D01*
X1210231Y834565D01*
X1209509Y834631D01*
X1209440Y834623D01*
X1209371Y834628D01*
X1208656Y834538D01*
X1207933Y834460D01*
X1207867Y834439D01*
X1207798Y834430D01*
X1207111Y834200D01*
X1206422Y833982D01*
X1206361Y833948D01*
X1206295Y833926D01*
X1205666Y833564D01*
X1205034Y833215D01*
X1204981Y833170D01*
X1204921Y833136D01*
X1203922Y832288D01*
X1195932Y824298D01*
X1169422Y824298D01*
X1150676Y843044D01*
X1150676Y869554D01*
X1158666Y877544D01*
X1158711Y877598D01*
X1158763Y877643D01*
X1159210Y878208D01*
X1159671Y878771D01*
X1159703Y878832D01*
X1159746Y878886D01*
X1160073Y879529D01*
X1160413Y880171D01*
X1160433Y880238D01*
X1160465Y880299D01*
X1160658Y880993D01*
X1160865Y881691D01*
X1160872Y881760D01*
X1160890Y881827D01*
X1160943Y882545D01*
X1161009Y883269D01*
X1161001Y883339D01*
X1161006Y883408D01*
X1160916Y884123D01*
X1160838Y884845D01*
X1160817Y884912D01*
X1160808Y884981D01*
X1160578Y885666D01*
X1160360Y886357D01*
X1160326Y886418D01*
X1160304Y886484D01*
X1159943Y887111D01*
X1159593Y887744D01*
X1159548Y887797D01*
X1159514Y887858D01*
X1158666Y888857D01*
X1155489Y892034D01*
X1155408Y892100D01*
X1155340Y892179D01*
X1154795Y892602D01*
X1154262Y893039D01*
X1154170Y893087D01*
X1154088Y893151D01*
X1153471Y893458D01*
X1152861Y893781D01*
X1152762Y893811D01*
X1152669Y893858D01*
X1152004Y894037D01*
X1151342Y894234D01*
X1151238Y894243D01*
X1151138Y894270D01*
X1149832Y894377D01*
X1127690Y894377D01*
X1114395Y907672D01*
X1114314Y907738D01*
X1114246Y907817D01*
X1113701Y908240D01*
X1113168Y908676D01*
X1113077Y908725D01*
X1112994Y908789D01*
X1112377Y909096D01*
X1111768Y909419D01*
X1111668Y909449D01*
X1111575Y909495D01*
X1110910Y909674D01*
X1110248Y909871D01*
X1110144Y909881D01*
X1110044Y909908D01*
X1108739Y910015D01*
X1062331Y910015D01*
X1062244Y910006D01*
X1062158Y910013D01*
X1061456Y909928D01*
X1060753Y909858D01*
X1060670Y909832D01*
X1060584Y909822D01*
X1059915Y909601D01*
X1059238Y909393D01*
X1059161Y909351D01*
X1059079Y909324D01*
X1058466Y908975D01*
X1057844Y908638D01*
X1057777Y908582D01*
X1057701Y908539D01*
X1057168Y908075D01*
X1056626Y907623D01*
X1056571Y907556D01*
X1056506Y907498D01*
X1056073Y906936D01*
X1055632Y906388D01*
X1055592Y906311D01*
X1055539Y906242D01*
X1054940Y905077D01*
X1053869Y902490D01*
X1043179Y891800D01*
X1042561Y891544D01*
X1042484Y891503D01*
X1042402Y891476D01*
X1041787Y891130D01*
X1041164Y890795D01*
X1041096Y890740D01*
X1041021Y890697D01*
X1040485Y890235D01*
X1039941Y889786D01*
X1039887Y889719D01*
X1039821Y889662D01*
X1039387Y889103D01*
X1038942Y888555D01*
X1038902Y888478D01*
X1038849Y888409D01*
X1038534Y887776D01*
X1038205Y887151D01*
X1038181Y887068D01*
X1038142Y886990D01*
X1037958Y886307D01*
X1037760Y885630D01*
X1037752Y885543D01*
X1037730Y885459D01*
X1037623Y884154D01*
X1037623Y822917D01*
X1027078Y812373D01*
X1005529Y790824D01*
X1005474Y790757D01*
X1005408Y790700D01*
X1004973Y790145D01*
X1004525Y789597D01*
X1004484Y789521D01*
X1004431Y789452D01*
X1004114Y788822D01*
X1003782Y788197D01*
X1003757Y788114D01*
X1003718Y788036D01*
X1003532Y787355D01*
X1003330Y786677D01*
X1003322Y786591D01*
X1003299Y786507D01*
X1003251Y785804D01*
X1003187Y785098D01*
X1003196Y785012D01*
X1003190Y784926D01*
X1003281Y784227D01*
X1003357Y783522D01*
X1003384Y783440D01*
X1003395Y783354D01*
X1003795Y782106D01*
X1006040Y776687D01*
X1006040Y759580D01*
X999494Y743776D01*
X987397Y731680D01*
X971593Y725133D01*
X954486Y725133D01*
G37*
%LPD*%
%LPC*%
G36*
X714095Y1986015D02*
X714095Y1986015D01*
X700128Y1991800D01*
X689438Y2002490D01*
X683047Y2017920D01*
X682990Y2018026D01*
X682951Y2018142D01*
X682615Y2018726D01*
X682298Y2019317D01*
X682221Y2019410D01*
X682160Y2019516D01*
X681313Y2020515D01*
X671605Y2030222D01*
X671350Y2030531D01*
X671283Y2030586D01*
X671226Y2030651D01*
X670667Y2031085D01*
X670119Y2031530D01*
X670042Y2031570D01*
X669974Y2031624D01*
X669340Y2031939D01*
X668716Y2032267D01*
X668633Y2032291D01*
X668555Y2032330D01*
X667871Y2032514D01*
X667194Y2032712D01*
X667108Y2032720D01*
X667024Y2032742D01*
X665718Y2032850D01*
X250008Y2032850D01*
X249922Y2032841D01*
X249836Y2032848D01*
X249133Y2032762D01*
X248431Y2032693D01*
X248348Y2032667D01*
X248262Y2032657D01*
X247592Y2032435D01*
X246915Y2032227D01*
X246839Y2032186D01*
X246757Y2032159D01*
X246144Y2031810D01*
X245521Y2031473D01*
X245455Y2031417D01*
X245379Y2031374D01*
X244846Y2030909D01*
X244304Y2030458D01*
X244249Y2030390D01*
X244184Y2030333D01*
X243751Y2029770D01*
X243310Y2029222D01*
X243270Y2029146D01*
X243217Y2029077D01*
X242618Y2027911D01*
X242016Y2026458D01*
X231889Y2016330D01*
X218657Y2010850D01*
X144335Y2010850D01*
X131103Y2016330D01*
X120976Y2026458D01*
X115495Y2039689D01*
X115495Y2054011D01*
X120976Y2067243D01*
X131103Y2077370D01*
X144335Y2082851D01*
X218657Y2082851D01*
X231889Y2077370D01*
X242016Y2067243D01*
X242618Y2065789D01*
X242659Y2065713D01*
X242686Y2065630D01*
X243033Y2065016D01*
X243367Y2064392D01*
X243422Y2064325D01*
X243465Y2064249D01*
X243926Y2063715D01*
X244376Y2063170D01*
X244444Y2063115D01*
X244501Y2063049D01*
X245058Y2062616D01*
X245607Y2062171D01*
X245685Y2062130D01*
X245753Y2062077D01*
X246385Y2061763D01*
X247011Y2061434D01*
X247094Y2061409D01*
X247172Y2061371D01*
X247855Y2061187D01*
X248533Y2060988D01*
X248619Y2060981D01*
X248703Y2060958D01*
X250008Y2060851D01*
X665718Y2060851D01*
X665805Y2060860D01*
X665891Y2060853D01*
X666593Y2060938D01*
X667296Y2061008D01*
X667379Y2061034D01*
X667465Y2061044D01*
X668135Y2061266D01*
X668811Y2061473D01*
X668888Y2061515D01*
X668970Y2061542D01*
X669585Y2061892D01*
X670205Y2062228D01*
X670272Y2062283D01*
X670347Y2062327D01*
X670880Y2062790D01*
X671423Y2063243D01*
X671478Y2063311D01*
X671543Y2063368D01*
X671705Y2063578D01*
X681258Y2073132D01*
X692652Y2077851D01*
X694765Y2077851D01*
X694800Y2077854D01*
X694834Y2077851D01*
X695593Y2077933D01*
X696343Y2078008D01*
X696376Y2078018D01*
X696411Y2078022D01*
X697132Y2078250D01*
X697858Y2078473D01*
X697889Y2078490D01*
X697922Y2078500D01*
X698584Y2078866D01*
X699252Y2079228D01*
X699279Y2079250D01*
X699310Y2079267D01*
X699887Y2079757D01*
X700470Y2080243D01*
X700492Y2080270D01*
X700518Y2080293D01*
X700989Y2080888D01*
X701464Y2081478D01*
X701480Y2081509D01*
X701502Y2081536D01*
X701847Y2082216D01*
X702195Y2082885D01*
X702204Y2082919D01*
X702220Y2082949D01*
X702421Y2083672D01*
X702633Y2084408D01*
X702636Y2084443D01*
X702646Y2084477D01*
X702701Y2085234D01*
X702763Y2085988D01*
X702759Y2086023D01*
X702762Y2086058D01*
X702668Y2086799D01*
X702579Y2087563D01*
X702568Y2087596D01*
X702564Y2087631D01*
X702323Y2088349D01*
X702088Y2089070D01*
X702071Y2089101D01*
X702060Y2089133D01*
X701679Y2089795D01*
X701309Y2090451D01*
X701286Y2090477D01*
X701269Y2090508D01*
X700422Y2091507D01*
X689438Y2102490D01*
X683653Y2116457D01*
X683653Y2124850D01*
X683646Y2124920D01*
X683652Y2124989D01*
X683568Y2125707D01*
X683496Y2126428D01*
X683475Y2126494D01*
X683467Y2126563D01*
X683243Y2127250D01*
X683031Y2127944D01*
X682997Y2128005D01*
X682976Y2128070D01*
X682622Y2128699D01*
X682276Y2129338D01*
X682231Y2129391D01*
X682197Y2129451D01*
X681724Y2129999D01*
X681261Y2130555D01*
X681207Y2130599D01*
X681161Y2130651D01*
X680588Y2131097D01*
X680026Y2131549D01*
X679964Y2131581D01*
X679909Y2131624D01*
X679259Y2131947D01*
X678619Y2132280D01*
X678552Y2132299D01*
X678490Y2132330D01*
X677789Y2132519D01*
X677095Y2132719D01*
X677026Y2132724D01*
X676959Y2132742D01*
X675654Y2132850D01*
X250008Y2132850D01*
X249922Y2132841D01*
X249836Y2132848D01*
X249133Y2132762D01*
X248431Y2132693D01*
X248348Y2132667D01*
X248262Y2132657D01*
X247592Y2132435D01*
X246915Y2132227D01*
X246839Y2132186D01*
X246757Y2132159D01*
X246144Y2131810D01*
X245521Y2131473D01*
X245455Y2131417D01*
X245379Y2131374D01*
X244846Y2130909D01*
X244304Y2130458D01*
X244249Y2130390D01*
X244184Y2130333D01*
X243751Y2129770D01*
X243310Y2129222D01*
X243270Y2129146D01*
X243217Y2129077D01*
X242618Y2127911D01*
X242016Y2126458D01*
X231889Y2116330D01*
X218657Y2110850D01*
X144335Y2110850D01*
X131103Y2116330D01*
X120976Y2126458D01*
X115495Y2139689D01*
X115495Y2154011D01*
X120976Y2167243D01*
X131103Y2177370D01*
X144335Y2182851D01*
X218657Y2182851D01*
X231889Y2177370D01*
X242016Y2167243D01*
X242618Y2165789D01*
X242659Y2165713D01*
X242686Y2165630D01*
X243033Y2165016D01*
X243367Y2164392D01*
X243422Y2164325D01*
X243465Y2164249D01*
X243926Y2163715D01*
X244376Y2163170D01*
X244444Y2163115D01*
X244501Y2163049D01*
X245058Y2162616D01*
X245607Y2162171D01*
X245685Y2162130D01*
X245753Y2162077D01*
X246385Y2161763D01*
X247011Y2161434D01*
X247094Y2161409D01*
X247172Y2161371D01*
X247855Y2161187D01*
X248533Y2160988D01*
X248619Y2160981D01*
X248703Y2160958D01*
X250008Y2160851D01*
X705640Y2160851D01*
X706259Y2160681D01*
X706936Y2160480D01*
X707023Y2160472D01*
X707107Y2160449D01*
X707810Y2160400D01*
X708515Y2160336D01*
X708602Y2160346D01*
X708689Y2160340D01*
X709386Y2160430D01*
X710091Y2160507D01*
X710174Y2160533D01*
X710261Y2160544D01*
X711508Y2160945D01*
X714094Y2162016D01*
X729212Y2162016D01*
X743179Y2156231D01*
X753869Y2145541D01*
X759654Y2131575D01*
X759654Y2116457D01*
X753869Y2102490D01*
X743179Y2091800D01*
X729212Y2086015D01*
X722808Y2086015D01*
X722773Y2086012D01*
X722738Y2086015D01*
X721980Y2085933D01*
X721230Y2085858D01*
X721197Y2085848D01*
X721162Y2085844D01*
X720443Y2085616D01*
X719714Y2085393D01*
X719684Y2085376D01*
X719651Y2085366D01*
X718992Y2085001D01*
X718320Y2084638D01*
X718294Y2084616D01*
X718263Y2084599D01*
X717690Y2084112D01*
X717103Y2083623D01*
X717081Y2083596D01*
X717054Y2083573D01*
X716587Y2082982D01*
X716109Y2082388D01*
X716093Y2082357D01*
X716071Y2082330D01*
X715729Y2081656D01*
X715378Y2080981D01*
X715369Y2080947D01*
X715353Y2080917D01*
X715149Y2080186D01*
X714939Y2079458D01*
X714937Y2079423D01*
X714927Y2079390D01*
X714871Y2078632D01*
X714810Y2077878D01*
X714814Y2077843D01*
X714811Y2077808D01*
X714906Y2077057D01*
X714994Y2076303D01*
X715005Y2076270D01*
X715009Y2076235D01*
X715250Y2075517D01*
X715485Y2074796D01*
X715502Y2074766D01*
X715513Y2074733D01*
X715892Y2074074D01*
X716264Y2073415D01*
X716287Y2073389D01*
X716304Y2073359D01*
X717151Y2072359D01*
X725154Y2064356D01*
X725249Y2064279D01*
X725328Y2064188D01*
X725861Y2063778D01*
X726381Y2063352D01*
X726488Y2063295D01*
X726584Y2063221D01*
X727750Y2062622D01*
X743179Y2056231D01*
X753869Y2045541D01*
X759654Y2031575D01*
X759654Y2016457D01*
X753869Y2002490D01*
X743179Y1991800D01*
X729212Y1986015D01*
X714095Y1986015D01*
G37*
%LPD*%
%LPC*%
G36*
X938459Y76676D02*
X938459Y76676D01*
X934944Y80192D01*
X934944Y156029D01*
X938459Y159544D01*
X978950Y159544D01*
X979054Y159554D01*
X979157Y159547D01*
X979841Y159633D01*
X980528Y159701D01*
X980627Y159732D01*
X980730Y159745D01*
X981383Y159963D01*
X982043Y160166D01*
X982135Y160216D01*
X982233Y160249D01*
X982830Y160592D01*
X983437Y160921D01*
X983517Y160988D01*
X983607Y161039D01*
X984607Y161887D01*
X1060342Y237623D01*
X1084239Y237623D01*
X1084325Y237631D01*
X1084412Y237625D01*
X1085114Y237710D01*
X1085817Y237780D01*
X1085900Y237805D01*
X1085986Y237816D01*
X1086656Y238037D01*
X1087332Y238245D01*
X1087409Y238286D01*
X1087491Y238313D01*
X1088106Y238664D01*
X1088727Y239000D01*
X1088793Y239055D01*
X1088868Y239098D01*
X1089403Y239563D01*
X1089944Y240015D01*
X1089998Y240082D01*
X1090064Y240139D01*
X1090497Y240701D01*
X1090938Y241250D01*
X1090978Y241327D01*
X1091031Y241396D01*
X1091630Y242561D01*
X1105137Y275170D01*
X1130736Y300769D01*
X1164182Y314623D01*
X1200385Y314623D01*
X1233831Y300769D01*
X1259430Y275170D01*
X1273284Y241723D01*
X1273284Y205521D01*
X1259430Y172074D01*
X1233831Y146475D01*
X1200385Y132621D01*
X1164182Y132621D01*
X1130736Y146475D01*
X1105137Y172074D01*
X1091630Y204683D01*
X1091589Y204760D01*
X1091562Y204842D01*
X1091215Y205457D01*
X1090881Y206081D01*
X1090826Y206148D01*
X1090783Y206223D01*
X1090322Y206758D01*
X1089871Y207303D01*
X1089804Y207357D01*
X1089747Y207423D01*
X1089188Y207857D01*
X1088640Y208302D01*
X1088563Y208342D01*
X1088495Y208395D01*
X1087862Y208710D01*
X1087236Y209039D01*
X1087153Y209063D01*
X1087076Y209102D01*
X1086393Y209285D01*
X1085715Y209484D01*
X1085629Y209492D01*
X1085545Y209514D01*
X1084239Y209621D01*
X1075254Y209621D01*
X1075151Y209611D01*
X1075047Y209619D01*
X1074364Y209533D01*
X1073677Y209464D01*
X1073577Y209434D01*
X1073474Y209421D01*
X1072822Y209202D01*
X1072161Y208999D01*
X1072070Y208949D01*
X1071971Y208916D01*
X1071375Y208573D01*
X1070767Y208244D01*
X1070687Y208178D01*
X1070597Y208126D01*
X1069598Y207278D01*
X988658Y126339D01*
X988593Y126258D01*
X988514Y126190D01*
X988091Y125645D01*
X987654Y125112D01*
X987605Y125020D01*
X987542Y124938D01*
X987234Y124321D01*
X986911Y123712D01*
X986882Y123612D01*
X986835Y123519D01*
X986656Y122854D01*
X986459Y122192D01*
X986450Y122088D01*
X986423Y121988D01*
X986316Y120682D01*
X986316Y80192D01*
X982800Y76676D01*
X938459Y76676D01*
G37*
%LPD*%
%LPC*%
G36*
X278477Y1741228D02*
X278477Y1741228D01*
X259732Y1759973D01*
X259732Y1782116D01*
X259721Y1782219D01*
X259729Y1782323D01*
X259643Y1783006D01*
X259574Y1783693D01*
X259544Y1783793D01*
X259531Y1783896D01*
X259312Y1784548D01*
X259109Y1785209D01*
X259060Y1785300D01*
X259027Y1785399D01*
X258683Y1785995D01*
X258354Y1786603D01*
X258288Y1786683D01*
X258236Y1786773D01*
X257389Y1787772D01*
X233505Y1811655D01*
X233438Y1811710D01*
X233382Y1811776D01*
X232825Y1812212D01*
X232279Y1812659D01*
X232202Y1812700D01*
X232134Y1812754D01*
X231504Y1813070D01*
X230878Y1813402D01*
X230795Y1813427D01*
X230718Y1813466D01*
X230039Y1813652D01*
X229359Y1813854D01*
X229272Y1813862D01*
X229189Y1813885D01*
X228486Y1813934D01*
X227780Y1813998D01*
X227693Y1813988D01*
X227607Y1813994D01*
X226909Y1813903D01*
X226204Y1813827D01*
X226121Y1813801D01*
X226035Y1813790D01*
X224788Y1813389D01*
X218657Y1810850D01*
X144335Y1810850D01*
X131103Y1816330D01*
X120976Y1826458D01*
X115495Y1839689D01*
X115495Y1854011D01*
X120976Y1867243D01*
X131103Y1877370D01*
X144335Y1882851D01*
X218657Y1882851D01*
X231889Y1877370D01*
X242016Y1867243D01*
X242618Y1865789D01*
X242659Y1865713D01*
X242686Y1865630D01*
X243033Y1865016D01*
X243367Y1864392D01*
X243422Y1864325D01*
X243465Y1864249D01*
X243926Y1863715D01*
X244376Y1863170D01*
X244444Y1863115D01*
X244501Y1863049D01*
X245058Y1862616D01*
X245607Y1862171D01*
X245685Y1862130D01*
X245753Y1862077D01*
X246385Y1861763D01*
X247011Y1861434D01*
X247094Y1861409D01*
X247172Y1861371D01*
X247855Y1861187D01*
X248533Y1860988D01*
X248619Y1860981D01*
X248703Y1860958D01*
X250008Y1860851D01*
X705640Y1860851D01*
X706259Y1860681D01*
X706936Y1860480D01*
X707023Y1860472D01*
X707107Y1860449D01*
X707810Y1860400D01*
X708515Y1860336D01*
X708602Y1860346D01*
X708689Y1860340D01*
X709386Y1860430D01*
X710091Y1860507D01*
X710174Y1860533D01*
X710261Y1860544D01*
X711508Y1860945D01*
X714094Y1862016D01*
X729212Y1862016D01*
X743179Y1856231D01*
X753869Y1845541D01*
X759654Y1831575D01*
X759654Y1816457D01*
X753869Y1802490D01*
X743179Y1791800D01*
X729212Y1786015D01*
X714095Y1786015D01*
X700128Y1791800D01*
X689438Y1802490D01*
X683653Y1816457D01*
X683653Y1824850D01*
X683646Y1824920D01*
X683652Y1824989D01*
X683568Y1825707D01*
X683496Y1826428D01*
X683475Y1826494D01*
X683467Y1826563D01*
X683243Y1827250D01*
X683031Y1827944D01*
X682997Y1828005D01*
X682976Y1828070D01*
X682622Y1828699D01*
X682276Y1829338D01*
X682231Y1829391D01*
X682197Y1829451D01*
X681724Y1829999D01*
X681261Y1830555D01*
X681207Y1830599D01*
X681161Y1830651D01*
X680588Y1831097D01*
X680026Y1831549D01*
X679964Y1831581D01*
X679909Y1831624D01*
X679259Y1831947D01*
X678619Y1832280D01*
X678552Y1832299D01*
X678490Y1832330D01*
X677789Y1832519D01*
X677095Y1832719D01*
X677026Y1832724D01*
X676959Y1832742D01*
X675654Y1832850D01*
X271223Y1832850D01*
X271188Y1832846D01*
X271154Y1832849D01*
X270395Y1832767D01*
X269645Y1832693D01*
X269612Y1832682D01*
X269577Y1832679D01*
X268856Y1832450D01*
X268130Y1832227D01*
X268099Y1832211D01*
X268066Y1832200D01*
X267404Y1831835D01*
X266735Y1831473D01*
X266709Y1831450D01*
X266678Y1831434D01*
X266101Y1830944D01*
X265518Y1830458D01*
X265496Y1830430D01*
X265469Y1830408D01*
X264999Y1829812D01*
X264524Y1829222D01*
X264508Y1829192D01*
X264486Y1829164D01*
X264141Y1828484D01*
X263793Y1827816D01*
X263784Y1827782D01*
X263768Y1827751D01*
X263565Y1827022D01*
X263354Y1826292D01*
X263352Y1826258D01*
X263342Y1826224D01*
X263287Y1825467D01*
X263225Y1824712D01*
X263229Y1824678D01*
X263226Y1824643D01*
X263321Y1823892D01*
X263409Y1823138D01*
X263420Y1823104D01*
X263424Y1823070D01*
X263665Y1822352D01*
X263900Y1821630D01*
X263917Y1821600D01*
X263928Y1821567D01*
X264309Y1820906D01*
X264679Y1820250D01*
X264702Y1820223D01*
X264719Y1820193D01*
X265566Y1819194D01*
X277189Y1807572D01*
X277269Y1807506D01*
X277337Y1807427D01*
X277882Y1807004D01*
X278415Y1806567D01*
X278508Y1806518D01*
X278589Y1806455D01*
X279206Y1806148D01*
X279816Y1805825D01*
X279915Y1805795D01*
X280009Y1805749D01*
X280674Y1805569D01*
X281335Y1805373D01*
X281439Y1805363D01*
X281539Y1805336D01*
X282845Y1805229D01*
X304987Y1805229D01*
X323733Y1786483D01*
X323733Y1759973D01*
X304987Y1741228D01*
X278477Y1741228D01*
G37*
%LPD*%
%LPC*%
G36*
X828223Y76676D02*
X828223Y76676D01*
X824708Y80192D01*
X824708Y96110D01*
X824706Y96128D01*
X824707Y96134D01*
X824701Y96181D01*
X824707Y96248D01*
X824623Y96967D01*
X824551Y97688D01*
X824531Y97754D01*
X824522Y97823D01*
X824299Y98510D01*
X824086Y99203D01*
X824053Y99265D01*
X824031Y99330D01*
X823677Y99958D01*
X823331Y100597D01*
X823286Y100651D01*
X823252Y100711D01*
X822779Y101259D01*
X822316Y101815D01*
X822262Y101859D01*
X822217Y101911D01*
X821643Y102357D01*
X821081Y102809D01*
X821019Y102841D01*
X820964Y102883D01*
X820314Y103207D01*
X819674Y103540D01*
X819608Y103559D01*
X819545Y103590D01*
X818844Y103779D01*
X818150Y103978D01*
X818081Y103984D01*
X818014Y104002D01*
X816709Y104109D01*
X633526Y104109D01*
X633440Y104101D01*
X633353Y104108D01*
X632652Y104022D01*
X631949Y103952D01*
X631866Y103927D01*
X631780Y103916D01*
X631110Y103695D01*
X630433Y103487D01*
X630357Y103446D01*
X630275Y103419D01*
X629660Y103069D01*
X629039Y102732D01*
X628973Y102677D01*
X628897Y102634D01*
X628364Y102170D01*
X627821Y101718D01*
X627767Y101650D01*
X627702Y101593D01*
X627270Y101032D01*
X626828Y100482D01*
X626788Y100406D01*
X626735Y100337D01*
X626136Y99171D01*
X625462Y97545D01*
X615054Y87136D01*
X601454Y81503D01*
X586734Y81503D01*
X573135Y87136D01*
X562727Y97545D01*
X562053Y99171D01*
X562038Y99200D01*
X562032Y99216D01*
X562009Y99258D01*
X561985Y99330D01*
X561639Y99944D01*
X561304Y100569D01*
X561249Y100636D01*
X561206Y100711D01*
X560745Y101245D01*
X560294Y101791D01*
X560227Y101846D01*
X560170Y101911D01*
X559612Y102345D01*
X559063Y102790D01*
X558987Y102830D01*
X558918Y102883D01*
X558284Y103199D01*
X557660Y103527D01*
X557577Y103551D01*
X557499Y103590D01*
X556815Y103774D01*
X556138Y103972D01*
X556052Y103980D01*
X555968Y104002D01*
X554663Y104109D01*
X353256Y104109D01*
X342711Y114654D01*
X322087Y135278D01*
X322006Y135344D01*
X321938Y135423D01*
X321393Y135846D01*
X320860Y136283D01*
X320769Y136331D01*
X320686Y136395D01*
X320069Y136702D01*
X319460Y137026D01*
X319360Y137055D01*
X319267Y137102D01*
X318602Y137281D01*
X317940Y137478D01*
X317836Y137487D01*
X317736Y137514D01*
X316431Y137621D01*
X266382Y137621D01*
X253151Y143102D01*
X243023Y153229D01*
X237543Y166461D01*
X237543Y180783D01*
X243023Y194015D01*
X253151Y204142D01*
X266382Y209623D01*
X340704Y209623D01*
X353936Y204142D01*
X364063Y194015D01*
X369544Y180783D01*
X369544Y166461D01*
X364063Y153229D01*
X359556Y148722D01*
X359511Y148668D01*
X359459Y148623D01*
X359011Y148057D01*
X358552Y147495D01*
X358519Y147434D01*
X358476Y147379D01*
X358148Y146734D01*
X357809Y146095D01*
X357789Y146028D01*
X357757Y145966D01*
X357564Y145272D01*
X357357Y144575D01*
X357350Y144506D01*
X357332Y144439D01*
X357279Y143722D01*
X357213Y142996D01*
X357221Y142927D01*
X357216Y142858D01*
X357306Y142142D01*
X357384Y141420D01*
X357405Y141354D01*
X357414Y141285D01*
X357643Y140600D01*
X357862Y139909D01*
X357896Y139848D01*
X357918Y139782D01*
X358278Y139157D01*
X358629Y138521D01*
X358674Y138468D01*
X358709Y138408D01*
X359556Y137409D01*
X362512Y134454D01*
X362592Y134388D01*
X362660Y134309D01*
X363205Y133886D01*
X363738Y133449D01*
X363830Y133401D01*
X363912Y133337D01*
X364531Y133029D01*
X365139Y132707D01*
X365238Y132677D01*
X365331Y132631D01*
X365998Y132451D01*
X366658Y132255D01*
X366762Y132245D01*
X366862Y132218D01*
X368168Y132111D01*
X554336Y132111D01*
X554423Y132119D01*
X554509Y132113D01*
X555211Y132198D01*
X555914Y132268D01*
X555997Y132293D01*
X556083Y132304D01*
X556753Y132525D01*
X557430Y132733D01*
X557506Y132774D01*
X557588Y132802D01*
X558203Y133152D01*
X558824Y133488D01*
X558890Y133543D01*
X558966Y133586D01*
X559498Y134050D01*
X560041Y134503D01*
X560096Y134571D01*
X560161Y134627D01*
X560590Y135185D01*
X561035Y135738D01*
X561075Y135815D01*
X561128Y135884D01*
X561727Y137049D01*
X562727Y139463D01*
X573135Y149872D01*
X586734Y155505D01*
X601454Y155505D01*
X615054Y149872D01*
X625462Y139463D01*
X626462Y137049D01*
X626503Y136972D01*
X626530Y136890D01*
X626877Y136275D01*
X627211Y135652D01*
X627266Y135585D01*
X627309Y135509D01*
X627770Y134975D01*
X628221Y134429D01*
X628288Y134375D01*
X628345Y134309D01*
X628903Y133875D01*
X629452Y133430D01*
X629528Y133390D01*
X629597Y133337D01*
X630231Y133021D01*
X630855Y132694D01*
X630938Y132669D01*
X631016Y132631D01*
X631700Y132446D01*
X632377Y132248D01*
X632463Y132241D01*
X632547Y132218D01*
X633852Y132111D01*
X816709Y132111D01*
X816778Y132118D01*
X816847Y132112D01*
X817565Y132196D01*
X818286Y132268D01*
X818352Y132288D01*
X818422Y132296D01*
X819108Y132520D01*
X819802Y132733D01*
X819863Y132766D01*
X819929Y132788D01*
X820557Y133142D01*
X821196Y133488D01*
X821249Y133532D01*
X821310Y133566D01*
X821858Y134039D01*
X822414Y134503D01*
X822457Y134557D01*
X822510Y134602D01*
X822955Y135176D01*
X823407Y135738D01*
X823439Y135800D01*
X823482Y135854D01*
X823805Y136504D01*
X824138Y137145D01*
X824157Y137211D01*
X824188Y137274D01*
X824377Y137975D01*
X824577Y138668D01*
X824583Y138737D01*
X824601Y138805D01*
X824708Y140110D01*
X824708Y156029D01*
X828223Y159544D01*
X872564Y159544D01*
X876079Y156029D01*
X876079Y80192D01*
X872564Y76676D01*
X828223Y76676D01*
G37*
%LPD*%
%LPC*%
G36*
X1592367Y1268724D02*
X1592367Y1268724D01*
X1579135Y1274204D01*
X1569008Y1284332D01*
X1563527Y1297563D01*
X1563527Y1302016D01*
X1563520Y1302085D01*
X1563526Y1302154D01*
X1563442Y1302872D01*
X1563370Y1303593D01*
X1563349Y1303660D01*
X1563341Y1303729D01*
X1563117Y1304415D01*
X1562905Y1305109D01*
X1562871Y1305170D01*
X1562850Y1305236D01*
X1562496Y1305864D01*
X1562150Y1306503D01*
X1562105Y1306556D01*
X1562071Y1306617D01*
X1561598Y1307165D01*
X1561135Y1307721D01*
X1561081Y1307764D01*
X1561035Y1307817D01*
X1560462Y1308262D01*
X1559900Y1308714D01*
X1559838Y1308746D01*
X1559783Y1308789D01*
X1559133Y1309112D01*
X1558493Y1309445D01*
X1558426Y1309464D01*
X1558364Y1309495D01*
X1557663Y1309684D01*
X1556969Y1309884D01*
X1556900Y1309890D01*
X1556833Y1309908D01*
X1555528Y1310015D01*
X1062331Y1310015D01*
X1062244Y1310006D01*
X1062158Y1310013D01*
X1061456Y1309928D01*
X1060753Y1309858D01*
X1060670Y1309832D01*
X1060584Y1309822D01*
X1059915Y1309601D01*
X1059238Y1309393D01*
X1059161Y1309351D01*
X1059079Y1309324D01*
X1058466Y1308975D01*
X1057844Y1308638D01*
X1057777Y1308582D01*
X1057701Y1308539D01*
X1057168Y1308075D01*
X1056626Y1307623D01*
X1056571Y1307556D01*
X1056506Y1307498D01*
X1056073Y1306936D01*
X1055632Y1306388D01*
X1055592Y1306311D01*
X1055539Y1306242D01*
X1054940Y1305077D01*
X1053869Y1302490D01*
X1043179Y1291800D01*
X1029212Y1286015D01*
X1014095Y1286015D01*
X1000128Y1291800D01*
X989438Y1302490D01*
X983653Y1316457D01*
X983653Y1331575D01*
X989438Y1345541D01*
X1000128Y1356231D01*
X1014095Y1362016D01*
X1029212Y1362016D01*
X1043179Y1356231D01*
X1053869Y1345541D01*
X1054940Y1342955D01*
X1054981Y1342878D01*
X1055008Y1342796D01*
X1055355Y1342181D01*
X1055689Y1341557D01*
X1055744Y1341490D01*
X1055787Y1341415D01*
X1056250Y1340879D01*
X1056699Y1340335D01*
X1056766Y1340281D01*
X1056823Y1340215D01*
X1057382Y1339781D01*
X1057930Y1339336D01*
X1058007Y1339295D01*
X1058075Y1339242D01*
X1058708Y1338927D01*
X1059333Y1338599D01*
X1059416Y1338575D01*
X1059494Y1338536D01*
X1060178Y1338352D01*
X1060855Y1338154D01*
X1060942Y1338146D01*
X1061025Y1338124D01*
X1062331Y1338016D01*
X1584236Y1338016D01*
X1584357Y1338028D01*
X1584478Y1338020D01*
X1585144Y1338107D01*
X1585814Y1338173D01*
X1585930Y1338209D01*
X1586050Y1338225D01*
X1587297Y1338625D01*
X1592367Y1340725D01*
X1666688Y1340725D01*
X1679920Y1335244D01*
X1690047Y1325117D01*
X1695528Y1311885D01*
X1695528Y1297563D01*
X1690047Y1284332D01*
X1679920Y1274204D01*
X1666688Y1268724D01*
X1592367Y1268724D01*
G37*
%LPD*%
%LPC*%
G36*
X1592367Y1368724D02*
X1592367Y1368724D01*
X1579135Y1374204D01*
X1569008Y1384332D01*
X1563527Y1397563D01*
X1563527Y1402016D01*
X1563520Y1402085D01*
X1563526Y1402154D01*
X1563442Y1402872D01*
X1563370Y1403593D01*
X1563349Y1403660D01*
X1563341Y1403729D01*
X1563117Y1404415D01*
X1562905Y1405109D01*
X1562871Y1405170D01*
X1562850Y1405236D01*
X1562496Y1405864D01*
X1562150Y1406503D01*
X1562105Y1406556D01*
X1562071Y1406617D01*
X1561598Y1407165D01*
X1561135Y1407721D01*
X1561081Y1407764D01*
X1561035Y1407817D01*
X1560462Y1408262D01*
X1559900Y1408714D01*
X1559838Y1408746D01*
X1559783Y1408789D01*
X1559133Y1409112D01*
X1558493Y1409445D01*
X1558426Y1409464D01*
X1558364Y1409495D01*
X1557663Y1409684D01*
X1556969Y1409884D01*
X1556900Y1409890D01*
X1556833Y1409908D01*
X1555528Y1410015D01*
X1062331Y1410015D01*
X1062244Y1410006D01*
X1062158Y1410013D01*
X1061456Y1409928D01*
X1060753Y1409858D01*
X1060670Y1409832D01*
X1060584Y1409822D01*
X1059915Y1409601D01*
X1059238Y1409393D01*
X1059161Y1409351D01*
X1059079Y1409324D01*
X1058466Y1408975D01*
X1057844Y1408638D01*
X1057777Y1408582D01*
X1057701Y1408539D01*
X1057168Y1408075D01*
X1056626Y1407623D01*
X1056571Y1407556D01*
X1056506Y1407498D01*
X1056073Y1406936D01*
X1055632Y1406388D01*
X1055592Y1406311D01*
X1055539Y1406242D01*
X1054940Y1405077D01*
X1053869Y1402490D01*
X1043179Y1391800D01*
X1029212Y1386015D01*
X1014095Y1386015D01*
X1000128Y1391800D01*
X989438Y1402490D01*
X983653Y1416457D01*
X983653Y1431575D01*
X989438Y1445541D01*
X1000128Y1456231D01*
X1014095Y1462016D01*
X1029212Y1462016D01*
X1043179Y1456231D01*
X1053869Y1445541D01*
X1054940Y1442955D01*
X1054981Y1442878D01*
X1055008Y1442796D01*
X1055355Y1442181D01*
X1055689Y1441557D01*
X1055744Y1441490D01*
X1055787Y1441415D01*
X1056250Y1440879D01*
X1056699Y1440335D01*
X1056766Y1440281D01*
X1056823Y1440215D01*
X1057382Y1439781D01*
X1057930Y1439336D01*
X1058007Y1439295D01*
X1058075Y1439242D01*
X1058708Y1438927D01*
X1059333Y1438599D01*
X1059416Y1438575D01*
X1059494Y1438536D01*
X1060178Y1438352D01*
X1060855Y1438154D01*
X1060942Y1438146D01*
X1061025Y1438124D01*
X1062331Y1438016D01*
X1584236Y1438016D01*
X1584357Y1438028D01*
X1584478Y1438020D01*
X1585144Y1438107D01*
X1585814Y1438173D01*
X1585930Y1438209D01*
X1586050Y1438225D01*
X1587297Y1438625D01*
X1592367Y1440725D01*
X1666688Y1440725D01*
X1679920Y1435244D01*
X1690047Y1425117D01*
X1695528Y1411885D01*
X1695528Y1397563D01*
X1690047Y1384332D01*
X1679920Y1374204D01*
X1666688Y1368724D01*
X1592367Y1368724D01*
G37*
%LPD*%
%LPC*%
G36*
X1592367Y1168724D02*
X1592367Y1168724D01*
X1579135Y1174204D01*
X1569008Y1184332D01*
X1563527Y1197563D01*
X1563527Y1202016D01*
X1563520Y1202085D01*
X1563526Y1202154D01*
X1563442Y1202872D01*
X1563370Y1203593D01*
X1563349Y1203660D01*
X1563341Y1203729D01*
X1563117Y1204415D01*
X1562905Y1205109D01*
X1562871Y1205170D01*
X1562850Y1205236D01*
X1562496Y1205864D01*
X1562150Y1206503D01*
X1562105Y1206556D01*
X1562071Y1206617D01*
X1561598Y1207165D01*
X1561135Y1207721D01*
X1561081Y1207764D01*
X1561035Y1207817D01*
X1560462Y1208262D01*
X1559900Y1208714D01*
X1559838Y1208746D01*
X1559783Y1208789D01*
X1559133Y1209112D01*
X1558493Y1209445D01*
X1558426Y1209464D01*
X1558364Y1209495D01*
X1557663Y1209684D01*
X1556969Y1209884D01*
X1556900Y1209890D01*
X1556833Y1209908D01*
X1555528Y1210015D01*
X1062331Y1210015D01*
X1062244Y1210006D01*
X1062158Y1210013D01*
X1061456Y1209928D01*
X1060753Y1209858D01*
X1060670Y1209832D01*
X1060584Y1209822D01*
X1059915Y1209601D01*
X1059238Y1209393D01*
X1059161Y1209351D01*
X1059079Y1209324D01*
X1058466Y1208975D01*
X1057844Y1208638D01*
X1057777Y1208582D01*
X1057701Y1208539D01*
X1057168Y1208075D01*
X1056626Y1207623D01*
X1056571Y1207556D01*
X1056506Y1207498D01*
X1056073Y1206936D01*
X1055632Y1206388D01*
X1055592Y1206311D01*
X1055539Y1206242D01*
X1054940Y1205077D01*
X1053869Y1202490D01*
X1043179Y1191800D01*
X1029212Y1186015D01*
X1014095Y1186015D01*
X1000128Y1191800D01*
X989438Y1202490D01*
X983653Y1216457D01*
X983653Y1231575D01*
X989438Y1245541D01*
X1000128Y1256231D01*
X1014095Y1262016D01*
X1029212Y1262016D01*
X1043179Y1256231D01*
X1053869Y1245541D01*
X1054940Y1242955D01*
X1054981Y1242878D01*
X1055008Y1242796D01*
X1055355Y1242181D01*
X1055689Y1241557D01*
X1055744Y1241490D01*
X1055787Y1241415D01*
X1056250Y1240879D01*
X1056699Y1240335D01*
X1056766Y1240281D01*
X1056823Y1240215D01*
X1057382Y1239781D01*
X1057930Y1239336D01*
X1058007Y1239295D01*
X1058075Y1239242D01*
X1058708Y1238927D01*
X1059333Y1238599D01*
X1059416Y1238575D01*
X1059494Y1238536D01*
X1060178Y1238352D01*
X1060855Y1238154D01*
X1060942Y1238146D01*
X1061025Y1238124D01*
X1062331Y1238016D01*
X1584236Y1238016D01*
X1584357Y1238028D01*
X1584478Y1238020D01*
X1585144Y1238107D01*
X1585814Y1238173D01*
X1585930Y1238209D01*
X1586050Y1238225D01*
X1587297Y1238625D01*
X1592367Y1240725D01*
X1666688Y1240725D01*
X1679920Y1235244D01*
X1690047Y1225117D01*
X1695528Y1211885D01*
X1695528Y1197563D01*
X1690047Y1184332D01*
X1679920Y1174204D01*
X1666688Y1168724D01*
X1592367Y1168724D01*
G37*
%LPD*%
%LPC*%
G36*
X1592367Y1068724D02*
X1592367Y1068724D01*
X1579135Y1074204D01*
X1569008Y1084332D01*
X1563527Y1097563D01*
X1563527Y1102016D01*
X1563520Y1102085D01*
X1563526Y1102154D01*
X1563442Y1102872D01*
X1563370Y1103593D01*
X1563349Y1103660D01*
X1563341Y1103729D01*
X1563117Y1104415D01*
X1562905Y1105109D01*
X1562871Y1105170D01*
X1562850Y1105236D01*
X1562496Y1105864D01*
X1562150Y1106503D01*
X1562105Y1106556D01*
X1562071Y1106617D01*
X1561598Y1107165D01*
X1561135Y1107721D01*
X1561081Y1107764D01*
X1561035Y1107817D01*
X1560462Y1108262D01*
X1559900Y1108714D01*
X1559838Y1108746D01*
X1559783Y1108789D01*
X1559133Y1109112D01*
X1558493Y1109445D01*
X1558426Y1109464D01*
X1558364Y1109495D01*
X1557663Y1109684D01*
X1556969Y1109884D01*
X1556900Y1109890D01*
X1556833Y1109908D01*
X1555528Y1110015D01*
X1062331Y1110015D01*
X1062244Y1110006D01*
X1062158Y1110013D01*
X1061456Y1109928D01*
X1060753Y1109858D01*
X1060670Y1109832D01*
X1060584Y1109822D01*
X1059915Y1109601D01*
X1059238Y1109393D01*
X1059161Y1109351D01*
X1059079Y1109324D01*
X1058466Y1108975D01*
X1057844Y1108638D01*
X1057777Y1108582D01*
X1057701Y1108539D01*
X1057168Y1108075D01*
X1056626Y1107623D01*
X1056571Y1107556D01*
X1056506Y1107498D01*
X1056073Y1106936D01*
X1055632Y1106388D01*
X1055592Y1106311D01*
X1055539Y1106242D01*
X1054940Y1105077D01*
X1053869Y1102490D01*
X1043179Y1091800D01*
X1029212Y1086015D01*
X1014095Y1086015D01*
X1000128Y1091800D01*
X989438Y1102490D01*
X983653Y1116457D01*
X983653Y1131575D01*
X989438Y1145541D01*
X1000128Y1156231D01*
X1014095Y1162016D01*
X1029212Y1162016D01*
X1043179Y1156231D01*
X1053869Y1145541D01*
X1054940Y1142955D01*
X1054981Y1142878D01*
X1055008Y1142796D01*
X1055355Y1142181D01*
X1055689Y1141557D01*
X1055744Y1141490D01*
X1055787Y1141415D01*
X1056250Y1140879D01*
X1056699Y1140335D01*
X1056766Y1140281D01*
X1056823Y1140215D01*
X1057382Y1139781D01*
X1057930Y1139336D01*
X1058007Y1139295D01*
X1058075Y1139242D01*
X1058708Y1138927D01*
X1059333Y1138599D01*
X1059416Y1138575D01*
X1059494Y1138536D01*
X1060178Y1138352D01*
X1060855Y1138154D01*
X1060942Y1138146D01*
X1061025Y1138124D01*
X1062331Y1138016D01*
X1584236Y1138016D01*
X1584357Y1138028D01*
X1584478Y1138020D01*
X1585144Y1138107D01*
X1585814Y1138173D01*
X1585930Y1138209D01*
X1586050Y1138225D01*
X1587297Y1138625D01*
X1592367Y1140725D01*
X1666688Y1140725D01*
X1679920Y1135244D01*
X1690047Y1125117D01*
X1695528Y1111885D01*
X1695528Y1097563D01*
X1690047Y1084332D01*
X1679920Y1074204D01*
X1666688Y1068724D01*
X1592367Y1068724D01*
G37*
%LPD*%
%LPC*%
G36*
X1592367Y968724D02*
X1592367Y968724D01*
X1579135Y974204D01*
X1569008Y984332D01*
X1563527Y997563D01*
X1563527Y1002016D01*
X1563520Y1002085D01*
X1563526Y1002154D01*
X1563442Y1002872D01*
X1563370Y1003593D01*
X1563349Y1003660D01*
X1563341Y1003729D01*
X1563117Y1004415D01*
X1562905Y1005109D01*
X1562871Y1005170D01*
X1562850Y1005236D01*
X1562496Y1005864D01*
X1562150Y1006503D01*
X1562105Y1006556D01*
X1562071Y1006617D01*
X1561598Y1007165D01*
X1561135Y1007721D01*
X1561081Y1007764D01*
X1561035Y1007817D01*
X1560462Y1008262D01*
X1559900Y1008714D01*
X1559838Y1008746D01*
X1559783Y1008789D01*
X1559133Y1009112D01*
X1558493Y1009445D01*
X1558426Y1009464D01*
X1558364Y1009495D01*
X1557663Y1009684D01*
X1556969Y1009884D01*
X1556900Y1009890D01*
X1556833Y1009908D01*
X1555528Y1010015D01*
X1062331Y1010015D01*
X1062244Y1010006D01*
X1062158Y1010013D01*
X1061456Y1009928D01*
X1060753Y1009858D01*
X1060670Y1009832D01*
X1060584Y1009822D01*
X1059915Y1009601D01*
X1059238Y1009393D01*
X1059161Y1009351D01*
X1059079Y1009324D01*
X1058466Y1008975D01*
X1057844Y1008638D01*
X1057777Y1008582D01*
X1057701Y1008539D01*
X1057168Y1008075D01*
X1056626Y1007623D01*
X1056571Y1007556D01*
X1056506Y1007498D01*
X1056073Y1006936D01*
X1055632Y1006388D01*
X1055592Y1006311D01*
X1055539Y1006242D01*
X1054940Y1005077D01*
X1053869Y1002490D01*
X1043179Y991800D01*
X1029212Y986015D01*
X1014095Y986015D01*
X1000128Y991800D01*
X989438Y1002490D01*
X983653Y1016457D01*
X983653Y1031575D01*
X989438Y1045541D01*
X1000128Y1056231D01*
X1014095Y1062016D01*
X1029212Y1062016D01*
X1043179Y1056231D01*
X1053869Y1045541D01*
X1054940Y1042955D01*
X1054981Y1042878D01*
X1055008Y1042796D01*
X1055355Y1042181D01*
X1055689Y1041557D01*
X1055744Y1041490D01*
X1055787Y1041415D01*
X1056250Y1040879D01*
X1056699Y1040335D01*
X1056766Y1040281D01*
X1056823Y1040215D01*
X1057382Y1039781D01*
X1057930Y1039336D01*
X1058007Y1039295D01*
X1058075Y1039242D01*
X1058708Y1038927D01*
X1059333Y1038599D01*
X1059416Y1038575D01*
X1059494Y1038536D01*
X1060178Y1038352D01*
X1060855Y1038154D01*
X1060942Y1038146D01*
X1061025Y1038124D01*
X1062331Y1038016D01*
X1584236Y1038016D01*
X1584357Y1038028D01*
X1584478Y1038020D01*
X1585144Y1038107D01*
X1585814Y1038173D01*
X1585930Y1038209D01*
X1586050Y1038225D01*
X1587297Y1038625D01*
X1592367Y1040725D01*
X1666688Y1040725D01*
X1679920Y1035244D01*
X1690047Y1025117D01*
X1695528Y1011885D01*
X1695528Y997563D01*
X1690047Y984332D01*
X1679920Y974204D01*
X1666688Y968724D01*
X1592367Y968724D01*
G37*
%LPD*%
%LPC*%
G36*
X1014095Y2186015D02*
X1014095Y2186015D01*
X1000128Y2191800D01*
X989438Y2202490D01*
X983653Y2216457D01*
X983653Y2231575D01*
X989438Y2245541D01*
X1000128Y2256231D01*
X1014095Y2262016D01*
X1029212Y2262016D01*
X1043179Y2256231D01*
X1053869Y2245541D01*
X1054940Y2242955D01*
X1054981Y2242878D01*
X1055008Y2242796D01*
X1055355Y2242181D01*
X1055689Y2241557D01*
X1055744Y2241490D01*
X1055787Y2241415D01*
X1056250Y2240879D01*
X1056699Y2240335D01*
X1056766Y2240281D01*
X1056823Y2240215D01*
X1057382Y2239781D01*
X1057930Y2239336D01*
X1058007Y2239295D01*
X1058075Y2239242D01*
X1058708Y2238927D01*
X1059333Y2238599D01*
X1059416Y2238575D01*
X1059494Y2238536D01*
X1060178Y2238352D01*
X1060855Y2238154D01*
X1060942Y2238146D01*
X1061025Y2238124D01*
X1062331Y2238016D01*
X1542832Y2238016D01*
X1542919Y2238025D01*
X1543005Y2238018D01*
X1543707Y2238103D01*
X1544410Y2238173D01*
X1544493Y2238199D01*
X1544579Y2238209D01*
X1545249Y2238431D01*
X1545926Y2238639D01*
X1546002Y2238680D01*
X1546084Y2238707D01*
X1546699Y2239057D01*
X1547320Y2239393D01*
X1547386Y2239449D01*
X1547462Y2239492D01*
X1547993Y2239955D01*
X1548537Y2240408D01*
X1548592Y2240476D01*
X1548657Y2240533D01*
X1549088Y2241093D01*
X1549531Y2241644D01*
X1549571Y2241720D01*
X1549624Y2241789D01*
X1550223Y2242954D01*
X1555228Y2255038D01*
X1565355Y2265166D01*
X1578587Y2270646D01*
X1652909Y2270646D01*
X1666141Y2265166D01*
X1676268Y2255038D01*
X1681749Y2241807D01*
X1681749Y2227485D01*
X1676268Y2214253D01*
X1666141Y2204126D01*
X1652909Y2198645D01*
X1578587Y2198645D01*
X1565355Y2204126D01*
X1561809Y2207672D01*
X1561728Y2207738D01*
X1561660Y2207817D01*
X1561115Y2208240D01*
X1560582Y2208676D01*
X1560490Y2208725D01*
X1560408Y2208789D01*
X1559791Y2209096D01*
X1559182Y2209419D01*
X1559082Y2209449D01*
X1558989Y2209495D01*
X1558324Y2209674D01*
X1557662Y2209871D01*
X1557558Y2209881D01*
X1557458Y2209908D01*
X1556152Y2210015D01*
X1062331Y2210015D01*
X1062244Y2210006D01*
X1062158Y2210013D01*
X1061456Y2209928D01*
X1060753Y2209858D01*
X1060670Y2209832D01*
X1060584Y2209822D01*
X1059915Y2209601D01*
X1059238Y2209393D01*
X1059161Y2209351D01*
X1059079Y2209324D01*
X1058466Y2208975D01*
X1057844Y2208638D01*
X1057777Y2208582D01*
X1057701Y2208539D01*
X1057168Y2208075D01*
X1056626Y2207623D01*
X1056571Y2207556D01*
X1056506Y2207498D01*
X1056073Y2206936D01*
X1055632Y2206388D01*
X1055592Y2206311D01*
X1055539Y2206242D01*
X1054940Y2205077D01*
X1053869Y2202490D01*
X1043179Y2191800D01*
X1029212Y2186015D01*
X1014095Y2186015D01*
G37*
%LPD*%
%LPC*%
G36*
X1014095Y1986015D02*
X1014095Y1986015D01*
X1000128Y1991800D01*
X989438Y2002490D01*
X983653Y2016457D01*
X983653Y2031575D01*
X989438Y2045541D01*
X1000128Y2056231D01*
X1014095Y2062016D01*
X1029212Y2062016D01*
X1043179Y2056231D01*
X1053869Y2045541D01*
X1054940Y2042955D01*
X1054981Y2042878D01*
X1055008Y2042796D01*
X1055355Y2042181D01*
X1055689Y2041557D01*
X1055744Y2041490D01*
X1055787Y2041415D01*
X1056250Y2040879D01*
X1056699Y2040335D01*
X1056766Y2040281D01*
X1056823Y2040215D01*
X1057382Y2039781D01*
X1057930Y2039336D01*
X1058007Y2039295D01*
X1058075Y2039242D01*
X1058708Y2038927D01*
X1059333Y2038599D01*
X1059416Y2038575D01*
X1059494Y2038536D01*
X1060178Y2038352D01*
X1060855Y2038154D01*
X1060942Y2038146D01*
X1061025Y2038124D01*
X1062331Y2038016D01*
X1542832Y2038016D01*
X1542919Y2038025D01*
X1543005Y2038018D01*
X1543707Y2038103D01*
X1544410Y2038173D01*
X1544493Y2038199D01*
X1544579Y2038209D01*
X1545249Y2038431D01*
X1545926Y2038639D01*
X1546002Y2038680D01*
X1546084Y2038707D01*
X1546699Y2039057D01*
X1547320Y2039393D01*
X1547386Y2039449D01*
X1547462Y2039492D01*
X1547994Y2039956D01*
X1548537Y2040408D01*
X1548592Y2040476D01*
X1548657Y2040533D01*
X1549088Y2041093D01*
X1549531Y2041644D01*
X1549571Y2041720D01*
X1549624Y2041789D01*
X1550223Y2042954D01*
X1555228Y2055038D01*
X1565355Y2065166D01*
X1578587Y2070646D01*
X1652909Y2070646D01*
X1666141Y2065166D01*
X1676268Y2055038D01*
X1681749Y2041807D01*
X1681749Y2027485D01*
X1676268Y2014253D01*
X1666141Y2004126D01*
X1652909Y1998645D01*
X1578587Y1998645D01*
X1565355Y2004126D01*
X1561809Y2007672D01*
X1561728Y2007738D01*
X1561660Y2007817D01*
X1561115Y2008240D01*
X1560582Y2008676D01*
X1560490Y2008725D01*
X1560408Y2008789D01*
X1559791Y2009096D01*
X1559182Y2009419D01*
X1559082Y2009449D01*
X1558989Y2009495D01*
X1558324Y2009674D01*
X1557662Y2009871D01*
X1557558Y2009881D01*
X1557458Y2009908D01*
X1556152Y2010015D01*
X1062331Y2010015D01*
X1062244Y2010006D01*
X1062158Y2010013D01*
X1061456Y2009928D01*
X1060753Y2009858D01*
X1060670Y2009832D01*
X1060584Y2009822D01*
X1059915Y2009601D01*
X1059238Y2009393D01*
X1059161Y2009351D01*
X1059079Y2009324D01*
X1058466Y2008975D01*
X1057844Y2008638D01*
X1057777Y2008582D01*
X1057701Y2008539D01*
X1057168Y2008075D01*
X1056626Y2007623D01*
X1056571Y2007556D01*
X1056506Y2007498D01*
X1056073Y2006936D01*
X1055632Y2006388D01*
X1055592Y2006311D01*
X1055539Y2006242D01*
X1054940Y2005077D01*
X1053869Y2002490D01*
X1043179Y1991800D01*
X1029212Y1986015D01*
X1014095Y1986015D01*
G37*
%LPD*%
%LPC*%
G36*
X1014095Y1886015D02*
X1014095Y1886015D01*
X1000128Y1891800D01*
X989438Y1902490D01*
X983653Y1916457D01*
X983653Y1931575D01*
X989438Y1945541D01*
X1000128Y1956231D01*
X1014095Y1962016D01*
X1029212Y1962016D01*
X1043179Y1956231D01*
X1053869Y1945541D01*
X1054940Y1942955D01*
X1054981Y1942878D01*
X1055008Y1942796D01*
X1055355Y1942181D01*
X1055689Y1941557D01*
X1055744Y1941490D01*
X1055787Y1941415D01*
X1056250Y1940879D01*
X1056699Y1940335D01*
X1056766Y1940281D01*
X1056823Y1940215D01*
X1057382Y1939781D01*
X1057930Y1939336D01*
X1058007Y1939295D01*
X1058075Y1939242D01*
X1058708Y1938927D01*
X1059333Y1938599D01*
X1059416Y1938575D01*
X1059494Y1938536D01*
X1060178Y1938352D01*
X1060855Y1938154D01*
X1060942Y1938146D01*
X1061025Y1938124D01*
X1062331Y1938016D01*
X1542832Y1938016D01*
X1542919Y1938025D01*
X1543005Y1938018D01*
X1543707Y1938103D01*
X1544410Y1938173D01*
X1544493Y1938199D01*
X1544579Y1938209D01*
X1545249Y1938431D01*
X1545926Y1938639D01*
X1546002Y1938680D01*
X1546084Y1938707D01*
X1546699Y1939057D01*
X1547320Y1939393D01*
X1547386Y1939449D01*
X1547462Y1939492D01*
X1547994Y1939956D01*
X1548537Y1940408D01*
X1548592Y1940476D01*
X1548657Y1940533D01*
X1549088Y1941093D01*
X1549531Y1941644D01*
X1549571Y1941720D01*
X1549624Y1941789D01*
X1550223Y1942954D01*
X1555228Y1955038D01*
X1565355Y1965166D01*
X1578587Y1970646D01*
X1652909Y1970646D01*
X1666141Y1965166D01*
X1676268Y1955038D01*
X1681749Y1941807D01*
X1681749Y1927485D01*
X1676268Y1914253D01*
X1666141Y1904126D01*
X1652909Y1898645D01*
X1578587Y1898645D01*
X1565355Y1904126D01*
X1561809Y1907672D01*
X1561728Y1907738D01*
X1561660Y1907817D01*
X1561115Y1908240D01*
X1560582Y1908676D01*
X1560490Y1908725D01*
X1560408Y1908789D01*
X1559791Y1909096D01*
X1559182Y1909419D01*
X1559082Y1909449D01*
X1558989Y1909495D01*
X1558324Y1909674D01*
X1557662Y1909871D01*
X1557558Y1909881D01*
X1557458Y1909908D01*
X1556152Y1910015D01*
X1062331Y1910015D01*
X1062244Y1910006D01*
X1062158Y1910013D01*
X1061456Y1909928D01*
X1060753Y1909858D01*
X1060670Y1909832D01*
X1060584Y1909822D01*
X1059915Y1909601D01*
X1059238Y1909393D01*
X1059161Y1909351D01*
X1059079Y1909324D01*
X1058466Y1908975D01*
X1057844Y1908638D01*
X1057777Y1908582D01*
X1057701Y1908539D01*
X1057168Y1908075D01*
X1056626Y1907623D01*
X1056571Y1907556D01*
X1056506Y1907498D01*
X1056073Y1906936D01*
X1055632Y1906388D01*
X1055592Y1906311D01*
X1055539Y1906242D01*
X1054940Y1905077D01*
X1053869Y1902490D01*
X1043179Y1891800D01*
X1029212Y1886015D01*
X1014095Y1886015D01*
G37*
%LPD*%
%LPC*%
G36*
X1014095Y2086015D02*
X1014095Y2086015D01*
X1000128Y2091800D01*
X989438Y2102490D01*
X983653Y2116457D01*
X983653Y2131575D01*
X989438Y2145541D01*
X1000128Y2156231D01*
X1014095Y2162016D01*
X1029212Y2162016D01*
X1043179Y2156231D01*
X1048421Y2150989D01*
X1048502Y2150923D01*
X1048570Y2150844D01*
X1049115Y2150421D01*
X1049648Y2149985D01*
X1049739Y2149936D01*
X1049822Y2149872D01*
X1050439Y2149565D01*
X1051048Y2149242D01*
X1051148Y2149212D01*
X1051241Y2149166D01*
X1051906Y2148987D01*
X1052568Y2148790D01*
X1052672Y2148781D01*
X1052772Y2148754D01*
X1054077Y2148646D01*
X1547235Y2148646D01*
X1547322Y2148655D01*
X1547408Y2148648D01*
X1548111Y2148734D01*
X1548813Y2148803D01*
X1548896Y2148829D01*
X1548982Y2148839D01*
X1549652Y2149061D01*
X1550329Y2149268D01*
X1550405Y2149310D01*
X1550487Y2149337D01*
X1551100Y2149686D01*
X1551723Y2150023D01*
X1551789Y2150079D01*
X1551865Y2150122D01*
X1552398Y2150586D01*
X1552940Y2151038D01*
X1552995Y2151106D01*
X1553060Y2151163D01*
X1553493Y2151726D01*
X1553934Y2152273D01*
X1553974Y2152350D01*
X1554027Y2152419D01*
X1554626Y2153585D01*
X1555228Y2155038D01*
X1565355Y2165166D01*
X1578587Y2170646D01*
X1652909Y2170646D01*
X1666141Y2165166D01*
X1676268Y2155038D01*
X1681749Y2141807D01*
X1681749Y2127485D01*
X1676268Y2114253D01*
X1666141Y2104126D01*
X1652909Y2098645D01*
X1578587Y2098645D01*
X1565355Y2104126D01*
X1555228Y2114253D01*
X1554626Y2115707D01*
X1554585Y2115783D01*
X1554558Y2115866D01*
X1554211Y2116480D01*
X1553877Y2117104D01*
X1553822Y2117171D01*
X1553779Y2117247D01*
X1553318Y2117781D01*
X1552867Y2118326D01*
X1552800Y2118381D01*
X1552743Y2118447D01*
X1552186Y2118880D01*
X1551637Y2119325D01*
X1551559Y2119366D01*
X1551491Y2119419D01*
X1550859Y2119733D01*
X1550233Y2120062D01*
X1550150Y2120086D01*
X1550072Y2120125D01*
X1549389Y2120309D01*
X1548711Y2120508D01*
X1548625Y2120515D01*
X1548541Y2120538D01*
X1547235Y2120645D01*
X1066734Y2120645D01*
X1066648Y2120636D01*
X1066561Y2120643D01*
X1065859Y2120558D01*
X1065156Y2120488D01*
X1065073Y2120462D01*
X1064987Y2120452D01*
X1064317Y2120230D01*
X1063641Y2120023D01*
X1063564Y2119981D01*
X1063482Y2119954D01*
X1062868Y2119604D01*
X1062247Y2119268D01*
X1062180Y2119212D01*
X1062105Y2119169D01*
X1061570Y2118704D01*
X1061029Y2118253D01*
X1060975Y2118186D01*
X1060909Y2118128D01*
X1060477Y2117566D01*
X1060035Y2117018D01*
X1059995Y2116941D01*
X1059942Y2116872D01*
X1059344Y2115707D01*
X1053869Y2102490D01*
X1043179Y2091800D01*
X1029212Y2086015D01*
X1014095Y2086015D01*
G37*
%LPD*%
%LPC*%
G36*
X714095Y2186015D02*
X714095Y2186015D01*
X700128Y2191800D01*
X689438Y2202490D01*
X688367Y2205077D01*
X688326Y2205153D01*
X688299Y2205236D01*
X687952Y2205851D01*
X687618Y2206474D01*
X687563Y2206541D01*
X687520Y2206617D01*
X687057Y2207153D01*
X686608Y2207696D01*
X686541Y2207751D01*
X686484Y2207817D01*
X685925Y2208251D01*
X685377Y2208695D01*
X685300Y2208736D01*
X685232Y2208789D01*
X684599Y2209104D01*
X683974Y2209432D01*
X683891Y2209456D01*
X683813Y2209495D01*
X683129Y2209679D01*
X682452Y2209878D01*
X682365Y2209885D01*
X682282Y2209908D01*
X680976Y2210015D01*
X197863Y2210015D01*
X197413Y2210254D01*
X197313Y2210284D01*
X197220Y2210330D01*
X196555Y2210509D01*
X195893Y2210706D01*
X195789Y2210715D01*
X195689Y2210742D01*
X194383Y2210850D01*
X144335Y2210850D01*
X131103Y2216330D01*
X120976Y2226458D01*
X115495Y2239689D01*
X115495Y2254011D01*
X120976Y2267243D01*
X131103Y2277370D01*
X144335Y2282851D01*
X218657Y2282851D01*
X231889Y2277370D01*
X242016Y2267243D01*
X247497Y2254011D01*
X247497Y2246016D01*
X247504Y2245946D01*
X247498Y2245877D01*
X247582Y2245159D01*
X247654Y2244438D01*
X247674Y2244372D01*
X247682Y2244303D01*
X247906Y2243616D01*
X248119Y2242922D01*
X248152Y2242861D01*
X248173Y2242796D01*
X248528Y2242167D01*
X248874Y2241528D01*
X248918Y2241475D01*
X248952Y2241415D01*
X249425Y2240867D01*
X249889Y2240311D01*
X249943Y2240267D01*
X249988Y2240215D01*
X250562Y2239769D01*
X251124Y2239317D01*
X251185Y2239285D01*
X251240Y2239242D01*
X251890Y2238919D01*
X252531Y2238586D01*
X252597Y2238567D01*
X252660Y2238536D01*
X253361Y2238347D01*
X254054Y2238147D01*
X254123Y2238142D01*
X254190Y2238124D01*
X255496Y2238016D01*
X680976Y2238016D01*
X681063Y2238025D01*
X681149Y2238018D01*
X681851Y2238103D01*
X682554Y2238173D01*
X682637Y2238199D01*
X682723Y2238209D01*
X683392Y2238431D01*
X684069Y2238639D01*
X684146Y2238680D01*
X684228Y2238707D01*
X684841Y2239056D01*
X685463Y2239393D01*
X685530Y2239449D01*
X685606Y2239492D01*
X686139Y2239957D01*
X686681Y2240408D01*
X686735Y2240476D01*
X686801Y2240533D01*
X687234Y2241096D01*
X687675Y2241644D01*
X687715Y2241720D01*
X687768Y2241789D01*
X688367Y2242955D01*
X689438Y2245541D01*
X700128Y2256231D01*
X714095Y2262016D01*
X729212Y2262016D01*
X743179Y2256231D01*
X753869Y2245541D01*
X759654Y2231575D01*
X759654Y2216457D01*
X753869Y2202490D01*
X743179Y2191800D01*
X729212Y2186015D01*
X714095Y2186015D01*
G37*
%LPD*%
%LPC*%
G36*
X714095Y1886015D02*
X714095Y1886015D01*
X700128Y1891800D01*
X689438Y1902490D01*
X683653Y1916457D01*
X683653Y1924850D01*
X683646Y1924920D01*
X683652Y1924989D01*
X683568Y1925707D01*
X683496Y1926428D01*
X683475Y1926494D01*
X683467Y1926563D01*
X683243Y1927250D01*
X683031Y1927944D01*
X682997Y1928005D01*
X682976Y1928070D01*
X682622Y1928699D01*
X682276Y1929338D01*
X682231Y1929391D01*
X682197Y1929451D01*
X681724Y1929999D01*
X681261Y1930555D01*
X681207Y1930599D01*
X681161Y1930651D01*
X680588Y1931097D01*
X680026Y1931549D01*
X679964Y1931581D01*
X679909Y1931624D01*
X679259Y1931947D01*
X678619Y1932280D01*
X678552Y1932299D01*
X678490Y1932330D01*
X677789Y1932519D01*
X677095Y1932719D01*
X677026Y1932724D01*
X676959Y1932742D01*
X675654Y1932850D01*
X250008Y1932850D01*
X249922Y1932841D01*
X249836Y1932848D01*
X249133Y1932762D01*
X248431Y1932693D01*
X248348Y1932667D01*
X248262Y1932657D01*
X247592Y1932435D01*
X246915Y1932227D01*
X246839Y1932186D01*
X246757Y1932159D01*
X246144Y1931810D01*
X245521Y1931473D01*
X245455Y1931417D01*
X245379Y1931374D01*
X244846Y1930909D01*
X244304Y1930458D01*
X244249Y1930390D01*
X244184Y1930333D01*
X243751Y1929770D01*
X243310Y1929222D01*
X243270Y1929146D01*
X243217Y1929077D01*
X242618Y1927911D01*
X242016Y1926458D01*
X231889Y1916330D01*
X218657Y1910850D01*
X144335Y1910850D01*
X131103Y1916330D01*
X120976Y1926458D01*
X115495Y1939689D01*
X115495Y1954011D01*
X120976Y1967243D01*
X131103Y1977370D01*
X144335Y1982851D01*
X218657Y1982851D01*
X231889Y1977370D01*
X242016Y1967243D01*
X242618Y1965789D01*
X242659Y1965713D01*
X242686Y1965630D01*
X243033Y1965016D01*
X243367Y1964392D01*
X243422Y1964325D01*
X243465Y1964249D01*
X243926Y1963715D01*
X244376Y1963170D01*
X244444Y1963115D01*
X244501Y1963049D01*
X245058Y1962616D01*
X245607Y1962171D01*
X245685Y1962130D01*
X245753Y1962077D01*
X246385Y1961763D01*
X247011Y1961434D01*
X247094Y1961409D01*
X247172Y1961371D01*
X247855Y1961187D01*
X248533Y1960988D01*
X248619Y1960981D01*
X248703Y1960958D01*
X250008Y1960851D01*
X705640Y1960851D01*
X706259Y1960681D01*
X706936Y1960480D01*
X707023Y1960472D01*
X707107Y1960449D01*
X707810Y1960400D01*
X708515Y1960336D01*
X708602Y1960346D01*
X708689Y1960340D01*
X709386Y1960430D01*
X710091Y1960507D01*
X710174Y1960533D01*
X710261Y1960544D01*
X711508Y1960945D01*
X714094Y1962016D01*
X729212Y1962016D01*
X743179Y1956231D01*
X753869Y1945541D01*
X759654Y1931575D01*
X759654Y1916457D01*
X753869Y1902490D01*
X743179Y1891800D01*
X729212Y1886015D01*
X714095Y1886015D01*
G37*
%LPD*%
%LPC*%
G36*
X714095Y1186015D02*
X714095Y1186015D01*
X700128Y1191800D01*
X689438Y1202490D01*
X688367Y1205077D01*
X688326Y1205153D01*
X688299Y1205236D01*
X687952Y1205851D01*
X687618Y1206474D01*
X687563Y1206541D01*
X687520Y1206617D01*
X687057Y1207153D01*
X686608Y1207696D01*
X686541Y1207751D01*
X686484Y1207817D01*
X685925Y1208251D01*
X685377Y1208695D01*
X685300Y1208736D01*
X685232Y1208789D01*
X684599Y1209104D01*
X683974Y1209432D01*
X683891Y1209456D01*
X683813Y1209495D01*
X683129Y1209679D01*
X682452Y1209878D01*
X682365Y1209885D01*
X682282Y1209908D01*
X680976Y1210015D01*
X181958Y1210015D01*
X181858Y1210005D01*
X181758Y1210013D01*
X181069Y1209926D01*
X180380Y1209858D01*
X180284Y1209828D01*
X180185Y1209816D01*
X179528Y1209597D01*
X178864Y1209393D01*
X178776Y1209345D01*
X178681Y1209313D01*
X178081Y1208969D01*
X177470Y1208638D01*
X177393Y1208574D01*
X177306Y1208524D01*
X176307Y1207677D01*
X176241Y1207612D01*
X176170Y1207525D01*
X176123Y1207479D01*
X176048Y1207413D01*
X176019Y1207374D01*
X165330Y1196686D01*
X165227Y1196598D01*
X160188Y1191558D01*
X130364Y1191558D01*
X109275Y1212647D01*
X109275Y1242471D01*
X130364Y1263560D01*
X160187Y1263560D01*
X183388Y1240359D01*
X183468Y1240293D01*
X183536Y1240215D01*
X184081Y1239791D01*
X184614Y1239355D01*
X184706Y1239306D01*
X184789Y1239242D01*
X185406Y1238935D01*
X186015Y1238612D01*
X186115Y1238582D01*
X186208Y1238536D01*
X186873Y1238357D01*
X187534Y1238160D01*
X187638Y1238151D01*
X187739Y1238124D01*
X189044Y1238016D01*
X680976Y1238016D01*
X681063Y1238025D01*
X681149Y1238018D01*
X681851Y1238103D01*
X682554Y1238173D01*
X682637Y1238199D01*
X682723Y1238209D01*
X683392Y1238431D01*
X684069Y1238639D01*
X684146Y1238680D01*
X684228Y1238707D01*
X684841Y1239056D01*
X685463Y1239393D01*
X685530Y1239449D01*
X685606Y1239492D01*
X686139Y1239957D01*
X686681Y1240408D01*
X686735Y1240476D01*
X686801Y1240533D01*
X687234Y1241096D01*
X687675Y1241644D01*
X687715Y1241720D01*
X687768Y1241789D01*
X688367Y1242955D01*
X689438Y1245541D01*
X700128Y1256231D01*
X714095Y1262016D01*
X729212Y1262016D01*
X743179Y1256231D01*
X753869Y1245541D01*
X759654Y1231575D01*
X759654Y1216457D01*
X753869Y1202490D01*
X743179Y1191800D01*
X729212Y1186015D01*
X714095Y1186015D01*
G37*
%LPD*%
%LPC*%
G36*
X714095Y1086015D02*
X714095Y1086015D01*
X700128Y1091800D01*
X689438Y1102490D01*
X686899Y1108620D01*
X686858Y1108697D01*
X686831Y1108779D01*
X686484Y1109394D01*
X686150Y1110018D01*
X686095Y1110085D01*
X686052Y1110160D01*
X685591Y1110695D01*
X685140Y1111240D01*
X685073Y1111294D01*
X685016Y1111360D01*
X684458Y1111794D01*
X683909Y1112239D01*
X683833Y1112279D01*
X683764Y1112332D01*
X683131Y1112647D01*
X682506Y1112976D01*
X682422Y1113000D01*
X682345Y1113039D01*
X681662Y1113222D01*
X680984Y1113421D01*
X680898Y1113429D01*
X680814Y1113451D01*
X679508Y1113558D01*
X185501Y1113558D01*
X185397Y1113548D01*
X185294Y1113556D01*
X184610Y1113470D01*
X183923Y1113401D01*
X183824Y1113371D01*
X183721Y1113358D01*
X183069Y1113139D01*
X182408Y1112936D01*
X182316Y1112886D01*
X182218Y1112853D01*
X181621Y1112510D01*
X181014Y1112181D01*
X180934Y1112115D01*
X180844Y1112063D01*
X179844Y1111215D01*
X160187Y1091558D01*
X130364Y1091558D01*
X109275Y1112647D01*
X109275Y1142471D01*
X130364Y1163560D01*
X160187Y1163560D01*
X179844Y1143903D01*
X179925Y1143837D01*
X179993Y1143758D01*
X180538Y1143335D01*
X181071Y1142898D01*
X181163Y1142850D01*
X181245Y1142786D01*
X181862Y1142479D01*
X182472Y1142155D01*
X182571Y1142126D01*
X182664Y1142079D01*
X183329Y1141900D01*
X183991Y1141703D01*
X184095Y1141694D01*
X184195Y1141667D01*
X185501Y1141560D01*
X682444Y1141560D01*
X682530Y1141568D01*
X682617Y1141562D01*
X683319Y1141647D01*
X684021Y1141717D01*
X684105Y1141742D01*
X684191Y1141753D01*
X684860Y1141974D01*
X685537Y1142182D01*
X685614Y1142223D01*
X685696Y1142251D01*
X686308Y1142600D01*
X686931Y1142937D01*
X686998Y1142993D01*
X687073Y1143036D01*
X687605Y1143498D01*
X688149Y1143952D01*
X688203Y1144020D01*
X688269Y1144077D01*
X688701Y1144638D01*
X689143Y1145187D01*
X689182Y1145264D01*
X689236Y1145333D01*
X689242Y1145345D01*
X700128Y1156231D01*
X714095Y1162016D01*
X729212Y1162016D01*
X743179Y1156231D01*
X753869Y1145541D01*
X759654Y1131575D01*
X759654Y1116457D01*
X753869Y1102490D01*
X743179Y1091800D01*
X729212Y1086015D01*
X714095Y1086015D01*
G37*
%LPD*%
%LPC*%
G36*
X714095Y986015D02*
X714095Y986015D01*
X700128Y991800D01*
X689438Y1002490D01*
X686899Y1008620D01*
X686858Y1008697D01*
X686831Y1008779D01*
X686484Y1009394D01*
X686150Y1010018D01*
X686095Y1010085D01*
X686052Y1010160D01*
X685591Y1010695D01*
X685140Y1011240D01*
X685073Y1011294D01*
X685016Y1011360D01*
X684458Y1011794D01*
X683909Y1012239D01*
X683833Y1012279D01*
X683764Y1012332D01*
X683131Y1012647D01*
X682506Y1012976D01*
X682422Y1013000D01*
X682345Y1013039D01*
X681662Y1013222D01*
X680984Y1013421D01*
X680898Y1013429D01*
X680814Y1013451D01*
X679508Y1013558D01*
X185501Y1013558D01*
X185397Y1013548D01*
X185294Y1013556D01*
X184610Y1013470D01*
X183923Y1013401D01*
X183824Y1013371D01*
X183721Y1013358D01*
X183069Y1013139D01*
X182408Y1012936D01*
X182316Y1012886D01*
X182218Y1012853D01*
X181621Y1012510D01*
X181014Y1012181D01*
X180934Y1012115D01*
X180844Y1012063D01*
X179844Y1011215D01*
X160187Y991558D01*
X130364Y991558D01*
X109275Y1012647D01*
X109275Y1042471D01*
X130364Y1063560D01*
X160187Y1063560D01*
X179844Y1043903D01*
X179925Y1043837D01*
X179993Y1043758D01*
X180538Y1043335D01*
X181071Y1042898D01*
X181163Y1042850D01*
X181245Y1042786D01*
X181862Y1042479D01*
X182472Y1042155D01*
X182571Y1042126D01*
X182664Y1042079D01*
X183329Y1041900D01*
X183991Y1041703D01*
X184095Y1041694D01*
X184195Y1041667D01*
X185501Y1041560D01*
X682444Y1041560D01*
X682530Y1041568D01*
X682617Y1041562D01*
X683319Y1041647D01*
X684021Y1041717D01*
X684105Y1041742D01*
X684191Y1041753D01*
X684860Y1041974D01*
X685537Y1042182D01*
X685614Y1042223D01*
X685696Y1042251D01*
X686308Y1042600D01*
X686931Y1042937D01*
X686998Y1042993D01*
X687073Y1043036D01*
X687605Y1043498D01*
X688149Y1043952D01*
X688203Y1044020D01*
X688269Y1044077D01*
X688701Y1044638D01*
X689143Y1045187D01*
X689182Y1045264D01*
X689236Y1045333D01*
X689242Y1045345D01*
X700128Y1056231D01*
X714095Y1062016D01*
X729212Y1062016D01*
X743179Y1056231D01*
X753869Y1045541D01*
X759654Y1031575D01*
X759654Y1016457D01*
X753869Y1002490D01*
X743179Y991800D01*
X729212Y986015D01*
X714095Y986015D01*
G37*
%LPD*%
%LPC*%
G36*
X714095Y886015D02*
X714095Y886015D01*
X700128Y891800D01*
X689438Y902490D01*
X686899Y908620D01*
X686858Y908697D01*
X686831Y908779D01*
X686484Y909394D01*
X686150Y910018D01*
X686095Y910085D01*
X686052Y910160D01*
X685591Y910694D01*
X685140Y911240D01*
X685073Y911294D01*
X685016Y911360D01*
X684458Y911794D01*
X683909Y912239D01*
X683833Y912279D01*
X683764Y912332D01*
X683131Y912647D01*
X682506Y912976D01*
X682422Y913000D01*
X682345Y913039D01*
X681662Y913222D01*
X680984Y913421D01*
X680898Y913429D01*
X680814Y913451D01*
X679508Y913558D01*
X185501Y913558D01*
X185397Y913548D01*
X185294Y913556D01*
X184610Y913470D01*
X183923Y913401D01*
X183824Y913371D01*
X183721Y913358D01*
X183069Y913139D01*
X182408Y912936D01*
X182316Y912886D01*
X182218Y912853D01*
X181621Y912510D01*
X181014Y912181D01*
X180934Y912115D01*
X180844Y912063D01*
X179844Y911215D01*
X160187Y891558D01*
X130364Y891558D01*
X109275Y912647D01*
X109275Y942471D01*
X130364Y963560D01*
X160187Y963560D01*
X179844Y943903D01*
X179925Y943837D01*
X179993Y943758D01*
X180538Y943335D01*
X181071Y942898D01*
X181163Y942850D01*
X181245Y942786D01*
X181862Y942479D01*
X182472Y942155D01*
X182571Y942126D01*
X182664Y942079D01*
X183329Y941900D01*
X183991Y941703D01*
X184095Y941694D01*
X184195Y941667D01*
X185501Y941560D01*
X682444Y941560D01*
X682530Y941568D01*
X682617Y941562D01*
X683319Y941647D01*
X684021Y941717D01*
X684105Y941742D01*
X684191Y941753D01*
X684860Y941974D01*
X685537Y942182D01*
X685614Y942223D01*
X685696Y942251D01*
X686308Y942600D01*
X686931Y942937D01*
X686998Y942993D01*
X687073Y943036D01*
X687605Y943498D01*
X688149Y943952D01*
X688203Y944020D01*
X688269Y944077D01*
X688701Y944638D01*
X689143Y945187D01*
X689182Y945264D01*
X689236Y945333D01*
X689242Y945345D01*
X700128Y956231D01*
X714095Y962016D01*
X729212Y962016D01*
X743179Y956231D01*
X753869Y945541D01*
X759654Y931575D01*
X759654Y916457D01*
X753869Y902490D01*
X743179Y891800D01*
X729212Y886015D01*
X714095Y886015D01*
G37*
%LPD*%
%LPC*%
G36*
X714095Y1386015D02*
X714095Y1386015D01*
X700128Y1391800D01*
X689438Y1402490D01*
X686899Y1408620D01*
X686858Y1408697D01*
X686831Y1408779D01*
X686484Y1409394D01*
X686150Y1410018D01*
X686095Y1410085D01*
X686052Y1410160D01*
X685591Y1410695D01*
X685140Y1411240D01*
X685073Y1411294D01*
X685016Y1411360D01*
X684458Y1411794D01*
X683909Y1412239D01*
X683833Y1412279D01*
X683764Y1412332D01*
X683131Y1412647D01*
X682506Y1412976D01*
X682422Y1413000D01*
X682345Y1413039D01*
X681662Y1413222D01*
X680984Y1413421D01*
X680898Y1413429D01*
X680814Y1413451D01*
X679508Y1413558D01*
X185501Y1413558D01*
X185397Y1413548D01*
X185293Y1413556D01*
X184610Y1413470D01*
X183923Y1413401D01*
X183824Y1413371D01*
X183720Y1413358D01*
X183068Y1413139D01*
X182408Y1412936D01*
X182316Y1412886D01*
X182218Y1412853D01*
X181620Y1412510D01*
X181014Y1412181D01*
X180934Y1412115D01*
X180843Y1412063D01*
X179844Y1411215D01*
X160187Y1391558D01*
X130364Y1391558D01*
X109275Y1412647D01*
X109275Y1442471D01*
X130364Y1463560D01*
X160187Y1463560D01*
X179844Y1443903D01*
X179925Y1443837D01*
X179993Y1443758D01*
X180538Y1443335D01*
X181071Y1442898D01*
X181163Y1442850D01*
X181245Y1442786D01*
X181862Y1442479D01*
X182471Y1442155D01*
X182571Y1442126D01*
X182664Y1442079D01*
X183329Y1441900D01*
X183991Y1441703D01*
X184095Y1441694D01*
X184195Y1441667D01*
X185501Y1441560D01*
X682444Y1441560D01*
X682530Y1441568D01*
X682617Y1441562D01*
X683319Y1441647D01*
X684021Y1441717D01*
X684105Y1441742D01*
X684191Y1441753D01*
X684860Y1441974D01*
X685537Y1442182D01*
X685614Y1442223D01*
X685696Y1442251D01*
X686308Y1442600D01*
X686931Y1442937D01*
X686998Y1442993D01*
X687073Y1443036D01*
X687605Y1443498D01*
X688149Y1443952D01*
X688203Y1444020D01*
X688269Y1444077D01*
X688701Y1444638D01*
X689143Y1445187D01*
X689182Y1445264D01*
X689236Y1445333D01*
X689242Y1445345D01*
X700128Y1456231D01*
X714095Y1462016D01*
X729212Y1462016D01*
X743179Y1456231D01*
X753869Y1445541D01*
X759654Y1431575D01*
X759654Y1416457D01*
X753869Y1402490D01*
X743179Y1391800D01*
X729212Y1386015D01*
X714095Y1386015D01*
G37*
%LPD*%
%LPC*%
G36*
X714095Y1286015D02*
X714095Y1286015D01*
X700128Y1291800D01*
X689438Y1302490D01*
X686899Y1308620D01*
X686858Y1308697D01*
X686831Y1308779D01*
X686484Y1309394D01*
X686150Y1310018D01*
X686095Y1310085D01*
X686052Y1310160D01*
X685591Y1310695D01*
X685140Y1311240D01*
X685073Y1311294D01*
X685016Y1311360D01*
X684458Y1311794D01*
X683909Y1312239D01*
X683833Y1312279D01*
X683764Y1312332D01*
X683131Y1312647D01*
X682506Y1312976D01*
X682422Y1313000D01*
X682345Y1313039D01*
X681662Y1313222D01*
X680984Y1313421D01*
X680898Y1313429D01*
X680814Y1313451D01*
X679508Y1313558D01*
X185501Y1313558D01*
X185397Y1313548D01*
X185293Y1313556D01*
X184610Y1313470D01*
X183923Y1313401D01*
X183824Y1313371D01*
X183720Y1313358D01*
X183068Y1313139D01*
X182408Y1312936D01*
X182316Y1312886D01*
X182218Y1312853D01*
X181620Y1312510D01*
X181014Y1312181D01*
X180934Y1312115D01*
X180843Y1312063D01*
X179844Y1311215D01*
X160187Y1291558D01*
X130364Y1291558D01*
X109275Y1312647D01*
X109275Y1342471D01*
X130364Y1363560D01*
X160187Y1363560D01*
X179844Y1343903D01*
X179925Y1343837D01*
X179993Y1343758D01*
X180538Y1343335D01*
X181071Y1342898D01*
X181163Y1342850D01*
X181245Y1342786D01*
X181862Y1342479D01*
X182471Y1342155D01*
X182571Y1342126D01*
X182664Y1342079D01*
X183329Y1341900D01*
X183991Y1341703D01*
X184095Y1341694D01*
X184195Y1341667D01*
X185501Y1341560D01*
X682444Y1341560D01*
X682530Y1341568D01*
X682617Y1341562D01*
X683319Y1341647D01*
X684021Y1341717D01*
X684105Y1341742D01*
X684191Y1341753D01*
X684860Y1341974D01*
X685537Y1342182D01*
X685614Y1342223D01*
X685696Y1342251D01*
X686308Y1342600D01*
X686931Y1342937D01*
X686998Y1342993D01*
X687073Y1343036D01*
X687605Y1343498D01*
X688149Y1343952D01*
X688203Y1344020D01*
X688269Y1344077D01*
X688701Y1344638D01*
X689143Y1345187D01*
X689182Y1345264D01*
X689236Y1345333D01*
X689242Y1345345D01*
X700128Y1356231D01*
X714095Y1362016D01*
X729212Y1362016D01*
X743179Y1356231D01*
X753869Y1345541D01*
X759654Y1331575D01*
X759654Y1316457D01*
X753869Y1302490D01*
X743179Y1291800D01*
X729212Y1286015D01*
X714095Y1286015D01*
G37*
%LPD*%
%LPC*%
G36*
X1222657Y1579216D02*
X1222657Y1579216D01*
X1208506Y1585077D01*
X1197676Y1595908D01*
X1191814Y1610058D01*
X1191814Y1625375D01*
X1193003Y1628245D01*
X1193028Y1628328D01*
X1193068Y1628405D01*
X1193257Y1629085D01*
X1193462Y1629762D01*
X1193470Y1629849D01*
X1193493Y1629932D01*
X1193545Y1630637D01*
X1193612Y1631340D01*
X1193603Y1631427D01*
X1193609Y1631513D01*
X1193521Y1632213D01*
X1193448Y1632917D01*
X1193422Y1633000D01*
X1193411Y1633086D01*
X1193187Y1633755D01*
X1192977Y1634431D01*
X1192935Y1634507D01*
X1192907Y1634589D01*
X1192554Y1635202D01*
X1192216Y1635821D01*
X1192160Y1635888D01*
X1192117Y1635963D01*
X1191269Y1636962D01*
X1120559Y1707672D01*
X1120479Y1707738D01*
X1120411Y1707817D01*
X1119866Y1708240D01*
X1119333Y1708676D01*
X1119241Y1708725D01*
X1119159Y1708789D01*
X1118541Y1709096D01*
X1117932Y1709419D01*
X1117832Y1709449D01*
X1117739Y1709495D01*
X1117075Y1709674D01*
X1116413Y1709871D01*
X1116309Y1709881D01*
X1116209Y1709908D01*
X1114903Y1710015D01*
X1062331Y1710015D01*
X1062244Y1710006D01*
X1062158Y1710013D01*
X1061456Y1709928D01*
X1060753Y1709858D01*
X1060670Y1709832D01*
X1060584Y1709822D01*
X1059915Y1709601D01*
X1059238Y1709393D01*
X1059161Y1709351D01*
X1059079Y1709324D01*
X1058466Y1708975D01*
X1057844Y1708638D01*
X1057777Y1708582D01*
X1057701Y1708539D01*
X1057168Y1708075D01*
X1056626Y1707623D01*
X1056571Y1707556D01*
X1056506Y1707498D01*
X1056073Y1706936D01*
X1055632Y1706388D01*
X1055592Y1706311D01*
X1055539Y1706242D01*
X1054940Y1705077D01*
X1053869Y1702490D01*
X1043179Y1691800D01*
X1029212Y1686015D01*
X1014095Y1686015D01*
X1000128Y1691800D01*
X989438Y1702490D01*
X983653Y1716457D01*
X983653Y1731575D01*
X989438Y1745541D01*
X1000128Y1756231D01*
X1014095Y1762016D01*
X1029212Y1762016D01*
X1043179Y1756231D01*
X1053869Y1745541D01*
X1054940Y1742955D01*
X1054981Y1742878D01*
X1055008Y1742796D01*
X1055355Y1742181D01*
X1055689Y1741557D01*
X1055744Y1741490D01*
X1055787Y1741415D01*
X1056250Y1740878D01*
X1056699Y1740335D01*
X1056766Y1740281D01*
X1056823Y1740215D01*
X1057382Y1739781D01*
X1057930Y1739336D01*
X1058007Y1739295D01*
X1058075Y1739242D01*
X1058708Y1738927D01*
X1059333Y1738599D01*
X1059416Y1738575D01*
X1059494Y1738536D01*
X1060178Y1738352D01*
X1060855Y1738154D01*
X1060942Y1738146D01*
X1061025Y1738124D01*
X1062331Y1738016D01*
X1129815Y1738016D01*
X1211069Y1656762D01*
X1211136Y1656707D01*
X1211193Y1656641D01*
X1211749Y1656206D01*
X1212296Y1655758D01*
X1212372Y1655717D01*
X1212441Y1655664D01*
X1213070Y1655347D01*
X1213696Y1655015D01*
X1213780Y1654990D01*
X1213857Y1654951D01*
X1214535Y1654765D01*
X1215216Y1654563D01*
X1215303Y1654555D01*
X1215386Y1654532D01*
X1216088Y1654484D01*
X1216795Y1654420D01*
X1216881Y1654429D01*
X1216968Y1654423D01*
X1217667Y1654514D01*
X1218371Y1654590D01*
X1218453Y1654617D01*
X1218539Y1654628D01*
X1219787Y1655028D01*
X1222657Y1656217D01*
X1237973Y1656217D01*
X1252124Y1650356D01*
X1262954Y1639525D01*
X1264143Y1636655D01*
X1264154Y1636636D01*
X1264154Y1636633D01*
X1264166Y1636613D01*
X1264184Y1636579D01*
X1264211Y1636496D01*
X1264557Y1635883D01*
X1264892Y1635258D01*
X1264947Y1635191D01*
X1264990Y1635116D01*
X1265451Y1634581D01*
X1265901Y1634036D01*
X1265969Y1633981D01*
X1266025Y1633915D01*
X1266584Y1633482D01*
X1267132Y1633037D01*
X1267209Y1632996D01*
X1267278Y1632943D01*
X1267912Y1632628D01*
X1268536Y1632300D01*
X1268619Y1632276D01*
X1268697Y1632237D01*
X1269381Y1632053D01*
X1270058Y1631854D01*
X1270144Y1631847D01*
X1270228Y1631824D01*
X1271533Y1631717D01*
X1353701Y1631717D01*
X1353770Y1631724D01*
X1353839Y1631718D01*
X1354557Y1631802D01*
X1355278Y1631874D01*
X1355345Y1631895D01*
X1355414Y1631903D01*
X1356100Y1632126D01*
X1356794Y1632339D01*
X1356855Y1632373D01*
X1356921Y1632394D01*
X1357549Y1632748D01*
X1358188Y1633094D01*
X1358241Y1633139D01*
X1358302Y1633173D01*
X1358850Y1633646D01*
X1359406Y1634109D01*
X1359449Y1634163D01*
X1359502Y1634209D01*
X1359947Y1634782D01*
X1360399Y1635344D01*
X1360431Y1635406D01*
X1360474Y1635461D01*
X1360797Y1636111D01*
X1361130Y1636751D01*
X1361149Y1636818D01*
X1361180Y1636880D01*
X1361369Y1637581D01*
X1361569Y1638275D01*
X1361575Y1638344D01*
X1361593Y1638411D01*
X1361700Y1639716D01*
X1361700Y1645932D01*
X1380446Y1664678D01*
X1406956Y1664678D01*
X1425701Y1645932D01*
X1425701Y1619422D01*
X1406956Y1600676D01*
X1380446Y1600676D01*
X1379749Y1601373D01*
X1379669Y1601439D01*
X1379601Y1601518D01*
X1379056Y1601941D01*
X1378523Y1602377D01*
X1378431Y1602426D01*
X1378349Y1602490D01*
X1377731Y1602797D01*
X1377122Y1603120D01*
X1377022Y1603150D01*
X1376929Y1603196D01*
X1376265Y1603375D01*
X1375603Y1603572D01*
X1375499Y1603582D01*
X1375398Y1603609D01*
X1374093Y1603716D01*
X1271533Y1603716D01*
X1271447Y1603707D01*
X1271360Y1603714D01*
X1270659Y1603629D01*
X1269956Y1603559D01*
X1269873Y1603533D01*
X1269787Y1603523D01*
X1269117Y1603301D01*
X1268440Y1603094D01*
X1268364Y1603052D01*
X1268282Y1603025D01*
X1267667Y1602675D01*
X1267046Y1602339D01*
X1266980Y1602283D01*
X1266904Y1602240D01*
X1266371Y1601776D01*
X1265828Y1601324D01*
X1265774Y1601256D01*
X1265709Y1601199D01*
X1265277Y1600639D01*
X1264835Y1600089D01*
X1264795Y1600012D01*
X1264742Y1599943D01*
X1264143Y1598778D01*
X1262954Y1595908D01*
X1252124Y1585077D01*
X1237973Y1579216D01*
X1222657Y1579216D01*
G37*
%LPD*%
%LPC*%
G36*
X1222657Y1779216D02*
X1222657Y1779216D01*
X1208506Y1785077D01*
X1197676Y1795908D01*
X1193878Y1805077D01*
X1193836Y1805154D01*
X1193810Y1805236D01*
X1193463Y1805851D01*
X1193129Y1806474D01*
X1193073Y1806541D01*
X1193031Y1806617D01*
X1192570Y1807151D01*
X1192119Y1807696D01*
X1192052Y1807751D01*
X1191995Y1807817D01*
X1191436Y1808251D01*
X1190888Y1808695D01*
X1190811Y1808736D01*
X1190743Y1808789D01*
X1190110Y1809104D01*
X1189484Y1809432D01*
X1189401Y1809457D01*
X1189324Y1809495D01*
X1188641Y1809679D01*
X1187963Y1809878D01*
X1187876Y1809885D01*
X1187793Y1809908D01*
X1186487Y1810015D01*
X1062331Y1810015D01*
X1062244Y1810006D01*
X1062158Y1810013D01*
X1061456Y1809928D01*
X1060753Y1809858D01*
X1060670Y1809832D01*
X1060584Y1809822D01*
X1059915Y1809601D01*
X1059238Y1809393D01*
X1059161Y1809351D01*
X1059079Y1809324D01*
X1058466Y1808975D01*
X1057844Y1808638D01*
X1057777Y1808582D01*
X1057701Y1808539D01*
X1057168Y1808075D01*
X1056626Y1807623D01*
X1056571Y1807556D01*
X1056506Y1807498D01*
X1056073Y1806936D01*
X1055632Y1806388D01*
X1055592Y1806311D01*
X1055539Y1806242D01*
X1054940Y1805077D01*
X1053869Y1802490D01*
X1043179Y1791800D01*
X1029212Y1786015D01*
X1014095Y1786015D01*
X1000128Y1791800D01*
X989438Y1802490D01*
X983653Y1816457D01*
X983653Y1831575D01*
X989438Y1845541D01*
X1000128Y1856231D01*
X1014095Y1862016D01*
X1029212Y1862016D01*
X1043179Y1856231D01*
X1053869Y1845541D01*
X1054940Y1842955D01*
X1054981Y1842878D01*
X1055008Y1842796D01*
X1055355Y1842181D01*
X1055689Y1841557D01*
X1055744Y1841490D01*
X1055787Y1841415D01*
X1056250Y1840879D01*
X1056699Y1840335D01*
X1056766Y1840281D01*
X1056823Y1840215D01*
X1057382Y1839781D01*
X1057930Y1839336D01*
X1058007Y1839295D01*
X1058075Y1839242D01*
X1058708Y1838927D01*
X1059333Y1838599D01*
X1059416Y1838575D01*
X1059494Y1838536D01*
X1060178Y1838352D01*
X1060855Y1838154D01*
X1060942Y1838146D01*
X1061025Y1838124D01*
X1062331Y1838016D01*
X1192853Y1838016D01*
X1192957Y1838027D01*
X1193061Y1838019D01*
X1193744Y1838105D01*
X1194431Y1838173D01*
X1194530Y1838204D01*
X1194633Y1838217D01*
X1195286Y1838436D01*
X1195946Y1838639D01*
X1196038Y1838688D01*
X1196136Y1838721D01*
X1196733Y1839064D01*
X1197340Y1839393D01*
X1197420Y1839460D01*
X1197510Y1839512D01*
X1198510Y1840359D01*
X1208506Y1850356D01*
X1222657Y1856217D01*
X1237973Y1856217D01*
X1252124Y1850356D01*
X1262954Y1839525D01*
X1264143Y1836655D01*
X1264158Y1836628D01*
X1264162Y1836614D01*
X1264187Y1836571D01*
X1264211Y1836496D01*
X1264557Y1835883D01*
X1264892Y1835258D01*
X1264947Y1835191D01*
X1264990Y1835116D01*
X1265451Y1834581D01*
X1265901Y1834036D01*
X1265969Y1833981D01*
X1266025Y1833915D01*
X1266584Y1833482D01*
X1267132Y1833037D01*
X1267209Y1832996D01*
X1267278Y1832943D01*
X1267912Y1832628D01*
X1268536Y1832300D01*
X1268619Y1832276D01*
X1268697Y1832237D01*
X1269381Y1832053D01*
X1270058Y1831854D01*
X1270144Y1831847D01*
X1270228Y1831824D01*
X1271533Y1831717D01*
X1360000Y1831717D01*
X1360069Y1831724D01*
X1360138Y1831718D01*
X1360856Y1831802D01*
X1361578Y1831874D01*
X1361644Y1831895D01*
X1361713Y1831903D01*
X1362399Y1832126D01*
X1363093Y1832339D01*
X1363155Y1832373D01*
X1363220Y1832394D01*
X1363848Y1832748D01*
X1364487Y1833094D01*
X1364541Y1833139D01*
X1364601Y1833173D01*
X1365149Y1833646D01*
X1365705Y1834109D01*
X1365748Y1834163D01*
X1365801Y1834209D01*
X1366246Y1834782D01*
X1366699Y1835344D01*
X1366731Y1835406D01*
X1366773Y1835461D01*
X1367097Y1836111D01*
X1367429Y1836751D01*
X1367448Y1836818D01*
X1367480Y1836880D01*
X1367668Y1837581D01*
X1367868Y1838275D01*
X1367874Y1838344D01*
X1367892Y1838411D01*
X1367999Y1839716D01*
X1367999Y1842782D01*
X1386745Y1861528D01*
X1413255Y1861528D01*
X1432001Y1842782D01*
X1432001Y1816273D01*
X1413255Y1797527D01*
X1386745Y1797527D01*
X1382899Y1801373D01*
X1382818Y1801439D01*
X1382750Y1801518D01*
X1382205Y1801941D01*
X1381672Y1802377D01*
X1381580Y1802426D01*
X1381498Y1802490D01*
X1380881Y1802797D01*
X1380272Y1803120D01*
X1380172Y1803150D01*
X1380079Y1803196D01*
X1379414Y1803375D01*
X1378752Y1803572D01*
X1378648Y1803582D01*
X1378548Y1803609D01*
X1377242Y1803716D01*
X1271533Y1803716D01*
X1271447Y1803707D01*
X1271360Y1803714D01*
X1270659Y1803629D01*
X1269956Y1803559D01*
X1269873Y1803533D01*
X1269787Y1803523D01*
X1269117Y1803301D01*
X1268440Y1803094D01*
X1268364Y1803052D01*
X1268282Y1803025D01*
X1267667Y1802675D01*
X1267046Y1802339D01*
X1266980Y1802283D01*
X1266904Y1802240D01*
X1266371Y1801776D01*
X1265828Y1801324D01*
X1265774Y1801256D01*
X1265709Y1801199D01*
X1265277Y1800639D01*
X1264835Y1800089D01*
X1264795Y1800012D01*
X1264742Y1799943D01*
X1264143Y1798778D01*
X1262954Y1795908D01*
X1252124Y1785077D01*
X1237973Y1779216D01*
X1222657Y1779216D01*
G37*
%LPD*%
%LPC*%
G36*
X579515Y1578716D02*
X579515Y1578716D01*
X556669Y1601562D01*
X556669Y1633871D01*
X575389Y1652591D01*
X575455Y1652672D01*
X575533Y1652740D01*
X575957Y1653285D01*
X576393Y1653818D01*
X576442Y1653909D01*
X576506Y1653992D01*
X576813Y1654609D01*
X577136Y1655218D01*
X577165Y1655318D01*
X577212Y1655411D01*
X577391Y1656076D01*
X577588Y1656738D01*
X577597Y1656842D01*
X577624Y1656942D01*
X577732Y1658247D01*
X577732Y1738660D01*
X577721Y1738763D01*
X577729Y1738867D01*
X577643Y1739550D01*
X577574Y1740237D01*
X577544Y1740337D01*
X577531Y1740440D01*
X577312Y1741092D01*
X577109Y1741753D01*
X577060Y1741845D01*
X577027Y1741943D01*
X576683Y1742539D01*
X576354Y1743147D01*
X576288Y1743227D01*
X576236Y1743317D01*
X575389Y1744316D01*
X559732Y1759973D01*
X559732Y1786483D01*
X578477Y1805229D01*
X604987Y1805229D01*
X623733Y1786483D01*
X623733Y1759973D01*
X608076Y1744316D01*
X608010Y1744236D01*
X607931Y1744168D01*
X607508Y1743623D01*
X607071Y1743090D01*
X607023Y1742998D01*
X606959Y1742915D01*
X606652Y1742298D01*
X606329Y1741689D01*
X606299Y1741589D01*
X606253Y1741496D01*
X606073Y1740831D01*
X605877Y1740170D01*
X605867Y1740066D01*
X605840Y1739965D01*
X605733Y1738660D01*
X605733Y1664716D01*
X605740Y1664647D01*
X605734Y1664578D01*
X605818Y1663860D01*
X605890Y1663139D01*
X605910Y1663073D01*
X605918Y1663004D01*
X606143Y1662315D01*
X606355Y1661623D01*
X606388Y1661562D01*
X606410Y1661496D01*
X606764Y1660868D01*
X607110Y1660229D01*
X607154Y1660176D01*
X607188Y1660116D01*
X607662Y1659567D01*
X608125Y1659011D01*
X608179Y1658968D01*
X608224Y1658915D01*
X608798Y1658470D01*
X609360Y1658018D01*
X609422Y1657986D01*
X609477Y1657943D01*
X610126Y1657620D01*
X610767Y1657287D01*
X610833Y1657268D01*
X610896Y1657237D01*
X611455Y1657086D01*
X634670Y1633871D01*
X634670Y1601562D01*
X611824Y1578716D01*
X579515Y1578716D01*
G37*
%LPD*%
%LPC*%
G36*
X265879Y560125D02*
X265879Y560125D01*
X247133Y578871D01*
X247133Y605381D01*
X262790Y621038D01*
X262856Y621119D01*
X262935Y621187D01*
X263358Y621732D01*
X263795Y622265D01*
X263843Y622356D01*
X263907Y622439D01*
X264214Y623056D01*
X264537Y623665D01*
X264567Y623765D01*
X264613Y623858D01*
X264793Y624523D01*
X264989Y625185D01*
X264999Y625289D01*
X265026Y625389D01*
X265133Y626694D01*
X265133Y703170D01*
X265123Y703273D01*
X265130Y703377D01*
X265044Y704060D01*
X264976Y704747D01*
X264945Y704847D01*
X264932Y704950D01*
X264714Y705602D01*
X264511Y706263D01*
X264461Y706355D01*
X264428Y706453D01*
X264085Y707049D01*
X263756Y707657D01*
X263689Y707737D01*
X263638Y707827D01*
X262790Y708826D01*
X243283Y728334D01*
X243283Y760643D01*
X266129Y783489D01*
X298438Y783489D01*
X321284Y760643D01*
X321284Y728334D01*
X297564Y704613D01*
X297286Y704456D01*
X296647Y704110D01*
X296593Y704066D01*
X296533Y704032D01*
X295985Y703559D01*
X295429Y703095D01*
X295385Y703042D01*
X295333Y702996D01*
X294887Y702423D01*
X294435Y701860D01*
X294403Y701799D01*
X294360Y701744D01*
X294037Y701094D01*
X293704Y700453D01*
X293685Y700387D01*
X293654Y700325D01*
X293465Y699624D01*
X293266Y698930D01*
X293260Y698861D01*
X293242Y698794D01*
X293134Y697488D01*
X293134Y626694D01*
X293145Y626591D01*
X293137Y626487D01*
X293223Y625804D01*
X293292Y625117D01*
X293322Y625017D01*
X293335Y624914D01*
X293554Y624262D01*
X293757Y623601D01*
X293806Y623509D01*
X293839Y623411D01*
X294183Y622815D01*
X294512Y622207D01*
X294578Y622127D01*
X294630Y622037D01*
X295477Y621038D01*
X311134Y605381D01*
X311134Y578871D01*
X292389Y560125D01*
X265879Y560125D01*
G37*
%LPD*%
%LPC*%
G36*
X147801Y541889D02*
X147801Y541889D01*
X129915Y549297D01*
X116226Y562986D01*
X108818Y580872D01*
X108818Y600231D01*
X116226Y618116D01*
X129915Y631805D01*
X147801Y639213D01*
X167160Y639213D01*
X185045Y631805D01*
X198734Y618116D01*
X206142Y600231D01*
X206142Y580872D01*
X198734Y562986D01*
X185045Y549297D01*
X167160Y541889D01*
X147801Y541889D01*
G37*
%LPD*%
%LPC*%
G36*
X147918Y1566102D02*
X147918Y1566102D01*
X130250Y1573420D01*
X116727Y1586943D01*
X109409Y1604611D01*
X109409Y1623735D01*
X116727Y1641403D01*
X130250Y1654926D01*
X147918Y1662245D01*
X167042Y1662245D01*
X184711Y1654926D01*
X198233Y1641403D01*
X205552Y1623735D01*
X205552Y1604611D01*
X198233Y1586943D01*
X184711Y1573420D01*
X167042Y1566102D01*
X147918Y1566102D01*
G37*
%LPD*%
%LPC*%
G36*
X1604807Y1724566D02*
X1604807Y1724566D01*
X1587500Y1731735D01*
X1574254Y1744981D01*
X1567086Y1762287D01*
X1567086Y1781020D01*
X1574254Y1798326D01*
X1587500Y1811572D01*
X1604807Y1818741D01*
X1623539Y1818741D01*
X1640846Y1811572D01*
X1654092Y1798326D01*
X1661260Y1781020D01*
X1661260Y1762287D01*
X1654092Y1744981D01*
X1640846Y1731735D01*
X1623539Y1724566D01*
X1604807Y1724566D01*
G37*
%LPD*%
%LPC*%
G36*
X1604807Y504094D02*
X1604807Y504094D01*
X1587500Y511262D01*
X1574254Y524508D01*
X1567086Y541815D01*
X1567086Y560547D01*
X1574254Y577854D01*
X1587500Y591100D01*
X1604807Y598268D01*
X1623539Y598268D01*
X1640846Y591100D01*
X1654092Y577854D01*
X1661260Y560547D01*
X1661260Y541815D01*
X1654092Y524508D01*
X1640846Y511262D01*
X1623539Y504094D01*
X1604807Y504094D01*
G37*
%LPD*%
%LPC*%
G36*
X698486Y547133D02*
X698486Y547133D01*
X682681Y553680D01*
X670585Y565776D01*
X664039Y581580D01*
X664039Y598687D01*
X670585Y614492D01*
X682681Y626588D01*
X698486Y633134D01*
X715593Y633134D01*
X731397Y626588D01*
X743494Y614492D01*
X750040Y598687D01*
X750040Y581580D01*
X743494Y565776D01*
X731397Y553680D01*
X715593Y547133D01*
X698486Y547133D01*
G37*
%LPD*%
%LPC*%
G36*
X698486Y725133D02*
X698486Y725133D01*
X682681Y731680D01*
X670585Y743776D01*
X664039Y759580D01*
X664039Y776687D01*
X670585Y792492D01*
X682681Y804588D01*
X698486Y811134D01*
X715593Y811134D01*
X731397Y804588D01*
X743494Y792492D01*
X750040Y776687D01*
X750040Y759580D01*
X743494Y743776D01*
X731397Y731680D01*
X715593Y725133D01*
X698486Y725133D01*
G37*
%LPD*%
%LPC*%
G36*
X1316393Y424660D02*
X1316393Y424660D01*
X1316393Y502453D01*
X1326735Y500093D01*
X1336806Y496569D01*
X1346420Y491939D01*
X1355454Y486262D01*
X1363796Y479610D01*
X1371342Y472064D01*
X1377995Y463722D01*
X1383672Y454687D01*
X1388301Y445074D01*
X1391825Y435003D01*
X1394186Y424660D01*
X1316393Y424660D01*
G37*
%LPD*%
%LPC*%
G36*
X1434503Y239621D02*
X1434503Y239621D01*
X1434503Y317414D01*
X1444845Y315053D01*
X1454916Y311530D01*
X1464530Y306900D01*
X1473565Y301223D01*
X1481906Y294571D01*
X1489453Y287025D01*
X1496105Y278683D01*
X1501782Y269648D01*
X1506411Y260034D01*
X1509935Y249964D01*
X1512296Y239621D01*
X1434503Y239621D01*
G37*
%LPD*%
%LPC*%
G36*
X1434503Y207623D02*
X1434503Y207623D01*
X1512296Y207623D01*
X1509935Y197280D01*
X1506411Y187210D01*
X1501782Y177596D01*
X1496105Y168561D01*
X1489453Y160219D01*
X1481906Y152673D01*
X1473565Y146021D01*
X1464530Y140344D01*
X1454916Y135714D01*
X1444845Y132191D01*
X1434503Y129830D01*
X1434503Y207623D01*
G37*
%LPD*%
%LPC*%
G36*
X1206602Y424660D02*
X1206602Y424660D01*
X1208962Y435003D01*
X1212486Y445074D01*
X1217116Y454687D01*
X1222793Y463722D01*
X1229445Y472064D01*
X1236991Y479610D01*
X1245333Y486262D01*
X1254368Y491939D01*
X1263981Y496569D01*
X1274052Y500093D01*
X1284394Y502453D01*
X1284394Y424660D01*
X1206602Y424660D01*
G37*
%LPD*%
%LPC*%
G36*
X1316393Y392662D02*
X1316393Y392662D01*
X1394186Y392662D01*
X1391825Y382320D01*
X1388301Y372249D01*
X1383672Y362635D01*
X1377995Y353601D01*
X1371342Y345259D01*
X1363796Y337713D01*
X1355454Y331060D01*
X1346420Y325383D01*
X1336806Y320754D01*
X1326735Y317230D01*
X1316393Y314869D01*
X1316393Y392662D01*
G37*
%LPD*%
%LPC*%
G36*
X1324712Y239621D02*
X1324712Y239621D01*
X1327072Y249964D01*
X1330596Y260034D01*
X1335226Y269648D01*
X1340903Y278683D01*
X1347555Y287025D01*
X1355101Y294571D01*
X1363443Y301223D01*
X1372478Y306900D01*
X1382091Y311530D01*
X1392162Y315053D01*
X1402505Y317414D01*
X1402505Y239621D01*
X1324712Y239621D01*
G37*
%LPD*%
%LPC*%
G36*
X1392162Y132191D02*
X1392162Y132191D01*
X1382091Y135714D01*
X1372478Y140344D01*
X1363443Y146021D01*
X1355101Y152673D01*
X1347555Y160219D01*
X1340903Y168561D01*
X1335226Y177596D01*
X1330596Y187210D01*
X1327072Y197280D01*
X1324712Y207623D01*
X1402505Y207623D01*
X1402505Y129830D01*
X1392162Y132191D01*
G37*
%LPD*%
%LPC*%
G36*
X1274052Y317230D02*
X1274052Y317230D01*
X1263981Y320754D01*
X1254368Y325383D01*
X1245333Y331060D01*
X1236991Y337713D01*
X1229445Y345259D01*
X1222793Y353601D01*
X1217116Y362635D01*
X1212486Y372249D01*
X1208962Y382320D01*
X1206602Y392662D01*
X1284394Y392662D01*
X1284394Y314869D01*
X1274052Y317230D01*
G37*
%LPD*%
%LPC*%
G36*
X1639527Y1614724D02*
X1639527Y1614724D01*
X1639527Y1644725D01*
X1662676Y1644725D01*
X1668894Y1643740D01*
X1674883Y1641794D01*
X1680492Y1638936D01*
X1685586Y1635235D01*
X1690038Y1630783D01*
X1693739Y1625689D01*
X1696598Y1620079D01*
X1698338Y1614724D01*
X1639527Y1614724D01*
G37*
%LPD*%
%LPC*%
G36*
X313543Y283621D02*
X313543Y283621D01*
X313543Y313623D01*
X336692Y313623D01*
X342910Y312638D01*
X348898Y310692D01*
X354508Y307834D01*
X359602Y304133D01*
X364054Y299681D01*
X367755Y294586D01*
X370613Y288977D01*
X372353Y283621D01*
X313543Y283621D01*
G37*
%LPD*%
%LPC*%
G36*
X1389527Y749763D02*
X1389527Y749763D01*
X1389527Y779764D01*
X1412676Y779764D01*
X1418894Y778780D01*
X1424883Y776834D01*
X1430492Y773976D01*
X1435586Y770274D01*
X1440038Y765822D01*
X1443739Y760728D01*
X1446598Y755119D01*
X1448338Y749763D01*
X1389527Y749763D01*
G37*
%LPD*%
%LPC*%
G36*
X1639527Y814724D02*
X1639527Y814724D01*
X1639527Y844725D01*
X1662676Y844725D01*
X1668894Y843740D01*
X1674883Y841794D01*
X1680492Y838936D01*
X1685586Y835235D01*
X1690038Y830783D01*
X1693739Y825689D01*
X1696598Y820079D01*
X1698338Y814724D01*
X1639527Y814724D01*
G37*
%LPD*%
%LPC*%
G36*
X234733Y283621D02*
X234733Y283621D01*
X236473Y288977D01*
X239331Y294586D01*
X243032Y299681D01*
X247485Y304133D01*
X252579Y307834D01*
X258188Y310692D01*
X264177Y312638D01*
X270395Y313623D01*
X293544Y313623D01*
X293544Y283621D01*
X234733Y283621D01*
G37*
%LPD*%
%LPC*%
G36*
X1560717Y1614724D02*
X1560717Y1614724D01*
X1562457Y1620079D01*
X1565316Y1625689D01*
X1569017Y1630783D01*
X1573469Y1635235D01*
X1578563Y1638936D01*
X1584172Y1641794D01*
X1590161Y1643740D01*
X1596379Y1644725D01*
X1619528Y1644725D01*
X1619528Y1614724D01*
X1560717Y1614724D01*
G37*
%LPD*%
%LPC*%
G36*
X1310717Y749763D02*
X1310717Y749763D01*
X1312457Y755119D01*
X1315316Y760728D01*
X1319017Y765822D01*
X1323469Y770274D01*
X1328563Y773976D01*
X1334172Y776834D01*
X1340161Y778780D01*
X1346379Y779764D01*
X1369528Y779764D01*
X1369528Y749763D01*
X1310717Y749763D01*
G37*
%LPD*%
%LPC*%
G36*
X1560717Y814724D02*
X1560717Y814724D01*
X1562457Y820079D01*
X1565316Y825689D01*
X1569017Y830783D01*
X1573469Y835235D01*
X1578563Y838936D01*
X1584172Y841794D01*
X1590161Y843740D01*
X1596379Y844725D01*
X1619528Y844725D01*
X1619528Y814724D01*
X1560717Y814724D01*
G37*
%LPD*%
%LPC*%
G36*
X1639527Y764724D02*
X1639527Y764724D01*
X1639527Y794725D01*
X1698338Y794725D01*
X1696598Y789369D01*
X1693739Y783760D01*
X1690038Y778666D01*
X1685586Y774214D01*
X1680492Y770512D01*
X1674883Y767654D01*
X1668894Y765709D01*
X1662676Y764724D01*
X1639527Y764724D01*
G37*
%LPD*%
%LPC*%
G36*
X313543Y233621D02*
X313543Y233621D01*
X313543Y263623D01*
X372353Y263623D01*
X370613Y258267D01*
X367755Y252658D01*
X364054Y247563D01*
X359602Y243111D01*
X354508Y239410D01*
X348898Y236552D01*
X342910Y234606D01*
X336692Y233621D01*
X313543Y233621D01*
G37*
%LPD*%
%LPC*%
G36*
X1639527Y1564724D02*
X1639527Y1564724D01*
X1639527Y1594725D01*
X1698338Y1594725D01*
X1696598Y1589369D01*
X1693739Y1583760D01*
X1690038Y1578666D01*
X1685586Y1574214D01*
X1680492Y1570512D01*
X1674883Y1567654D01*
X1668894Y1565709D01*
X1662676Y1564724D01*
X1639527Y1564724D01*
G37*
%LPD*%
%LPC*%
G36*
X1389527Y699763D02*
X1389527Y699763D01*
X1389527Y729764D01*
X1448338Y729764D01*
X1446598Y724409D01*
X1443739Y718799D01*
X1440038Y713705D01*
X1435586Y709253D01*
X1430492Y705552D01*
X1424883Y702694D01*
X1418894Y700748D01*
X1412676Y699763D01*
X1389527Y699763D01*
G37*
%LPD*%
%LPC*%
G36*
X270395Y233621D02*
X270395Y233621D01*
X264177Y234606D01*
X258188Y236552D01*
X252579Y239410D01*
X247485Y243111D01*
X243032Y247563D01*
X239331Y252658D01*
X236473Y258267D01*
X234733Y263623D01*
X293544Y263623D01*
X293544Y233621D01*
X270395Y233621D01*
G37*
%LPD*%
%LPC*%
G36*
X1596379Y1564724D02*
X1596379Y1564724D01*
X1590161Y1565709D01*
X1584172Y1567654D01*
X1578563Y1570512D01*
X1573469Y1574214D01*
X1569017Y1578666D01*
X1565316Y1583760D01*
X1562457Y1589369D01*
X1560717Y1594725D01*
X1619528Y1594725D01*
X1619528Y1564724D01*
X1596379Y1564724D01*
G37*
%LPD*%
%LPC*%
G36*
X1596379Y764724D02*
X1596379Y764724D01*
X1590161Y765709D01*
X1584172Y767654D01*
X1578563Y770512D01*
X1573469Y774214D01*
X1569017Y778666D01*
X1565316Y783760D01*
X1562457Y789369D01*
X1560717Y794725D01*
X1619528Y794725D01*
X1619528Y764724D01*
X1596379Y764724D01*
G37*
%LPD*%
%LPC*%
G36*
X1346379Y699763D02*
X1346379Y699763D01*
X1340161Y700748D01*
X1334172Y702694D01*
X1328563Y705552D01*
X1323469Y709253D01*
X1319017Y713705D01*
X1315316Y718799D01*
X1312457Y724409D01*
X1310717Y729764D01*
X1369528Y729764D01*
X1369528Y699763D01*
X1346379Y699763D01*
G37*
%LPD*%
%LPC*%
G36*
X390283Y752488D02*
X390283Y752488D01*
X390283Y787489D01*
X400095Y787489D01*
X425284Y762299D01*
X425284Y752488D01*
X390283Y752488D01*
G37*
%LPD*%
%LPC*%
G36*
X503669Y1625716D02*
X503669Y1625716D01*
X503669Y1660717D01*
X513481Y1660717D01*
X538670Y1635528D01*
X538670Y1625716D01*
X503669Y1625716D01*
G37*
%LPD*%
%LPC*%
G36*
X452669Y1625716D02*
X452669Y1625716D01*
X452669Y1635528D01*
X477858Y1660717D01*
X487669Y1660717D01*
X487669Y1625716D01*
X452669Y1625716D01*
G37*
%LPD*%
%LPC*%
G36*
X339283Y752488D02*
X339283Y752488D01*
X339283Y762299D01*
X364472Y787489D01*
X374283Y787489D01*
X374283Y752488D01*
X339283Y752488D01*
G37*
%LPD*%
%LPC*%
G36*
X390283Y701487D02*
X390283Y701487D01*
X390283Y736488D01*
X425284Y736488D01*
X425284Y726677D01*
X400095Y701487D01*
X390283Y701487D01*
G37*
%LPD*%
%LPC*%
G36*
X503669Y1574716D02*
X503669Y1574716D01*
X503669Y1609717D01*
X538670Y1609717D01*
X538670Y1599905D01*
X513481Y1574716D01*
X503669Y1574716D01*
G37*
%LPD*%
%LPC*%
G36*
X477858Y1574716D02*
X477858Y1574716D01*
X452669Y1599905D01*
X452669Y1609717D01*
X487669Y1609717D01*
X487669Y1574716D01*
X477858Y1574716D01*
G37*
%LPD*%
%LPC*%
G36*
X364472Y701487D02*
X364472Y701487D01*
X339283Y726677D01*
X339283Y736488D01*
X374283Y736488D01*
X374283Y701487D01*
X364472Y701487D01*
G37*
%LPD*%
%LPC*%
G36*
X973039Y600133D02*
X973039Y600133D01*
X973039Y636137D01*
X974045Y635977D01*
X981081Y633691D01*
X987673Y630332D01*
X993658Y625984D01*
X998890Y620752D01*
X1003238Y614768D01*
X1006596Y608176D01*
X1008883Y601139D01*
X1009042Y600133D01*
X973039Y600133D01*
G37*
%LPD*%
%LPC*%
G36*
X917036Y600133D02*
X917036Y600133D01*
X917196Y601139D01*
X919482Y608176D01*
X922841Y614768D01*
X927189Y620752D01*
X932421Y625984D01*
X938405Y630332D01*
X944997Y633691D01*
X952034Y635977D01*
X953040Y636137D01*
X953040Y600133D01*
X917036Y600133D01*
G37*
%LPD*%
%LPC*%
G36*
X973039Y580134D02*
X973039Y580134D01*
X1009042Y580134D01*
X1008883Y579128D01*
X1006596Y572092D01*
X1003238Y565500D01*
X998890Y559515D01*
X993658Y554283D01*
X987673Y549935D01*
X981081Y546577D01*
X974045Y544290D01*
X973039Y544131D01*
X973039Y580134D01*
G37*
%LPD*%
%LPC*%
G36*
X952034Y544290D02*
X952034Y544290D01*
X944997Y546577D01*
X938405Y549935D01*
X932421Y554283D01*
X927189Y559515D01*
X922841Y565500D01*
X919482Y572092D01*
X917196Y579128D01*
X917037Y580134D01*
X953040Y580134D01*
X953040Y544131D01*
X952034Y544290D01*
G37*
%LPD*%
%LPC*%
G36*
X538315Y478472D02*
X538315Y478472D01*
X538315Y511473D01*
X547298Y511473D01*
X571316Y487455D01*
X571316Y478472D01*
X538315Y478472D01*
G37*
%LPD*%
%LPC*%
G36*
X602094Y226504D02*
X602094Y226504D01*
X602094Y259504D01*
X611077Y259505D01*
X635095Y235487D01*
X635095Y226504D01*
X602094Y226504D01*
G37*
%LPD*%
%LPC*%
G36*
X489314Y478472D02*
X489314Y478472D01*
X489314Y487455D01*
X513332Y511473D01*
X522315Y511473D01*
X522315Y478472D01*
X489314Y478472D01*
G37*
%LPD*%
%LPC*%
G36*
X553094Y226504D02*
X553094Y226504D01*
X553094Y235487D01*
X577111Y259505D01*
X586094Y259505D01*
X586094Y226504D01*
X553094Y226504D01*
G37*
%LPD*%
%LPC*%
G36*
X538315Y429472D02*
X538315Y429472D01*
X538315Y462472D01*
X571315Y462472D01*
X571316Y453489D01*
X547298Y429472D01*
X538315Y429472D01*
G37*
%LPD*%
%LPC*%
G36*
X602094Y177503D02*
X602094Y177503D01*
X602094Y210504D01*
X635095Y210504D01*
X635095Y201521D01*
X611077Y177503D01*
X602094Y177503D01*
G37*
%LPD*%
%LPC*%
G36*
X513332Y429472D02*
X513332Y429472D01*
X489314Y453489D01*
X489314Y462472D01*
X522315Y462472D01*
X522315Y429472D01*
X513332Y429472D01*
G37*
%LPD*%
%LPC*%
G36*
X577111Y177503D02*
X577111Y177503D01*
X553094Y201521D01*
X553094Y210504D01*
X586094Y210504D01*
X586094Y177503D01*
X577111Y177503D01*
G37*
%LPD*%
%LPC*%
G36*
X1029653Y1632016D02*
X1029653Y1632016D01*
X1029653Y1665273D01*
X1031489Y1664982D01*
X1037776Y1662939D01*
X1043667Y1659938D01*
X1049015Y1656052D01*
X1053690Y1651377D01*
X1057576Y1646029D01*
X1060577Y1640138D01*
X1062620Y1633851D01*
X1062911Y1632016D01*
X1029653Y1632016D01*
G37*
%LPD*%
%LPC*%
G36*
X729653Y1532016D02*
X729653Y1532016D01*
X729653Y1565273D01*
X731489Y1564982D01*
X737776Y1562939D01*
X743667Y1559938D01*
X749015Y1556052D01*
X753690Y1551377D01*
X757576Y1546029D01*
X760577Y1540138D01*
X762620Y1533851D01*
X762911Y1532016D01*
X729653Y1532016D01*
G37*
%LPD*%
%LPC*%
G36*
X1029653Y1616016D02*
X1029653Y1616016D01*
X1062911Y1616016D01*
X1062620Y1614180D01*
X1060577Y1607893D01*
X1057576Y1602002D01*
X1053690Y1596655D01*
X1049015Y1591979D01*
X1043667Y1588094D01*
X1037776Y1585092D01*
X1031489Y1583049D01*
X1029653Y1582759D01*
X1029653Y1616016D01*
G37*
%LPD*%
%LPC*%
G36*
X980396Y1632016D02*
X980396Y1632016D01*
X980687Y1633851D01*
X982730Y1640138D01*
X985731Y1646029D01*
X989617Y1651377D01*
X994292Y1656052D01*
X999640Y1659938D01*
X1005531Y1662939D01*
X1011818Y1664982D01*
X1013654Y1665273D01*
X1013654Y1632016D01*
X980396Y1632016D01*
G37*
%LPD*%
%LPC*%
G36*
X680396Y1532016D02*
X680396Y1532016D01*
X680687Y1533851D01*
X682730Y1540138D01*
X685731Y1546029D01*
X689617Y1551377D01*
X694292Y1556052D01*
X699640Y1559938D01*
X705531Y1562939D01*
X711818Y1564982D01*
X713654Y1565273D01*
X713654Y1532016D01*
X680396Y1532016D01*
G37*
%LPD*%
%LPC*%
G36*
X729653Y1516016D02*
X729653Y1516016D01*
X762911Y1516016D01*
X762620Y1514180D01*
X760577Y1507893D01*
X757576Y1502002D01*
X753690Y1496655D01*
X749015Y1491979D01*
X743667Y1488094D01*
X737776Y1485092D01*
X731489Y1483049D01*
X729653Y1482759D01*
X729653Y1516016D01*
G37*
%LPD*%
%LPC*%
G36*
X711818Y1483049D02*
X711818Y1483049D01*
X705531Y1485092D01*
X699640Y1488094D01*
X694292Y1491979D01*
X689617Y1496655D01*
X685731Y1502002D01*
X682730Y1507893D01*
X680687Y1514180D01*
X680396Y1516016D01*
X713654Y1516016D01*
X713654Y1482759D01*
X711818Y1483049D01*
G37*
%LPD*%
%LPC*%
G36*
X1011818Y1583049D02*
X1011818Y1583049D01*
X1005531Y1585092D01*
X999640Y1588094D01*
X994292Y1591979D01*
X989617Y1596655D01*
X985731Y1602002D01*
X982730Y1607893D01*
X980687Y1614180D01*
X980396Y1616016D01*
X1013654Y1616016D01*
X1013654Y1582759D01*
X1011818Y1583049D01*
G37*
%LPD*%
%LPC*%
G36*
X1508000Y1837527D02*
X1508000Y1837527D01*
X1508000Y1865528D01*
X1514912Y1865528D01*
X1536001Y1844439D01*
X1536001Y1837527D01*
X1508000Y1837527D01*
G37*
%LPD*%
%LPC*%
G36*
X1501701Y1640677D02*
X1501701Y1640677D01*
X1501701Y1668678D01*
X1508613Y1668678D01*
X1529701Y1647589D01*
X1529701Y1640677D01*
X1501701Y1640677D01*
G37*
%LPD*%
%LPC*%
G36*
X1457700Y1640677D02*
X1457700Y1640677D01*
X1457700Y1647589D01*
X1478789Y1668678D01*
X1485701Y1668678D01*
X1485701Y1640677D01*
X1457700Y1640677D01*
G37*
%LPD*%
%LPC*%
G36*
X1463999Y1837527D02*
X1463999Y1837527D01*
X1463999Y1844439D01*
X1485088Y1865528D01*
X1492000Y1865528D01*
X1492000Y1837527D01*
X1463999Y1837527D01*
G37*
%LPD*%
%LPC*%
G36*
X1508000Y1793527D02*
X1508000Y1793527D01*
X1508000Y1821528D01*
X1536001Y1821528D01*
X1536001Y1814616D01*
X1514912Y1793527D01*
X1508000Y1793527D01*
G37*
%LPD*%
%LPC*%
G36*
X1501701Y1596676D02*
X1501701Y1596676D01*
X1501701Y1624677D01*
X1529701Y1624677D01*
X1529701Y1617765D01*
X1508613Y1596676D01*
X1501701Y1596676D01*
G37*
%LPD*%
%LPC*%
G36*
X1478789Y1596676D02*
X1478789Y1596676D01*
X1457700Y1617765D01*
X1457700Y1624677D01*
X1485701Y1624677D01*
X1485701Y1596676D01*
X1478789Y1596676D01*
G37*
%LPD*%
%LPC*%
G36*
X1485088Y1793527D02*
X1485088Y1793527D01*
X1463999Y1814616D01*
X1463999Y1821528D01*
X1492000Y1821528D01*
X1492000Y1793527D01*
X1485088Y1793527D01*
G37*
%LPD*%
%LPC*%
G36*
X1300392Y408660D02*
X1300392Y408660D01*
X1300392Y408663D01*
X1300395Y408663D01*
X1300395Y408660D01*
X1300392Y408660D01*
G37*
%LPD*%
%LPC*%
G36*
X1418503Y223621D02*
X1418503Y223621D01*
X1418503Y223623D01*
X1418505Y223623D01*
X1418505Y223621D01*
X1418503Y223621D01*
G37*
%LPD*%
D10*
X594094Y218504D03*
D11*
X594094Y118504D03*
D10*
X530315Y470472D03*
D11*
X530315Y370472D03*
D12*
X1493701Y1632677D03*
X1393701Y1632677D03*
X1500000Y1829528D03*
X1400000Y1829528D03*
D13*
X1140945Y926378D03*
X1240945Y926378D03*
D14*
X333543Y173622D02*
X273543Y173622D01*
X273543Y273622D02*
X333543Y273622D01*
X333543Y373622D02*
X273543Y373622D01*
D15*
X1182283Y223622D03*
X1418504Y223622D03*
X1300394Y408661D03*
D16*
X145276Y1427559D03*
X145276Y1327559D03*
X145276Y1227559D03*
X145276Y1127559D03*
X145276Y1027559D03*
X145276Y927559D03*
D14*
X151496Y2246850D02*
X211496Y2246850D01*
X211496Y2146850D02*
X151496Y2146850D01*
X151496Y2046850D02*
X211496Y2046850D01*
X211496Y1946850D02*
X151496Y1946850D01*
X151496Y1846850D02*
X211496Y1846850D01*
X1585748Y1934646D02*
X1645748Y1934646D01*
X1645748Y2034646D02*
X1585748Y2034646D01*
X1585748Y2134646D02*
X1645748Y2134646D01*
X1645748Y2234646D02*
X1585748Y2234646D01*
X1599528Y704724D02*
X1659528Y704724D01*
X1659528Y804724D02*
X1599528Y804724D01*
X1599528Y904724D02*
X1659528Y904724D01*
X1659528Y1004724D02*
X1599528Y1004724D01*
X1599528Y1104724D02*
X1659528Y1104724D01*
X1659528Y1204724D02*
X1599528Y1204724D01*
X1599528Y1304724D02*
X1659528Y1304724D01*
X1659528Y1404724D02*
X1599528Y1404724D01*
X1599528Y1504724D02*
X1659528Y1504724D01*
X1659528Y1604724D02*
X1599528Y1604724D01*
X1409528Y639764D02*
X1349528Y639764D01*
X1349528Y739764D02*
X1409528Y739764D01*
X1409528Y839764D02*
X1349528Y839764D01*
D17*
X595669Y1617717D03*
X495669Y1617717D03*
D18*
X282283Y744488D03*
X382283Y744488D03*
D13*
X291732Y1773228D03*
X591732Y1773228D03*
D19*
X1182677Y856299D03*
X1182677Y556299D03*
D13*
X279134Y592126D03*
X579134Y592126D03*
D20*
X963039Y590134D03*
X707039Y590134D03*
X963039Y768134D03*
X707039Y768134D03*
D21*
X1021654Y924016D03*
X1021654Y1024016D03*
X1021654Y1124016D03*
X1021654Y1224016D03*
X1021654Y1324016D03*
X1021654Y1424016D03*
X1021654Y1524016D03*
X1021654Y1624016D03*
X1021654Y1724016D03*
X1021654Y1824016D03*
X1021654Y1924016D03*
X1021654Y2024016D03*
X1021654Y2124016D03*
X1021654Y2224016D03*
X721654Y2224016D03*
X721654Y2124016D03*
X721654Y2024016D03*
X721654Y1924016D03*
X721654Y1824016D03*
X721654Y1724016D03*
X721654Y1624016D03*
X721654Y1524016D03*
X721654Y1424016D03*
X721654Y1324016D03*
X721654Y1224016D03*
X721654Y1124016D03*
X721654Y1024016D03*
X721654Y924016D03*
D22*
X1230315Y1617717D03*
X1230315Y1817717D03*
D23*
X850394Y118110D03*
X960630Y118110D03*
D24*
X530315Y370472D02*
X527165Y373622D01*
D25*
X625000Y546260D02*
X579134Y592126D01*
X625000Y546260D02*
X625000Y506890D01*
X748031Y393701D02*
X724803Y370472D01*
X748031Y393701D02*
X866142Y511811D01*
X724803Y370472D02*
X530315Y370472D01*
X866142Y511811D02*
X866142Y1535433D01*
X721654Y1624016D02*
X721654Y1724016D01*
X721654Y1624016D02*
X777559Y1624016D01*
X866142Y1535433D01*
X877559Y1524016D02*
X1021654Y1524016D01*
X877559Y1524016D02*
X866142Y1535433D01*
X1021654Y1524016D02*
X1610236Y1524016D01*
X1629528Y1504724D01*
X1379528Y639764D02*
X1296063Y556299D01*
X1379528Y639764D02*
X1564567Y639764D01*
X1629528Y704724D01*
X1182677Y556299D02*
X1138189Y511811D01*
X866142Y511811D01*
X738189Y393701D02*
X625000Y506890D01*
X738189Y393701D02*
X748031Y393701D01*
X1182677Y556299D02*
X1296063Y556299D01*
X527165Y373622D02*
X303543Y373622D01*
X1300394Y408661D02*
X1629134Y408661D01*
X1653543Y433071D01*
X1661123Y804724D02*
X1629528Y804724D01*
X1661123Y804724D02*
X1717123Y748724D01*
X1723654Y742194D01*
X1124016Y1724016D02*
X1021654Y1724016D01*
X1124016Y1724016D02*
X1230315Y1617717D01*
X1378740Y1617717D01*
X1393701Y1632677D01*
X1224016Y1824016D02*
X1021654Y1824016D01*
X1224016Y1824016D02*
X1230315Y1817717D01*
X1388189Y1817717D01*
X1400000Y1829528D01*
X1023622Y924016D02*
X1021654Y924016D01*
X1227559Y839764D02*
X1379528Y839764D01*
X1023622Y828717D02*
X963039Y768134D01*
X1023622Y828717D02*
X1023622Y922047D01*
X1023622Y924016D01*
X1021654Y924016D02*
X1023622Y922047D01*
X1021654Y924016D02*
X1138583Y924016D01*
X1140945Y926378D01*
X1182677Y884646D01*
X1182677Y856299D01*
X1211024Y856299D01*
X1227559Y839764D01*
X591732Y1621654D02*
X591732Y1773228D01*
X591732Y1621654D02*
X595669Y1617717D01*
X218110Y1846850D02*
X181496Y1846850D01*
X218110Y1846850D02*
X291732Y1773228D01*
X181496Y1846850D02*
X698819Y1846850D01*
X721654Y1824016D01*
X1240945Y926378D02*
X1262598Y904724D01*
X1629528Y904724D01*
X1629528Y1024016D02*
X1021654Y1024016D01*
X1629528Y1024016D02*
X1629528Y1004724D01*
X1610236Y1124016D02*
X1021654Y1124016D01*
X1610236Y1124016D02*
X1629528Y1104724D01*
X718110Y1427559D02*
X145276Y1427559D01*
X718110Y1427559D02*
X721654Y1424016D01*
X718110Y1327559D02*
X145276Y1327559D01*
X718110Y1327559D02*
X721654Y1324016D01*
D24*
X148819Y1224016D02*
X145276Y1227559D01*
D25*
X148819Y1224016D02*
X721654Y1224016D01*
D24*
X718110Y1127559D02*
X721654Y1124016D01*
D25*
X718110Y1127559D02*
X145276Y1127559D01*
X718110Y1027559D02*
X721654Y1024016D01*
X718110Y1027559D02*
X145276Y1027559D01*
D24*
X718110Y927559D02*
X721654Y924016D01*
D25*
X718110Y927559D02*
X145276Y927559D01*
X1021654Y1224016D02*
X1610236Y1224016D01*
X1629528Y1204724D01*
X1610236Y1324016D02*
X1021654Y1324016D01*
X1610236Y1324016D02*
X1629528Y1304724D01*
X1610236Y1424016D02*
X1021654Y1424016D01*
X1610236Y1424016D02*
X1629528Y1404724D01*
X1605118Y1924016D02*
X1615748Y1934646D01*
X1605118Y1924016D02*
X1021654Y1924016D01*
X1021654Y2024016D02*
X1605118Y2024016D01*
X1615748Y2034646D01*
X1615748Y2134646D02*
X1032283Y2134646D01*
X1021654Y2124016D01*
X1021654Y2224016D02*
X1605118Y2224016D01*
X1615748Y2234646D01*
X721654Y2224016D02*
X204331Y2224016D01*
X181496Y2246850D01*
X181496Y2146850D02*
X698819Y2146850D01*
X721654Y2124016D01*
X703543Y2042126D02*
X721654Y2024016D01*
D24*
X703543Y2042126D02*
X698819Y2046850D01*
D25*
X181496Y2046850D01*
X698819Y2046850D02*
X721654Y2024016D01*
X698819Y1946850D02*
X181496Y1946850D01*
X698819Y1946850D02*
X712598Y1933071D01*
X721654Y1924016D01*
X279134Y741339D02*
X279134Y592126D01*
X279134Y741339D02*
X282283Y744488D01*
X960630Y118110D02*
X1066142Y223622D01*
X1182283Y223622D01*
X594094Y118504D02*
X593701Y118110D01*
X359055Y118110D02*
X303543Y173622D01*
X359055Y118110D02*
X593701Y118110D01*
X850394Y118110D01*
M02*
