G04 EAGLE Gerber X2 export*
%TF.Part,Single*%
%TF.FileFunction,Copper,L1,Top,Mixed*%
%TF.FilePolarity,Positive*%
%TF.GenerationSoftware,Autodesk,EAGLE,9.6.2*%
%TF.CreationDate,2023-04-05T08:52:26Z*%
G75*
%MOIN*%
%FSLAX36Y36*%
%LPD*%
%INTop Copper Layer*%
%AMOC8*
5,1,8,0,0,1.08239X$1,22.5*%
G01*
%ADD10P,0.067108X8X112.500000*%
%ADD11C,0.062000*%
%ADD12P,0.056284X8X202.500000*%
%ADD13P,0.056284X8X22.500000*%
%ADD14C,0.060000*%
%ADD15C,0.170000*%
%ADD16P,0.064943X8X22.500000*%
%ADD17P,0.071438X8X202.500000*%
%ADD18P,0.071438X8X22.500000*%
%ADD19P,0.056284X8X292.500000*%
%ADD20C,0.074000*%
%ADD21C,0.064000*%
%ADD22C,0.065000*%


D10*
X594094Y218504D03*
D11*
X594094Y118504D03*
D10*
X530315Y470472D03*
D11*
X530315Y370472D03*
D12*
X1493701Y1632677D03*
X1393701Y1632677D03*
X1500000Y1829528D03*
X1400000Y1829528D03*
D13*
X1140945Y926378D03*
X1240945Y926378D03*
D14*
X333543Y173622D02*
X273543Y173622D01*
X273543Y273622D02*
X333543Y273622D01*
X333543Y373622D02*
X273543Y373622D01*
D15*
X1182283Y223622D03*
X1418504Y223622D03*
X1300394Y408661D03*
D16*
X145276Y1427559D03*
X145276Y1327559D03*
X145276Y1227559D03*
X145276Y1127559D03*
X145276Y1027559D03*
X145276Y927559D03*
D14*
X151496Y2246850D02*
X211496Y2246850D01*
X211496Y2146850D02*
X151496Y2146850D01*
X151496Y2046850D02*
X211496Y2046850D01*
X211496Y1946850D02*
X151496Y1946850D01*
X151496Y1846850D02*
X211496Y1846850D01*
X1585748Y1934646D02*
X1645748Y1934646D01*
X1645748Y2034646D02*
X1585748Y2034646D01*
X1585748Y2134646D02*
X1645748Y2134646D01*
X1645748Y2234646D02*
X1585748Y2234646D01*
X1599528Y704724D02*
X1659528Y704724D01*
X1659528Y804724D02*
X1599528Y804724D01*
X1599528Y904724D02*
X1659528Y904724D01*
X1659528Y1004724D02*
X1599528Y1004724D01*
X1599528Y1104724D02*
X1659528Y1104724D01*
X1659528Y1204724D02*
X1599528Y1204724D01*
X1599528Y1304724D02*
X1659528Y1304724D01*
X1659528Y1404724D02*
X1599528Y1404724D01*
X1599528Y1504724D02*
X1659528Y1504724D01*
X1659528Y1604724D02*
X1599528Y1604724D01*
X1409528Y639764D02*
X1349528Y639764D01*
X1349528Y739764D02*
X1409528Y739764D01*
X1409528Y839764D02*
X1349528Y839764D01*
D17*
X595669Y1617717D03*
X495669Y1617717D03*
D18*
X282283Y744488D03*
X382283Y744488D03*
D13*
X291732Y1773228D03*
X591732Y1773228D03*
D19*
X1182677Y856299D03*
X1182677Y556299D03*
D13*
X279134Y592126D03*
X579134Y592126D03*
D20*
X963039Y590134D03*
X707039Y590134D03*
X963039Y768134D03*
X707039Y768134D03*
D21*
X1021654Y924016D03*
X1021654Y1024016D03*
X1021654Y1124016D03*
X1021654Y1224016D03*
X1021654Y1324016D03*
X1021654Y1424016D03*
X1021654Y1524016D03*
X1021654Y1624016D03*
X1021654Y1724016D03*
X1021654Y1824016D03*
X1021654Y1924016D03*
X1021654Y2024016D03*
X1021654Y2124016D03*
X1021654Y2224016D03*
X721654Y2224016D03*
X721654Y2124016D03*
X721654Y2024016D03*
X721654Y1924016D03*
X721654Y1824016D03*
X721654Y1724016D03*
X721654Y1624016D03*
X721654Y1524016D03*
X721654Y1424016D03*
X721654Y1324016D03*
X721654Y1224016D03*
X721654Y1124016D03*
X721654Y1024016D03*
X721654Y924016D03*
D22*
X1230315Y1617717D03*
X1230315Y1817717D03*
M02*
