M48
;GenerationSoftware,Autodesk,EAGLE,9.6.2*%
;CreationDate,2023-04-05T08:52:26Z*%
FMAT,2
ICI,OFF
INCH,TZ,00.0000
T7C0.0142
T6C0.0161
T5C0.0173
T4C0.0276
T3C0.0320
T2C0.0400
T1C0.1180
%
G90
M72
T1
X13004Y4087
X11823Y2236
X14185Y2236
T2
X9630Y7681
X7070Y5901
X9630Y5901
X16295Y9047
X16295Y10047
X16295Y11047
X16295Y12047
X16295Y13047
X16295Y14047
X16295Y15047
X13795Y7398
X16295Y16047
X13795Y6398
X3035Y1736
X3035Y2736
X3035Y3736
X1453Y12276
X1453Y14276
X1453Y13276
X13795Y8398
X1453Y11276
X1453Y10276
X1453Y9276
X1815Y22469
X1815Y21469
X1815Y20469
X1815Y19469
X1815Y18469
X16157Y19346
X16157Y20346
X16157Y21346
X16157Y22346
X16295Y7047
X16295Y8047
X7070Y7681
T3
X5941Y1185
X5303Y4705
X5303Y3705
X14937Y16327
X13937Y16327
X15000Y18295
X11409Y9264
X12409Y9264
X14000Y18295
X5957Y16177
X4957Y16177
X2823Y7445
X3823Y7445
X2917Y17732
X5917Y17732
X11827Y8563
X11827Y5563
X2791Y5921
X5791Y5921
X5941Y2185
X10217Y9240
X10217Y10240
X10217Y11240
X10217Y12240
X10217Y13240
X10217Y14240
X10217Y15240
X10217Y16240
X10217Y17240
X10217Y18240
X10217Y19240
X10217Y20240
X10217Y21240
X10217Y22240
X7217Y22240
X7217Y21240
X7217Y20240
X7217Y19240
X7217Y18240
X7217Y17240
X7217Y16240
X7217Y15240
X7217Y14240
X7217Y13240
X7217Y12240
X7217Y11240
X7217Y10240
X7217Y9240
T4
X12303Y16177
X12303Y18177
T5
X1575Y5906
T6
X1575Y16142
T7
X16142Y17717
X16142Y5512
M30