%TF.GenerationSoftware,KiCad,Pcbnew,7.0.2*%
%TF.CreationDate,2023-04-27T00:23:47+05:30*%
%TF.ProjectId,stm32_pcb_design,73746d33-325f-4706-9362-5f6465736967,rev?*%
%TF.SameCoordinates,Original*%
%TF.FileFunction,Copper,L1,Top*%
%TF.FilePolarity,Positive*%
%FSLAX46Y46*%
G04 Gerber Fmt 4.6, Leading zero omitted, Abs format (unit mm)*
G04 Created by KiCad (PCBNEW 7.0.2) date 2023-04-27 00:23:47*
%MOMM*%
%LPD*%
G01*
G04 APERTURE LIST*
G04 Aperture macros list*
%AMRoundRect*
0 Rectangle with rounded corners*
0 $1 Rounding radius*
0 $2 $3 $4 $5 $6 $7 $8 $9 X,Y pos of 4 corners*
0 Add a 4 corners polygon primitive as box body*
4,1,4,$2,$3,$4,$5,$6,$7,$8,$9,$2,$3,0*
0 Add four circle primitives for the rounded corners*
1,1,$1+$1,$2,$3*
1,1,$1+$1,$4,$5*
1,1,$1+$1,$6,$7*
1,1,$1+$1,$8,$9*
0 Add four rect primitives between the rounded corners*
20,1,$1+$1,$2,$3,$4,$5,0*
20,1,$1+$1,$4,$5,$6,$7,0*
20,1,$1+$1,$6,$7,$8,$9,0*
20,1,$1+$1,$8,$9,$2,$3,0*%
G04 Aperture macros list end*
%TA.AperFunction,ComponentPad*%
%ADD10C,2.000000*%
%TD*%
%TA.AperFunction,SMDPad,CuDef*%
%ADD11RoundRect,0.140000X-0.140000X-0.170000X0.140000X-0.170000X0.140000X0.170000X-0.140000X0.170000X0*%
%TD*%
%TA.AperFunction,SMDPad,CuDef*%
%ADD12RoundRect,0.140000X-0.170000X0.140000X-0.170000X-0.140000X0.170000X-0.140000X0.170000X0.140000X0*%
%TD*%
%TA.AperFunction,SMDPad,CuDef*%
%ADD13RoundRect,0.140000X0.140000X0.170000X-0.140000X0.170000X-0.140000X-0.170000X0.140000X-0.170000X0*%
%TD*%
%TA.AperFunction,SMDPad,CuDef*%
%ADD14R,1.200000X1.400000*%
%TD*%
%TA.AperFunction,SMDPad,CuDef*%
%ADD15R,1.500000X2.000000*%
%TD*%
%TA.AperFunction,SMDPad,CuDef*%
%ADD16R,3.800000X2.000000*%
%TD*%
%TA.AperFunction,SMDPad,CuDef*%
%ADD17RoundRect,0.075000X-0.662500X-0.075000X0.662500X-0.075000X0.662500X0.075000X-0.662500X0.075000X0*%
%TD*%
%TA.AperFunction,SMDPad,CuDef*%
%ADD18RoundRect,0.075000X-0.075000X-0.662500X0.075000X-0.662500X0.075000X0.662500X-0.075000X0.662500X0*%
%TD*%
%TA.AperFunction,SMDPad,CuDef*%
%ADD19RoundRect,0.135000X-0.135000X-0.185000X0.135000X-0.185000X0.135000X0.185000X-0.135000X0.185000X0*%
%TD*%
%TA.AperFunction,SMDPad,CuDef*%
%ADD20RoundRect,0.135000X0.135000X0.185000X-0.135000X0.185000X-0.135000X-0.185000X0.135000X-0.185000X0*%
%TD*%
%TA.AperFunction,SMDPad,CuDef*%
%ADD21RoundRect,0.135000X0.185000X-0.135000X0.185000X0.135000X-0.185000X0.135000X-0.185000X-0.135000X0*%
%TD*%
%TA.AperFunction,SMDPad,CuDef*%
%ADD22RoundRect,0.135000X-0.185000X0.135000X-0.185000X-0.135000X0.185000X-0.135000X0.185000X0.135000X0*%
%TD*%
%TA.AperFunction,ComponentPad*%
%ADD23R,1.350000X1.350000*%
%TD*%
%TA.AperFunction,ComponentPad*%
%ADD24O,1.350000X1.350000*%
%TD*%
%TA.AperFunction,ComponentPad*%
%ADD25O,1.800000X1.150000*%
%TD*%
%TA.AperFunction,ComponentPad*%
%ADD26O,2.000000X1.450000*%
%TD*%
%TA.AperFunction,SMDPad,CuDef*%
%ADD27R,1.300000X0.450000*%
%TD*%
%TA.AperFunction,SMDPad,CuDef*%
%ADD28RoundRect,0.218750X-0.256250X0.218750X-0.256250X-0.218750X0.256250X-0.218750X0.256250X0.218750X0*%
%TD*%
%TA.AperFunction,SMDPad,CuDef*%
%ADD29RoundRect,0.140000X0.170000X-0.140000X0.170000X0.140000X-0.170000X0.140000X-0.170000X-0.140000X0*%
%TD*%
%TA.AperFunction,ViaPad*%
%ADD30C,0.700000*%
%TD*%
%TA.AperFunction,Conductor*%
%ADD31C,0.500000*%
%TD*%
%TA.AperFunction,Conductor*%
%ADD32C,0.300000*%
%TD*%
%TA.AperFunction,Conductor*%
%ADD33C,0.200000*%
%TD*%
G04 APERTURE END LIST*
D10*
%TO.P,SW1,1,A*%
%TO.N,GND*%
X121884000Y-90016400D03*
X121884000Y-83516400D03*
%TO.P,SW1,2,B*%
%TO.N,/SW_BOOTO*%
X117384000Y-90016400D03*
X117384000Y-83516400D03*
%TD*%
D11*
%TO.P,C7,1*%
%TO.N,+3.3V*%
X132999600Y-84226400D03*
%TO.P,C7,2*%
%TO.N,GND*%
X133959600Y-84226400D03*
%TD*%
D12*
%TO.P,C6,1*%
%TO.N,+3.3V*%
X142300000Y-88020000D03*
%TO.P,C6,2*%
%TO.N,GND*%
X142300000Y-88980000D03*
%TD*%
D13*
%TO.P,C5,1*%
%TO.N,+3.3V*%
X139062400Y-97028000D03*
%TO.P,C5,2*%
%TO.N,GND*%
X138102400Y-97028000D03*
%TD*%
D14*
%TO.P,Y1,4,4*%
%TO.N,GND*%
X127000000Y-89500000D03*
%TO.P,Y1,3,3*%
%TO.N,/HSE_OUT*%
X127000000Y-91700000D03*
%TO.P,Y1,2,2*%
%TO.N,GND*%
X125300000Y-91700000D03*
%TO.P,Y1,1,1*%
%TO.N,/HSE_IN*%
X125300000Y-89500000D03*
%TD*%
D15*
%TO.P,U2,1,GND*%
%TO.N,GND*%
X146700000Y-96050000D03*
D16*
%TO.P,U2,2,VO*%
%TO.N,+3.3V*%
X144400000Y-102350000D03*
D15*
X144400000Y-96050000D03*
%TO.P,U2,3,VI*%
%TO.N,VBUS*%
X142100000Y-96050000D03*
%TD*%
D17*
%TO.P,U1,1,VBAT*%
%TO.N,+3.3V*%
X132000000Y-88000000D03*
%TO.P,U1,2,PC13*%
%TO.N,unconnected-(U1-PC13-Pad2)*%
X132000000Y-88500000D03*
%TO.P,U1,3,PC14*%
%TO.N,unconnected-(U1-PC14-Pad3)*%
X132000000Y-89000000D03*
%TO.P,U1,4,PC15*%
%TO.N,unconnected-(U1-PC15-Pad4)*%
X132000000Y-89500000D03*
%TO.P,U1,5,PD0*%
%TO.N,/HSE_IN*%
X132000000Y-90000000D03*
%TO.P,U1,6,PD1*%
%TO.N,/HSE_OUT*%
X132000000Y-90500000D03*
%TO.P,U1,7,NRST*%
%TO.N,/NRST*%
X132000000Y-91000000D03*
%TO.P,U1,8,VSSA*%
%TO.N,GND*%
X132000000Y-91500000D03*
%TO.P,U1,9,VDDA*%
%TO.N,+3.3VA*%
X132000000Y-92000000D03*
%TO.P,U1,10,PA0*%
%TO.N,unconnected-(U1-PA0-Pad10)*%
X132000000Y-92500000D03*
%TO.P,U1,11,PA1*%
%TO.N,unconnected-(U1-PA1-Pad11)*%
X132000000Y-93000000D03*
%TO.P,U1,12,PA2*%
%TO.N,unconnected-(U1-PA2-Pad12)*%
X132000000Y-93500000D03*
D18*
%TO.P,U1,13,PA3*%
%TO.N,unconnected-(U1-PA3-Pad13)*%
X133412500Y-94912500D03*
%TO.P,U1,14,PA4*%
%TO.N,unconnected-(U1-PA4-Pad14)*%
X133912500Y-94912500D03*
%TO.P,U1,15,PA5*%
%TO.N,unconnected-(U1-PA5-Pad15)*%
X134412500Y-94912500D03*
%TO.P,U1,16,PA6*%
%TO.N,unconnected-(U1-PA6-Pad16)*%
X134912500Y-94912500D03*
%TO.P,U1,17,PA7*%
%TO.N,unconnected-(U1-PA7-Pad17)*%
X135412500Y-94912500D03*
%TO.P,U1,18,PB0*%
%TO.N,unconnected-(U1-PB0-Pad18)*%
X135912500Y-94912500D03*
%TO.P,U1,19,PB1*%
%TO.N,unconnected-(U1-PB1-Pad19)*%
X136412500Y-94912500D03*
%TO.P,U1,20,PB2*%
%TO.N,unconnected-(U1-PB2-Pad20)*%
X136912500Y-94912500D03*
%TO.P,U1,21,PB10*%
%TO.N,/I2C_SCL*%
X137412500Y-94912500D03*
%TO.P,U1,22,PB11*%
%TO.N,/I2C_SDA*%
X137912500Y-94912500D03*
%TO.P,U1,23,VSS*%
%TO.N,GND*%
X138412500Y-94912500D03*
%TO.P,U1,24,VDD*%
%TO.N,+3.3V*%
X138912500Y-94912500D03*
D17*
%TO.P,U1,25,PB12*%
%TO.N,unconnected-(U1-PB12-Pad25)*%
X140325000Y-93500000D03*
%TO.P,U1,26,PB13*%
%TO.N,unconnected-(U1-PB13-Pad26)*%
X140325000Y-93000000D03*
%TO.P,U1,27,PB14*%
%TO.N,unconnected-(U1-PB14-Pad27)*%
X140325000Y-92500000D03*
%TO.P,U1,28,PB15*%
%TO.N,unconnected-(U1-PB15-Pad28)*%
X140325000Y-92000000D03*
%TO.P,U1,29,PA8*%
%TO.N,unconnected-(U1-PA8-Pad29)*%
X140325000Y-91500000D03*
%TO.P,U1,30,PA9*%
%TO.N,unconnected-(U1-PA9-Pad30)*%
X140325000Y-91000000D03*
%TO.P,U1,31,PA10*%
%TO.N,unconnected-(U1-PA10-Pad31)*%
X140325000Y-90500000D03*
%TO.P,U1,32,PA11*%
%TO.N,/USB_D-*%
X140325000Y-90000000D03*
%TO.P,U1,33,PA12*%
%TO.N,/USB_D+*%
X140325000Y-89500000D03*
%TO.P,U1,34,PA13*%
%TO.N,/SWDIO*%
X140325000Y-89000000D03*
%TO.P,U1,35,VSS*%
%TO.N,GND*%
X140325000Y-88500000D03*
%TO.P,U1,36,VDD*%
%TO.N,+3.3V*%
X140325000Y-88000000D03*
D18*
%TO.P,U1,37,PA14*%
%TO.N,/SWCLK*%
X138912500Y-86587500D03*
%TO.P,U1,38,PA15*%
%TO.N,unconnected-(U1-PA15-Pad38)*%
X138412500Y-86587500D03*
%TO.P,U1,39,PB3*%
%TO.N,unconnected-(U1-PB3-Pad39)*%
X137912500Y-86587500D03*
%TO.P,U1,40,PB4*%
%TO.N,unconnected-(U1-PB4-Pad40)*%
X137412500Y-86587500D03*
%TO.P,U1,41,PB5*%
%TO.N,unconnected-(U1-PB5-Pad41)*%
X136912500Y-86587500D03*
%TO.P,U1,42,PB6*%
%TO.N,/USART1_TX*%
X136412500Y-86587500D03*
%TO.P,U1,43,PB7*%
%TO.N,/USART1_RX*%
X135912500Y-86587500D03*
%TO.P,U1,44,BOOT0*%
%TO.N,/BOOTO*%
X135412500Y-86587500D03*
%TO.P,U1,45,PB8*%
%TO.N,unconnected-(U1-PB8-Pad45)*%
X134912500Y-86587500D03*
%TO.P,U1,46,PB9*%
%TO.N,unconnected-(U1-PB9-Pad46)*%
X134412500Y-86587500D03*
%TO.P,U1,47,VSS*%
%TO.N,GND*%
X133912500Y-86587500D03*
%TO.P,U1,48,VDD*%
%TO.N,+3.3V*%
X133412500Y-86587500D03*
%TD*%
D19*
%TO.P,R5,1*%
%TO.N,+3.3V*%
X135290000Y-99600000D03*
%TO.P,R5,2*%
%TO.N,/I2C_SDA*%
X136310000Y-99600000D03*
%TD*%
D20*
%TO.P,R4,1*%
%TO.N,+3.3V*%
X134010000Y-99600000D03*
%TO.P,R4,2*%
%TO.N,/I2C_SCL*%
X132990000Y-99600000D03*
%TD*%
D21*
%TO.P,R1,2*%
%TO.N,GND*%
X150900000Y-95670000D03*
%TO.P,R1,1*%
%TO.N,/PWR_LED_K*%
X150900000Y-96690000D03*
%TD*%
D22*
%TO.P,R3,1*%
%TO.N,+3.3V*%
X145084800Y-88442800D03*
%TO.P,R3,2*%
%TO.N,/USB_D+*%
X145084800Y-89462800D03*
%TD*%
D19*
%TO.P,R2,2*%
%TO.N,/BOOTO*%
X127461200Y-83464400D03*
%TO.P,R2,1*%
%TO.N,/SW_BOOTO*%
X126441200Y-83464400D03*
%TD*%
D23*
%TO.P,J4,1,Pin_1*%
%TO.N,+3.3V*%
X132200000Y-102100000D03*
D24*
%TO.P,J4,2,Pin_2*%
%TO.N,/I2C_SCL*%
X134200000Y-102100000D03*
%TO.P,J4,3,Pin_3*%
%TO.N,/I2C_SDA*%
X136200000Y-102100000D03*
%TO.P,J4,4,Pin_4*%
%TO.N,GND*%
X138200000Y-102100000D03*
%TD*%
D23*
%TO.P,J3,1,Pin_1*%
%TO.N,+3.3V*%
X137300000Y-78200000D03*
D24*
%TO.P,J3,2,Pin_2*%
%TO.N,/USART1_TX*%
X135300000Y-78200000D03*
%TO.P,J3,3,Pin_3*%
%TO.N,/USART1_RX*%
X133300000Y-78200000D03*
%TO.P,J3,4,Pin_4*%
%TO.N,GND*%
X131300000Y-78200000D03*
%TD*%
D23*
%TO.P,J2,1,Pin_1*%
%TO.N,+3.3V*%
X147700000Y-78200000D03*
D24*
%TO.P,J2,2,Pin_2*%
%TO.N,/SWDIO*%
X145700000Y-78200000D03*
%TO.P,J2,3,Pin_3*%
%TO.N,/SWCLK*%
X143700000Y-78200000D03*
%TO.P,J2,4,Pin_4*%
%TO.N,GND*%
X141700000Y-78200000D03*
%TD*%
D25*
%TO.P,J1,6,Shield*%
%TO.N,unconnected-(J1-Shield-Pad6)*%
X153938600Y-85477600D03*
X153938600Y-93227600D03*
D26*
X150138600Y-85627600D03*
X150138600Y-93077600D03*
D27*
%TO.P,J1,5,GND*%
%TO.N,GND*%
X150088600Y-88052600D03*
%TO.P,J1,4,ID*%
%TO.N,unconnected-(J1-ID-Pad4)*%
X150088600Y-88702600D03*
%TO.P,J1,3,D+*%
%TO.N,/USB_D+*%
X150088600Y-89352600D03*
%TO.P,J1,2,D-*%
%TO.N,/USB_D-*%
X150088600Y-90002600D03*
%TO.P,J1,1,VBUS*%
%TO.N,VBUS*%
X150088600Y-90652600D03*
%TD*%
D28*
%TO.P,FB1,1*%
%TO.N,+3.3VA*%
X131400000Y-94912500D03*
%TO.P,FB1,2*%
%TO.N,+3.3V*%
X131400000Y-96487500D03*
%TD*%
%TO.P,D1,2,A*%
%TO.N,+3.3V*%
X150900000Y-99667500D03*
%TO.P,D1,1,K*%
%TO.N,/PWR_LED_K*%
X150900000Y-98092500D03*
%TD*%
D29*
%TO.P,C2,1*%
%TO.N,+3.3V*%
X148640800Y-99692400D03*
%TO.P,C2,2*%
%TO.N,GND*%
X148640800Y-98732400D03*
%TD*%
D11*
%TO.P,C1,1*%
%TO.N,VBUS*%
X142826800Y-94107000D03*
%TO.P,C1,2*%
%TO.N,GND*%
X143786800Y-94107000D03*
%TD*%
D12*
%TO.P,C13,1*%
%TO.N,/HSE_OUT*%
X128600000Y-91220000D03*
%TO.P,C13,2*%
%TO.N,GND*%
X128600000Y-92180000D03*
%TD*%
D29*
%TO.P,C12,2*%
%TO.N,GND*%
X128500000Y-88920000D03*
%TO.P,C12,1*%
%TO.N,/HSE_IN*%
X128500000Y-89880000D03*
%TD*%
D11*
%TO.P,C11,1*%
%TO.N,/NRST*%
X133320000Y-96800000D03*
%TO.P,C11,2*%
%TO.N,GND*%
X134280000Y-96800000D03*
%TD*%
D13*
%TO.P,C10,2*%
%TO.N,GND*%
X128270000Y-96621600D03*
%TO.P,C10,1*%
%TO.N,+3.3V*%
X129230000Y-96621600D03*
%TD*%
%TO.P,C9,1*%
%TO.N,+3.3VA*%
X129512000Y-95148400D03*
%TO.P,C9,2*%
%TO.N,GND*%
X128552000Y-95148400D03*
%TD*%
D29*
%TO.P,C8,1*%
%TO.N,+3.3VA*%
X130100000Y-92300000D03*
%TO.P,C8,2*%
%TO.N,GND*%
X130100000Y-91340000D03*
%TD*%
D11*
%TO.P,C3,1*%
%TO.N,+3.3V*%
X132900000Y-81800000D03*
%TO.P,C3,2*%
%TO.N,GND*%
X133860000Y-81800000D03*
%TD*%
D29*
%TO.P,C4,1*%
%TO.N,+3.3V*%
X129641600Y-88008400D03*
%TO.P,C4,2*%
%TO.N,GND*%
X129641600Y-87048400D03*
%TD*%
D30*
%TO.N,GND*%
X133959600Y-87934800D03*
X128701800Y-93243400D03*
X125425200Y-93040200D03*
X126974600Y-88087200D03*
X129362200Y-88925400D03*
X130606800Y-86842600D03*
%TO.N,+3.3V*%
X132257800Y-100507800D03*
X134086600Y-100507800D03*
X135812834Y-98834159D03*
X137972800Y-98729800D03*
%TO.N,GND*%
X143637000Y-88620600D03*
X147802600Y-88188800D03*
X149656800Y-98907600D03*
X152450800Y-95504000D03*
X146812000Y-93903800D03*
X146075400Y-94081600D03*
X133705600Y-91490800D03*
X128320800Y-97840800D03*
X128524000Y-94234000D03*
X135229600Y-96824800D03*
X138430000Y-93675200D03*
%TD*%
D31*
%TO.N,+3.3V*%
X145983200Y-102350000D02*
X144400000Y-102350000D01*
X148640800Y-99692400D02*
X145983200Y-102350000D01*
X144400000Y-96050000D02*
X144400000Y-102350000D01*
D32*
%TO.N,/SW_BOOTO*%
X117384000Y-83516400D02*
X117384000Y-90016400D01*
D31*
%TO.N,+3.3V*%
X129230000Y-98673800D02*
X129230000Y-96621600D01*
X131064000Y-100507800D02*
X129230000Y-98673800D01*
X132257800Y-100507800D02*
X131064000Y-100507800D01*
X132257800Y-100507800D02*
X132257800Y-102042200D01*
X128705200Y-85994800D02*
X130375100Y-84324900D01*
X124215600Y-85994800D02*
X128705200Y-85994800D01*
X132257800Y-102042200D02*
X132200000Y-102100000D01*
X123469400Y-86741000D02*
X124215600Y-85994800D01*
X123469400Y-99872800D02*
X123469400Y-86741000D01*
X132257800Y-100507800D02*
X132207000Y-100558600D01*
X132207000Y-100558600D02*
X124155200Y-100558600D01*
X124155200Y-100558600D02*
X123469400Y-99872800D01*
D33*
%TO.N,/USB_D+*%
X149310800Y-89352600D02*
X150088600Y-89352600D01*
X149138400Y-89525000D02*
X149310800Y-89352600D01*
D32*
%TO.N,GND*%
X146050000Y-94107000D02*
X146075400Y-94081600D01*
X143786800Y-94107000D02*
X146050000Y-94107000D01*
D31*
%TO.N,+3.3V*%
X152425400Y-99237800D02*
X155288600Y-96374600D01*
X155288600Y-83457400D02*
X152641300Y-80810100D01*
X152425400Y-100380800D02*
X152425400Y-99237800D01*
X150266400Y-102539800D02*
X152425400Y-100380800D01*
X155288600Y-96374600D02*
X155288600Y-83457400D01*
X149936200Y-102209600D02*
X150266400Y-102539800D01*
X149936200Y-100584000D02*
X149936200Y-102209600D01*
X147523200Y-83566000D02*
X147523200Y-86004400D01*
X149936200Y-81153000D02*
X147523200Y-83566000D01*
X147523200Y-86004400D02*
X145084800Y-88442800D01*
X152298400Y-81153000D02*
X149936200Y-81153000D01*
X152641300Y-80810100D02*
X152298400Y-81153000D01*
X143094600Y-88020000D02*
X142300000Y-88020000D01*
X143294000Y-87820600D02*
X143094600Y-88020000D01*
X145084800Y-88442800D02*
X144462600Y-87820600D01*
X144462600Y-87820600D02*
X143294000Y-87820600D01*
X152641300Y-80810100D02*
X150031200Y-78200000D01*
X138425000Y-77075000D02*
X137300000Y-78200000D01*
X146575000Y-77075000D02*
X138425000Y-77075000D01*
X147700000Y-78200000D02*
X146575000Y-77075000D01*
X150031200Y-78200000D02*
X147700000Y-78200000D01*
X149936200Y-99707600D02*
X149936200Y-100584000D01*
X149936200Y-100584000D02*
X149936200Y-103809800D01*
D32*
%TO.N,/PWR_LED_K*%
X150900000Y-98092500D02*
X150900000Y-96690000D01*
%TO.N,GND*%
X133912500Y-87887700D02*
X133959600Y-87934800D01*
X133912500Y-86587500D02*
X133912500Y-87887700D01*
D31*
%TO.N,+3.3V*%
X130375100Y-84324900D02*
X132900000Y-81800000D01*
X132000000Y-85949800D02*
X132000000Y-87900000D01*
X130375100Y-84324900D02*
X132000000Y-85949800D01*
D32*
%TO.N,+3.3VA*%
X131164100Y-95148400D02*
X131400000Y-94912500D01*
X129512000Y-95148400D02*
X131164100Y-95148400D01*
X130100000Y-94560400D02*
X129512000Y-95148400D01*
X130100000Y-92300000D02*
X130100000Y-94560400D01*
D31*
%TO.N,+3.3V*%
X131265900Y-96621600D02*
X131400000Y-96487500D01*
X129230000Y-96621600D02*
X131265900Y-96621600D01*
D32*
%TO.N,GND*%
X130401000Y-87048400D02*
X130606800Y-86842600D01*
X129641600Y-87048400D02*
X130401000Y-87048400D01*
X127000000Y-88112600D02*
X126974600Y-88087200D01*
X127000000Y-89500000D02*
X127000000Y-88112600D01*
X129356800Y-88920000D02*
X129362200Y-88925400D01*
X128500000Y-88920000D02*
X129356800Y-88920000D01*
X125300000Y-91700000D02*
X125300000Y-92915000D01*
X125300000Y-92915000D02*
X125425200Y-93040200D01*
X128600000Y-92180000D02*
X128600000Y-93141600D01*
X128600000Y-93141600D02*
X128701800Y-93243400D01*
D31*
%TO.N,+3.3V*%
X134010000Y-99600000D02*
X134010000Y-100431200D01*
X134010000Y-100431200D02*
X134086600Y-100507800D01*
X135290000Y-99600000D02*
X134010000Y-99600000D01*
X135290000Y-99356993D02*
X135290000Y-99600000D01*
X135812834Y-98834159D02*
X135290000Y-99356993D01*
X138023600Y-98679000D02*
X137972800Y-98729800D01*
X140335000Y-103784400D02*
X140335000Y-98679000D01*
X140335000Y-98679000D02*
X138023600Y-98679000D01*
X140335000Y-98679000D02*
X140335000Y-98300600D01*
D32*
%TO.N,/I2C_SCL*%
X137412500Y-95839794D02*
X137412500Y-94912500D01*
X136507600Y-96744694D02*
X137412500Y-95839794D01*
X136507600Y-96918400D02*
X136507600Y-96744694D01*
X135901200Y-97524800D02*
X136507600Y-96918400D01*
X132990000Y-99600000D02*
X135065200Y-97524800D01*
X135065200Y-97524800D02*
X135901200Y-97524800D01*
D31*
%TO.N,VBUS*%
X142100000Y-94833800D02*
X142826800Y-94107000D01*
X142100000Y-96050000D02*
X142100000Y-94833800D01*
X145186800Y-90677600D02*
X150088600Y-90677600D01*
X142826800Y-93037600D02*
X145186800Y-90677600D01*
X142826800Y-94107000D02*
X142826800Y-93037600D01*
D32*
%TO.N,GND*%
X142300000Y-88980000D02*
X143277600Y-88980000D01*
X143277600Y-88980000D02*
X143637000Y-88620600D01*
D31*
%TO.N,+3.3V*%
X140335000Y-98300600D02*
X139062400Y-97028000D01*
X140417120Y-103866520D02*
X140335000Y-103784400D01*
X149312103Y-103875315D02*
X140417120Y-103866520D01*
X149870685Y-103875315D02*
X149312103Y-103875315D01*
X149936200Y-103809800D02*
X149870685Y-103875315D01*
X149936200Y-99707600D02*
X150859900Y-99707600D01*
X148656000Y-99707600D02*
X149936200Y-99707600D01*
D32*
%TO.N,GND*%
X147938800Y-88052600D02*
X147802600Y-88188800D01*
X150088600Y-88052600D02*
X147938800Y-88052600D01*
D31*
%TO.N,+3.3V*%
X150859900Y-99707600D02*
X150900000Y-99667500D01*
X148640800Y-99692400D02*
X148656000Y-99707600D01*
D32*
%TO.N,GND*%
X146700000Y-94015800D02*
X146700000Y-96050000D01*
X146812000Y-93903800D02*
X146700000Y-94015800D01*
X149481600Y-98732400D02*
X149656800Y-98907600D01*
X148640800Y-98732400D02*
X149481600Y-98732400D01*
X152284800Y-95670000D02*
X152450800Y-95504000D01*
X150900000Y-95670000D02*
X152284800Y-95670000D01*
%TO.N,/NRST*%
X133206450Y-91000000D02*
X132000000Y-91000000D01*
X133995550Y-90790800D02*
X133415650Y-90790800D01*
X133415650Y-90790800D02*
X133206450Y-91000000D01*
X134416800Y-91212050D02*
X133995550Y-90790800D01*
X134416800Y-92569659D02*
X134416800Y-91212050D01*
X132588000Y-94398459D02*
X134416800Y-92569659D01*
X133320000Y-96800000D02*
X133320000Y-96693200D01*
X133320000Y-96693200D02*
X132588000Y-95961200D01*
X132588000Y-95961200D02*
X132588000Y-94398459D01*
%TO.N,GND*%
X133696400Y-91500000D02*
X133705600Y-91490800D01*
X132000000Y-91500000D02*
X133696400Y-91500000D01*
D31*
X128270000Y-97790000D02*
X128320800Y-97840800D01*
X128270000Y-96621600D02*
X128270000Y-97790000D01*
X128524000Y-94792800D02*
X128524000Y-94234000D01*
X135204800Y-96800000D02*
X135229600Y-96824800D01*
X134280000Y-96800000D02*
X135204800Y-96800000D01*
D32*
X138412500Y-93692700D02*
X138430000Y-93675200D01*
X138412500Y-94912500D02*
X138412500Y-93692700D01*
%TO.N,/I2C_SCL*%
X132990000Y-100890000D02*
X134200000Y-102100000D01*
X132990000Y-99600000D02*
X132990000Y-100890000D01*
%TO.N,/I2C_SDA*%
X136310000Y-101990000D02*
X136200000Y-102100000D01*
X136310000Y-99600000D02*
X136310000Y-101990000D01*
X137007600Y-98902400D02*
X136310000Y-99600000D01*
X137007600Y-96951800D02*
X137007600Y-98902400D01*
X137912500Y-96046900D02*
X137007600Y-96951800D01*
X137912500Y-94912500D02*
X137912500Y-96046900D01*
%TO.N,/SW_BOOTO*%
X119262400Y-85394800D02*
X117384000Y-83516400D01*
X124510800Y-85394800D02*
X119262400Y-85394800D01*
X126441200Y-83464400D02*
X124510800Y-85394800D01*
%TO.N,+3.3V*%
X133045200Y-81945200D02*
X132900000Y-81800000D01*
X133412500Y-85863700D02*
X133045200Y-85496400D01*
X133045200Y-85496400D02*
X133045200Y-81945200D01*
X133412500Y-86587500D02*
X133412500Y-85863700D01*
%TO.N,GND*%
X133912500Y-81852500D02*
X133860000Y-81800000D01*
X133912500Y-86587500D02*
X133912500Y-81852500D01*
%TO.N,/BOOTO*%
X127812800Y-83464400D02*
X127461200Y-83464400D01*
X130403600Y-80873600D02*
X127812800Y-83464400D01*
X134213600Y-80873600D02*
X130403600Y-80873600D01*
X134636000Y-81296000D02*
X134213600Y-80873600D01*
X134636000Y-83777014D02*
X134636000Y-81296000D01*
X135128000Y-84269014D02*
X134636000Y-83777014D01*
X135128000Y-84531200D02*
X135128000Y-84269014D01*
X135412500Y-84815700D02*
X135128000Y-84531200D01*
X135412500Y-86587500D02*
X135412500Y-84815700D01*
%TO.N,/USART1_RX*%
X135136000Y-83569907D02*
X135912500Y-84346406D01*
X133300000Y-79096400D02*
X135136000Y-80932400D01*
X133300000Y-78200000D02*
X133300000Y-79096400D01*
X135136000Y-80932400D02*
X135136000Y-83569907D01*
X135912500Y-84346406D02*
X135912500Y-86587500D01*
%TO.N,/USART1_TX*%
X135300000Y-80182000D02*
X135300000Y-78200000D01*
X135636000Y-80518000D02*
X135300000Y-80182000D01*
X136412500Y-84139300D02*
X135636000Y-83362800D01*
X136412500Y-86587500D02*
X136412500Y-84139300D01*
X135636000Y-83362800D02*
X135636000Y-80518000D01*
%TO.N,/SWDIO*%
X139005341Y-87833200D02*
X145700000Y-81138541D01*
X145700000Y-81138541D02*
X145700000Y-78200000D01*
X138938000Y-88595200D02*
X138938000Y-87833200D01*
X138938000Y-87833200D02*
X139005341Y-87833200D01*
X140325000Y-89000000D02*
X139342800Y-89000000D01*
X139342800Y-89000000D02*
X138938000Y-88595200D01*
%TO.N,/SWCLK*%
X138912500Y-82987500D02*
X143700000Y-78200000D01*
X138912500Y-86587500D02*
X138912500Y-82987500D01*
%TO.N,/USB_D+*%
X149961600Y-89408000D02*
X150007400Y-89362200D01*
X150049800Y-89362200D02*
X150007400Y-89362200D01*
D33*
X141431251Y-89500000D02*
X140325000Y-89500000D01*
X141491251Y-89560000D02*
X141431251Y-89500000D01*
X142652254Y-89560000D02*
X141491251Y-89560000D01*
X142687254Y-89525000D02*
X142652254Y-89560000D01*
X149138400Y-89525000D02*
X142687254Y-89525000D01*
%TO.N,/USB_D-*%
X149094938Y-90012200D02*
X150049800Y-90012200D01*
X149057738Y-89975000D02*
X149094938Y-90012200D01*
X145507783Y-89975000D02*
X149057738Y-89975000D01*
X145449983Y-90032800D02*
X145507783Y-89975000D01*
X141464051Y-90032800D02*
X145449983Y-90032800D01*
X141431251Y-90000000D02*
X141464051Y-90032800D01*
X140325000Y-90000000D02*
X141431251Y-90000000D01*
D32*
%TO.N,/HSE_IN*%
X125300000Y-89600000D02*
X125300000Y-89500000D01*
X127891600Y-90650000D02*
X126350000Y-90650000D01*
X128066800Y-90627200D02*
X127914400Y-90627200D01*
X127914400Y-90627200D02*
X127891600Y-90650000D01*
X126350000Y-90650000D02*
X125300000Y-89600000D01*
X128500000Y-90194000D02*
X128066800Y-90627200D01*
X128500000Y-89880000D02*
X128500000Y-90194000D01*
%TO.N,/HSE_OUT*%
X128600000Y-91220000D02*
X127480000Y-91220000D01*
X127480000Y-91220000D02*
X127000000Y-91700000D01*
%TO.N,/HSE_IN*%
X128620000Y-90000000D02*
X132000000Y-90000000D01*
X128500000Y-89880000D02*
X128620000Y-90000000D01*
%TO.N,/HSE_OUT*%
X129150400Y-91220000D02*
X128600000Y-91220000D01*
X129870400Y-90500000D02*
X129150400Y-91220000D01*
X129870400Y-90500000D02*
X132000000Y-90500000D01*
X128600000Y-91220000D02*
X128600000Y-91211600D01*
%TO.N,+3.3V*%
X138912500Y-96342100D02*
X138912500Y-94912500D01*
X139180000Y-96609600D02*
X138912500Y-96342100D01*
X139180000Y-96900000D02*
X139180000Y-96609600D01*
%TO.N,GND*%
X138412500Y-96707500D02*
X138220000Y-96900000D01*
X138412500Y-94912500D02*
X138412500Y-96707500D01*
X141643541Y-88980000D02*
X141163541Y-88500000D01*
X142300000Y-88980000D02*
X141643541Y-88980000D01*
X141163541Y-88500000D02*
X140325000Y-88500000D01*
%TO.N,+3.3V*%
X142280000Y-88000000D02*
X140325000Y-88000000D01*
X142300000Y-88020000D02*
X142280000Y-88000000D01*
%TO.N,+3.3VA*%
X130400000Y-92000000D02*
X132000000Y-92000000D01*
X130100000Y-92300000D02*
X130400000Y-92000000D01*
%TO.N,GND*%
X130260000Y-91500000D02*
X130100000Y-91340000D01*
X132000000Y-91500000D02*
X130260000Y-91500000D01*
%TO.N,+3.3V*%
X129650000Y-88000000D02*
X129641600Y-88008400D01*
X132000000Y-88000000D02*
X129650000Y-88000000D01*
%TD*%
M02*
