%TF.GenerationSoftware,KiCad,Pcbnew,7.0.2*%
%TF.CreationDate,2023-04-27T00:23:47+05:30*%
%TF.ProjectId,stm32_pcb_design,73746d33-325f-4706-9362-5f6465736967,rev?*%
%TF.SameCoordinates,Original*%
%TF.FileFunction,Copper,L2,Bot*%
%TF.FilePolarity,Positive*%
%FSLAX46Y46*%
G04 Gerber Fmt 4.6, Leading zero omitted, Abs format (unit mm)*
G04 Created by KiCad (PCBNEW 7.0.2) date 2023-04-27 00:23:47*
%MOMM*%
%LPD*%
G01*
G04 APERTURE LIST*
%TA.AperFunction,ComponentPad*%
%ADD10C,2.000000*%
%TD*%
%TA.AperFunction,ComponentPad*%
%ADD11R,1.350000X1.350000*%
%TD*%
%TA.AperFunction,ComponentPad*%
%ADD12O,1.350000X1.350000*%
%TD*%
%TA.AperFunction,ComponentPad*%
%ADD13O,1.800000X1.150000*%
%TD*%
%TA.AperFunction,ComponentPad*%
%ADD14O,2.000000X1.450000*%
%TD*%
%TA.AperFunction,ViaPad*%
%ADD15C,0.700000*%
%TD*%
%TA.AperFunction,Conductor*%
%ADD16C,0.500000*%
%TD*%
G04 APERTURE END LIST*
D10*
%TO.P,SW1,1,A*%
%TO.N,GND*%
X121884000Y-90016400D03*
X121884000Y-83516400D03*
%TO.P,SW1,2,B*%
%TO.N,/SW_BOOTO*%
X117384000Y-90016400D03*
X117384000Y-83516400D03*
%TD*%
D11*
%TO.P,J4,1,Pin_1*%
%TO.N,+3.3V*%
X132200000Y-102100000D03*
D12*
%TO.P,J4,2,Pin_2*%
%TO.N,/I2C_SCL*%
X134200000Y-102100000D03*
%TO.P,J4,3,Pin_3*%
%TO.N,/I2C_SDA*%
X136200000Y-102100000D03*
%TO.P,J4,4,Pin_4*%
%TO.N,GND*%
X138200000Y-102100000D03*
%TD*%
D11*
%TO.P,J3,1,Pin_1*%
%TO.N,+3.3V*%
X137300000Y-78200000D03*
D12*
%TO.P,J3,2,Pin_2*%
%TO.N,/USART1_TX*%
X135300000Y-78200000D03*
%TO.P,J3,3,Pin_3*%
%TO.N,/USART1_RX*%
X133300000Y-78200000D03*
%TO.P,J3,4,Pin_4*%
%TO.N,GND*%
X131300000Y-78200000D03*
%TD*%
D11*
%TO.P,J2,1,Pin_1*%
%TO.N,+3.3V*%
X147700000Y-78200000D03*
D12*
%TO.P,J2,2,Pin_2*%
%TO.N,/SWDIO*%
X145700000Y-78200000D03*
%TO.P,J2,3,Pin_3*%
%TO.N,/SWCLK*%
X143700000Y-78200000D03*
%TO.P,J2,4,Pin_4*%
%TO.N,GND*%
X141700000Y-78200000D03*
%TD*%
D13*
%TO.P,J1,6,Shield*%
%TO.N,unconnected-(J1-Shield-Pad6)*%
X153938600Y-85477600D03*
X153938600Y-93227600D03*
D14*
X150138600Y-85627600D03*
X150138600Y-93077600D03*
%TD*%
D15*
%TO.N,GND*%
X133959600Y-87934800D03*
X128701800Y-93243400D03*
X125425200Y-93040200D03*
X126974600Y-88087200D03*
X129362200Y-88925400D03*
X130606800Y-86842600D03*
%TO.N,+3.3V*%
X132257800Y-100507800D03*
X134086600Y-100507800D03*
X135812834Y-98834159D03*
X137972800Y-98729800D03*
%TO.N,GND*%
X143637000Y-88620600D03*
X147802600Y-88188800D03*
X149656800Y-98907600D03*
X152450800Y-95504000D03*
X146812000Y-93903800D03*
X146075400Y-94081600D03*
X133705600Y-91490800D03*
X128320800Y-97840800D03*
X128524000Y-94234000D03*
X135229600Y-96824800D03*
X138430000Y-93675200D03*
%TD*%
D16*
%TO.N,+3.3V*%
X132257800Y-100507800D02*
X134086600Y-100507800D01*
X135917193Y-98729800D02*
X135812834Y-98834159D01*
X137972800Y-98729800D02*
X135917193Y-98729800D01*
%TD*%
%TA.AperFunction,Conductor*%
%TO.N,GND*%
G36*
X155317446Y-76274167D02*
G01*
X155355225Y-76280255D01*
X155397615Y-76294054D01*
X155415728Y-76299951D01*
X155643558Y-76375632D01*
X155655348Y-76380231D01*
X155779623Y-76436164D01*
X155947576Y-76515428D01*
X155957389Y-76520614D01*
X156082953Y-76594374D01*
X156086112Y-76596294D01*
X156233671Y-76689050D01*
X156241662Y-76694520D01*
X156361610Y-76783702D01*
X156365708Y-76786884D01*
X156498286Y-76894406D01*
X156504452Y-76899755D01*
X156542851Y-76935351D01*
X156615168Y-77002391D01*
X156619961Y-77007082D01*
X156737960Y-77128979D01*
X156742474Y-77133901D01*
X156841474Y-77247912D01*
X156846633Y-77254266D01*
X156949759Y-77390228D01*
X156952823Y-77394450D01*
X157038070Y-77517245D01*
X157043270Y-77525397D01*
X157097655Y-77618497D01*
X157131148Y-77675833D01*
X157132979Y-77679079D01*
X157202631Y-77806993D01*
X157207528Y-77817040D01*
X157281265Y-77987415D01*
X157333137Y-78113457D01*
X157337346Y-78125384D01*
X157405592Y-78355574D01*
X157419720Y-78404299D01*
X157424624Y-78439049D01*
X157381370Y-102488345D01*
X157372407Y-102534409D01*
X157321363Y-102661270D01*
X157319427Y-102665819D01*
X157254577Y-102810099D01*
X157250506Y-102818326D01*
X157181992Y-102944803D01*
X157178823Y-102950311D01*
X157097102Y-103084288D01*
X157092852Y-103090789D01*
X157010159Y-103209014D01*
X157005509Y-103215237D01*
X156907685Y-103337951D01*
X156903598Y-103342817D01*
X156808292Y-103450550D01*
X156801960Y-103457195D01*
X156688674Y-103567593D01*
X156685066Y-103570971D01*
X156579224Y-103666192D01*
X156571055Y-103672933D01*
X156442244Y-103770285D01*
X156439398Y-103772373D01*
X156326208Y-103852961D01*
X156316106Y-103859441D01*
X156167550Y-103944873D01*
X156052789Y-104008285D01*
X156040732Y-104014119D01*
X155840808Y-104097845D01*
X155782648Y-104121813D01*
X155735283Y-104131165D01*
X117855351Y-104093711D01*
X117818145Y-104087959D01*
X117735014Y-104061716D01*
X117505744Y-103988152D01*
X117494303Y-103983848D01*
X117354161Y-103923086D01*
X117285209Y-103892029D01*
X117177839Y-103843667D01*
X117167976Y-103838684D01*
X117027516Y-103759666D01*
X117024995Y-103758209D01*
X116867427Y-103664629D01*
X116859126Y-103659239D01*
X116724582Y-103564045D01*
X116721293Y-103561636D01*
X116578109Y-103453094D01*
X116571340Y-103447577D01*
X116446047Y-103337889D01*
X116442177Y-103334354D01*
X116313242Y-103211474D01*
X116307924Y-103206086D01*
X116194108Y-103083516D01*
X116189872Y-103078712D01*
X116150854Y-103032079D01*
X116075889Y-102942482D01*
X116071910Y-102937469D01*
X115983204Y-102819578D01*
X131024500Y-102819578D01*
X131024501Y-102822872D01*
X131024853Y-102826152D01*
X131024854Y-102826159D01*
X131030909Y-102882484D01*
X131045017Y-102920309D01*
X131081204Y-103017331D01*
X131167454Y-103132546D01*
X131282669Y-103218796D01*
X131417517Y-103269091D01*
X131477127Y-103275500D01*
X132922872Y-103275499D01*
X132982483Y-103269091D01*
X133117331Y-103218796D01*
X133232546Y-103132546D01*
X133294785Y-103049404D01*
X133350718Y-103007535D01*
X133420409Y-103002551D01*
X133477588Y-103032078D01*
X133488568Y-103042088D01*
X133488570Y-103042089D01*
X133673791Y-103156773D01*
X133824704Y-103215237D01*
X133876931Y-103235470D01*
X134091074Y-103275500D01*
X134091076Y-103275500D01*
X134308924Y-103275500D01*
X134308926Y-103275500D01*
X134523069Y-103235470D01*
X134658496Y-103183004D01*
X134726208Y-103156773D01*
X134726210Y-103156772D01*
X134911432Y-103042088D01*
X135072427Y-102895322D01*
X135101045Y-102857424D01*
X135157153Y-102815788D01*
X135226865Y-102811095D01*
X135288047Y-102844836D01*
X135298955Y-102857425D01*
X135327572Y-102895322D01*
X135379305Y-102942482D01*
X135488568Y-103042088D01*
X135547718Y-103078712D01*
X135673791Y-103156773D01*
X135824704Y-103215237D01*
X135876931Y-103235470D01*
X136091074Y-103275500D01*
X136091076Y-103275500D01*
X136308924Y-103275500D01*
X136308926Y-103275500D01*
X136523069Y-103235470D01*
X136658496Y-103183004D01*
X136726208Y-103156773D01*
X136726210Y-103156772D01*
X136911432Y-103042088D01*
X137072427Y-102895322D01*
X137101359Y-102857008D01*
X137157467Y-102815374D01*
X137227179Y-102810681D01*
X137288361Y-102844423D01*
X137299268Y-102857010D01*
X137327945Y-102894986D01*
X137488868Y-103041685D01*
X137674012Y-103156322D01*
X137877069Y-103234986D01*
X137950000Y-103248619D01*
X137950000Y-102415686D01*
X137961955Y-102427641D01*
X138074852Y-102485165D01*
X138168519Y-102500000D01*
X138231481Y-102500000D01*
X138325148Y-102485165D01*
X138438045Y-102427641D01*
X138450000Y-102415685D01*
X138450000Y-103248619D01*
X138522930Y-103234986D01*
X138725987Y-103156322D01*
X138911131Y-103041685D01*
X139072055Y-102894985D01*
X139203287Y-102721205D01*
X139300348Y-102526278D01*
X139350505Y-102350000D01*
X138515686Y-102350000D01*
X138527641Y-102338045D01*
X138585165Y-102225148D01*
X138604986Y-102100000D01*
X138585165Y-101974852D01*
X138527641Y-101861955D01*
X138515686Y-101850000D01*
X139350505Y-101850000D01*
X139350505Y-101849999D01*
X139300348Y-101673721D01*
X139213050Y-101498400D01*
X153584340Y-101498400D01*
X153604936Y-101733807D01*
X153632073Y-101835083D01*
X153666097Y-101962063D01*
X153765965Y-102176229D01*
X153901505Y-102369801D01*
X154068599Y-102536895D01*
X154262171Y-102672435D01*
X154476337Y-102772303D01*
X154704592Y-102833463D01*
X154881034Y-102848900D01*
X154883742Y-102848900D01*
X154996258Y-102848900D01*
X154998966Y-102848900D01*
X155175408Y-102833463D01*
X155403663Y-102772303D01*
X155617829Y-102672435D01*
X155811401Y-102536895D01*
X155978495Y-102369801D01*
X156114035Y-102176230D01*
X156213903Y-101962063D01*
X156275063Y-101733808D01*
X156295659Y-101498400D01*
X156275063Y-101262992D01*
X156213903Y-101034737D01*
X156114035Y-100820571D01*
X155978495Y-100626999D01*
X155811401Y-100459905D01*
X155617829Y-100324365D01*
X155403663Y-100224497D01*
X155175407Y-100163336D01*
X155001667Y-100148136D01*
X155001659Y-100148135D01*
X154998966Y-100147900D01*
X154881034Y-100147900D01*
X154878341Y-100148135D01*
X154878332Y-100148136D01*
X154704592Y-100163336D01*
X154476336Y-100224497D01*
X154262170Y-100324365D01*
X154068598Y-100459905D01*
X153901508Y-100626995D01*
X153901505Y-100626998D01*
X153901505Y-100626999D01*
X153793857Y-100780737D01*
X153765964Y-100820572D01*
X153666097Y-101034737D01*
X153604936Y-101262992D01*
X153584340Y-101498400D01*
X139213050Y-101498400D01*
X139203287Y-101478794D01*
X139072055Y-101305014D01*
X138911131Y-101158314D01*
X138725987Y-101043677D01*
X138522927Y-100965011D01*
X138450001Y-100951378D01*
X138450000Y-100951379D01*
X138450000Y-101784313D01*
X138438045Y-101772359D01*
X138325148Y-101714835D01*
X138231481Y-101700000D01*
X138168519Y-101700000D01*
X138074852Y-101714835D01*
X137961955Y-101772359D01*
X137950000Y-101784314D01*
X137950000Y-100951379D01*
X137949998Y-100951378D01*
X137877072Y-100965011D01*
X137674012Y-101043677D01*
X137488868Y-101158314D01*
X137327944Y-101305015D01*
X137299267Y-101342990D01*
X137243158Y-101384626D01*
X137173446Y-101389317D01*
X137112264Y-101355575D01*
X137101359Y-101342990D01*
X137072426Y-101304676D01*
X136911432Y-101157912D01*
X136726208Y-101043226D01*
X136523073Y-100964531D01*
X136523070Y-100964530D01*
X136523069Y-100964530D01*
X136308926Y-100924500D01*
X136091074Y-100924500D01*
X135876931Y-100964530D01*
X135876926Y-100964531D01*
X135673791Y-101043226D01*
X135488567Y-101157911D01*
X135327573Y-101304677D01*
X135317878Y-101317516D01*
X135298955Y-101342575D01*
X135298953Y-101342577D01*
X135242844Y-101384212D01*
X135173132Y-101388903D01*
X135111951Y-101355160D01*
X135101046Y-101342575D01*
X135072428Y-101304678D01*
X134911434Y-101157913D01*
X134852993Y-101121728D01*
X134806358Y-101069700D01*
X134795254Y-101000718D01*
X134810883Y-100954303D01*
X134867850Y-100855635D01*
X134923097Y-100685603D01*
X134941785Y-100507800D01*
X134923097Y-100329997D01*
X134868946Y-100163337D01*
X134867850Y-100159964D01*
X134778459Y-100005134D01*
X134658828Y-99872272D01*
X134514196Y-99767189D01*
X134350864Y-99694469D01*
X134175993Y-99657300D01*
X134175991Y-99657300D01*
X133997209Y-99657300D01*
X133997207Y-99657300D01*
X133822335Y-99694469D01*
X133705294Y-99746580D01*
X133654859Y-99757300D01*
X132689541Y-99757300D01*
X132639106Y-99746580D01*
X132522064Y-99694469D01*
X132347193Y-99657300D01*
X132347191Y-99657300D01*
X132168409Y-99657300D01*
X132168407Y-99657300D01*
X131993535Y-99694469D01*
X131830208Y-99767187D01*
X131685568Y-99872274D01*
X131565940Y-100005134D01*
X131476549Y-100159964D01*
X131421303Y-100329995D01*
X131421302Y-100329997D01*
X131421303Y-100329997D01*
X131402615Y-100507800D01*
X131421303Y-100685603D01*
X131421304Y-100685606D01*
X131455272Y-100790151D01*
X131457267Y-100859992D01*
X131421186Y-100919824D01*
X131380675Y-100944650D01*
X131282669Y-100981204D01*
X131167454Y-101067454D01*
X131081204Y-101182668D01*
X131035698Y-101304678D01*
X131030909Y-101317517D01*
X131024500Y-101377127D01*
X131024500Y-101380448D01*
X131024500Y-101380449D01*
X131024500Y-102819560D01*
X131024500Y-102819578D01*
X115983204Y-102819578D01*
X115983190Y-102819560D01*
X115971336Y-102803806D01*
X115966975Y-102797625D01*
X115868781Y-102649050D01*
X115865984Y-102644617D01*
X115780113Y-102501924D01*
X115775876Y-102494287D01*
X115712441Y-102369804D01*
X115694284Y-102334173D01*
X115692545Y-102330618D01*
X115622545Y-102181312D01*
X115618706Y-102172191D01*
X115554374Y-102000535D01*
X115553408Y-101997863D01*
X115500400Y-101845639D01*
X115497245Y-101835083D01*
X115467440Y-101716302D01*
X115463712Y-101686357D01*
X115462917Y-101244400D01*
X116805140Y-101244400D01*
X116825736Y-101479807D01*
X116877647Y-101673541D01*
X116886897Y-101708063D01*
X116986765Y-101922229D01*
X117122305Y-102115801D01*
X117289399Y-102282895D01*
X117482971Y-102418435D01*
X117697137Y-102518303D01*
X117925392Y-102579463D01*
X118101834Y-102594900D01*
X118104542Y-102594900D01*
X118217058Y-102594900D01*
X118219766Y-102594900D01*
X118396208Y-102579463D01*
X118624463Y-102518303D01*
X118838629Y-102418435D01*
X119032201Y-102282895D01*
X119199295Y-102115801D01*
X119334835Y-101922230D01*
X119434703Y-101708063D01*
X119495863Y-101479808D01*
X119516459Y-101244400D01*
X119495863Y-101008992D01*
X119434703Y-100780737D01*
X119334835Y-100566571D01*
X119199295Y-100372999D01*
X119032201Y-100205905D01*
X118838629Y-100070365D01*
X118624463Y-99970497D01*
X118396207Y-99909336D01*
X118222467Y-99894136D01*
X118222459Y-99894135D01*
X118219766Y-99893900D01*
X118101834Y-99893900D01*
X118099141Y-99894135D01*
X118099132Y-99894136D01*
X117925392Y-99909336D01*
X117697136Y-99970497D01*
X117482970Y-100070365D01*
X117289398Y-100205905D01*
X117122308Y-100372995D01*
X117122305Y-100372998D01*
X117122305Y-100372999D01*
X117027917Y-100507800D01*
X116986764Y-100566572D01*
X116886897Y-100780737D01*
X116825736Y-101008992D01*
X116805140Y-101244400D01*
X115462917Y-101244400D01*
X115458582Y-98834159D01*
X134957649Y-98834159D01*
X134976337Y-99011963D01*
X135031583Y-99181994D01*
X135120974Y-99336824D01*
X135240605Y-99469686D01*
X135385237Y-99574769D01*
X135385240Y-99574770D01*
X135385241Y-99574771D01*
X135494125Y-99623248D01*
X135548569Y-99647489D01*
X135723441Y-99684659D01*
X135723443Y-99684659D01*
X135902227Y-99684659D01*
X136077098Y-99647489D01*
X136077099Y-99647488D01*
X136077101Y-99647488D01*
X136240427Y-99574771D01*
X136337858Y-99503982D01*
X136403665Y-99480502D01*
X136410745Y-99480300D01*
X137541059Y-99480300D01*
X137591494Y-99491020D01*
X137708535Y-99543130D01*
X137883407Y-99580300D01*
X137883409Y-99580300D01*
X138062193Y-99580300D01*
X138237064Y-99543130D01*
X138237065Y-99543129D01*
X138237067Y-99543129D01*
X138400393Y-99470412D01*
X138545030Y-99365326D01*
X138664659Y-99232465D01*
X138754050Y-99077635D01*
X138809297Y-98907603D01*
X138827985Y-98729800D01*
X138809297Y-98551997D01*
X138754050Y-98381965D01*
X138754050Y-98381964D01*
X138664659Y-98227134D01*
X138545028Y-98094272D01*
X138400396Y-97989189D01*
X138237064Y-97916469D01*
X138062193Y-97879300D01*
X138062191Y-97879300D01*
X137883409Y-97879300D01*
X137883407Y-97879300D01*
X137708535Y-97916469D01*
X137591494Y-97968580D01*
X137541059Y-97979300D01*
X135980899Y-97979300D01*
X135962929Y-97977991D01*
X135949046Y-97975957D01*
X135939170Y-97974511D01*
X135939169Y-97974511D01*
X135889824Y-97978828D01*
X135879017Y-97979300D01*
X135873484Y-97979300D01*
X135869921Y-97979716D01*
X135869910Y-97979717D01*
X135843356Y-97982821D01*
X135828962Y-97983659D01*
X135723441Y-97983659D01*
X135548569Y-98020828D01*
X135385242Y-98093546D01*
X135240602Y-98198633D01*
X135120974Y-98331493D01*
X135031583Y-98486323D01*
X134976337Y-98656354D01*
X134957649Y-98834159D01*
X115458582Y-98834159D01*
X115448328Y-93132802D01*
X148634385Y-93132802D01*
X148663997Y-93351403D01*
X148698577Y-93457831D01*
X148732164Y-93561199D01*
X148836697Y-93755453D01*
X148974234Y-93927920D01*
X148974235Y-93927920D01*
X149140358Y-94073057D01*
X149329726Y-94186200D01*
X149536253Y-94263711D01*
X149753302Y-94303100D01*
X149753303Y-94303100D01*
X150465855Y-94303100D01*
X150468632Y-94303100D01*
X150633306Y-94288279D01*
X150845950Y-94229593D01*
X151044698Y-94133881D01*
X151223163Y-94004219D01*
X151375607Y-93844775D01*
X151497131Y-93660673D01*
X151554930Y-93525444D01*
X151583830Y-93457832D01*
X151601285Y-93381356D01*
X151632917Y-93242768D01*
X151635907Y-93176191D01*
X152534432Y-93176191D01*
X152544205Y-93381356D01*
X152592629Y-93580961D01*
X152677954Y-93767799D01*
X152739543Y-93854287D01*
X152797094Y-93935106D01*
X152945746Y-94076845D01*
X153038546Y-94136484D01*
X153115904Y-94186200D01*
X153118536Y-94187891D01*
X153309218Y-94264229D01*
X153510902Y-94303100D01*
X154311878Y-94303100D01*
X154314832Y-94303100D01*
X154317783Y-94302818D01*
X154317787Y-94302818D01*
X154373105Y-94297535D01*
X154468066Y-94288468D01*
X154665141Y-94230601D01*
X154847704Y-94136484D01*
X155009156Y-94009516D01*
X155143661Y-93854289D01*
X155246359Y-93676411D01*
X155313537Y-93482312D01*
X155342768Y-93279007D01*
X155332995Y-93073844D01*
X155284571Y-92874238D01*
X155199247Y-92687404D01*
X155199246Y-92687403D01*
X155199245Y-92687400D01*
X155101087Y-92549558D01*
X155080106Y-92520094D01*
X154931454Y-92378355D01*
X154838656Y-92318717D01*
X154758665Y-92267309D01*
X154631721Y-92216488D01*
X154567982Y-92190971D01*
X154567981Y-92190970D01*
X154567979Y-92190970D01*
X154366298Y-92152100D01*
X153562368Y-92152100D01*
X153559438Y-92152379D01*
X153559412Y-92152381D01*
X153409136Y-92166731D01*
X153212060Y-92224598D01*
X153029493Y-92318717D01*
X152868045Y-92445682D01*
X152733537Y-92600912D01*
X152630841Y-92778787D01*
X152563662Y-92972887D01*
X152534432Y-93176191D01*
X151635907Y-93176191D01*
X151642814Y-93022396D01*
X151613203Y-92803798D01*
X151602504Y-92770870D01*
X151600507Y-92701029D01*
X151636587Y-92641195D01*
X151647532Y-92632244D01*
X151674476Y-92612668D01*
X151685334Y-92605618D01*
X151720816Y-92585133D01*
X151751254Y-92557725D01*
X151761340Y-92549558D01*
X151794471Y-92525488D01*
X151821884Y-92495041D01*
X151831041Y-92485884D01*
X151861488Y-92458471D01*
X151885558Y-92425339D01*
X151893725Y-92415254D01*
X151921133Y-92384816D01*
X151941618Y-92349334D01*
X151948671Y-92338472D01*
X151972751Y-92305330D01*
X151989411Y-92267907D01*
X151995300Y-92256353D01*
X152015779Y-92220884D01*
X152028436Y-92181924D01*
X152033077Y-92169834D01*
X152049744Y-92132403D01*
X152058258Y-92092341D01*
X152061612Y-92079820D01*
X152074274Y-92040856D01*
X152078556Y-92000103D01*
X152080580Y-91987326D01*
X152089100Y-91947246D01*
X152089100Y-91906292D01*
X152089779Y-91893331D01*
X152094060Y-91852600D01*
X152089779Y-91811866D01*
X152089100Y-91798906D01*
X152089100Y-91757953D01*
X152080586Y-91717900D01*
X152078555Y-91705085D01*
X152074274Y-91664344D01*
X152061614Y-91625382D01*
X152058260Y-91612867D01*
X152049744Y-91572797D01*
X152033083Y-91535378D01*
X152028431Y-91523258D01*
X152026365Y-91516900D01*
X152015779Y-91484316D01*
X151995296Y-91448839D01*
X151989405Y-91437277D01*
X151972751Y-91399870D01*
X151948678Y-91366736D01*
X151941615Y-91355860D01*
X151921131Y-91320381D01*
X151893727Y-91289947D01*
X151885557Y-91279858D01*
X151861489Y-91246730D01*
X151854025Y-91240009D01*
X151831042Y-91219315D01*
X151821874Y-91210146D01*
X151794471Y-91179712D01*
X151761339Y-91155641D01*
X151751262Y-91147481D01*
X151720816Y-91120067D01*
X151720815Y-91120066D01*
X151685340Y-91099584D01*
X151674460Y-91092518D01*
X151641332Y-91068450D01*
X151641328Y-91068448D01*
X151603908Y-91051787D01*
X151592355Y-91045900D01*
X151556884Y-91025421D01*
X151517931Y-91012764D01*
X151505813Y-91008112D01*
X151468405Y-90991456D01*
X151446611Y-90986824D01*
X151428339Y-90982940D01*
X151415809Y-90979582D01*
X151376855Y-90966925D01*
X151336119Y-90962643D01*
X151323306Y-90960614D01*
X151283246Y-90952100D01*
X151093954Y-90952100D01*
X151093951Y-90952100D01*
X151053892Y-90960613D01*
X151041083Y-90962642D01*
X151000344Y-90966925D01*
X150961394Y-90979581D01*
X150948858Y-90982940D01*
X150908798Y-90991454D01*
X150871380Y-91008114D01*
X150859268Y-91012763D01*
X150820315Y-91025420D01*
X150784841Y-91045901D01*
X150773281Y-91051791D01*
X150735870Y-91068448D01*
X150702737Y-91092519D01*
X150691860Y-91099583D01*
X150656382Y-91120067D01*
X150625947Y-91147471D01*
X150615864Y-91155636D01*
X150582728Y-91179711D01*
X150555322Y-91210148D01*
X150546148Y-91219322D01*
X150515711Y-91246728D01*
X150491636Y-91279864D01*
X150483471Y-91289947D01*
X150456067Y-91320382D01*
X150435583Y-91355860D01*
X150428519Y-91366737D01*
X150404448Y-91399870D01*
X150387791Y-91437281D01*
X150381901Y-91448841D01*
X150361420Y-91484315D01*
X150348763Y-91523268D01*
X150344114Y-91535380D01*
X150327454Y-91572798D01*
X150318940Y-91612858D01*
X150315581Y-91625394D01*
X150302925Y-91664344D01*
X150298642Y-91705083D01*
X150296613Y-91717892D01*
X150288966Y-91753876D01*
X150255776Y-91815359D01*
X150194615Y-91849138D01*
X150167675Y-91852100D01*
X149808568Y-91852100D01*
X149805818Y-91852347D01*
X149805806Y-91852348D01*
X149643890Y-91866921D01*
X149431251Y-91925606D01*
X149232500Y-92021319D01*
X149054040Y-92150978D01*
X149054037Y-92150980D01*
X149054037Y-92150981D01*
X149038978Y-92166732D01*
X148901590Y-92310428D01*
X148780068Y-92494528D01*
X148693369Y-92697367D01*
X148644283Y-92912431D01*
X148634385Y-93132802D01*
X115448328Y-93132802D01*
X115442723Y-90016400D01*
X115878356Y-90016400D01*
X115898891Y-90264216D01*
X115898891Y-90264219D01*
X115898892Y-90264221D01*
X115959937Y-90505281D01*
X116004960Y-90607923D01*
X116059825Y-90733004D01*
X116059827Y-90733007D01*
X116195836Y-90941185D01*
X116364256Y-91124138D01*
X116429667Y-91175050D01*
X116560485Y-91276870D01*
X116560487Y-91276871D01*
X116560491Y-91276874D01*
X116779190Y-91395228D01*
X117014386Y-91475971D01*
X117259665Y-91516900D01*
X117508335Y-91516900D01*
X117753614Y-91475971D01*
X117988810Y-91395228D01*
X118207509Y-91276874D01*
X118403744Y-91124138D01*
X118572164Y-90941185D01*
X118708173Y-90733007D01*
X118808063Y-90505281D01*
X118869108Y-90264221D01*
X118889643Y-90016400D01*
X120378858Y-90016400D01*
X120399386Y-90264132D01*
X120460413Y-90505121D01*
X120560268Y-90732770D01*
X120660563Y-90886282D01*
X120660564Y-90886282D01*
X121358070Y-90188775D01*
X121360884Y-90202315D01*
X121430442Y-90336556D01*
X121533638Y-90447052D01*
X121662819Y-90525609D01*
X121714002Y-90539949D01*
X121013942Y-91240009D01*
X121013942Y-91240010D01*
X121060766Y-91276455D01*
X121279393Y-91394768D01*
X121514506Y-91475483D01*
X121759707Y-91516400D01*
X122008293Y-91516400D01*
X122253493Y-91475483D01*
X122488606Y-91394768D01*
X122707233Y-91276453D01*
X122754056Y-91240009D01*
X122055568Y-90541521D01*
X122172458Y-90490749D01*
X122289739Y-90395334D01*
X122376928Y-90271815D01*
X122407354Y-90186202D01*
X123107434Y-90886282D01*
X123207730Y-90732769D01*
X123307586Y-90505121D01*
X123368613Y-90264132D01*
X123389141Y-90016400D01*
X123368613Y-89768667D01*
X123307586Y-89527678D01*
X123207730Y-89300030D01*
X123107434Y-89146516D01*
X122409928Y-89844021D01*
X122407116Y-89830485D01*
X122337558Y-89696244D01*
X122234362Y-89585748D01*
X122105181Y-89507191D01*
X122053997Y-89492850D01*
X122754057Y-88792790D01*
X122754056Y-88792788D01*
X122707235Y-88756347D01*
X122488606Y-88638031D01*
X122253493Y-88557316D01*
X122008293Y-88516400D01*
X121759707Y-88516400D01*
X121514506Y-88557316D01*
X121279393Y-88638031D01*
X121060764Y-88756346D01*
X121013942Y-88792788D01*
X121013942Y-88792790D01*
X121712431Y-89491278D01*
X121595542Y-89542051D01*
X121478261Y-89637466D01*
X121391072Y-89760985D01*
X121360645Y-89846597D01*
X120660564Y-89146516D01*
X120560266Y-89300034D01*
X120460413Y-89527678D01*
X120399386Y-89768667D01*
X120378858Y-90016400D01*
X118889643Y-90016400D01*
X118869108Y-89768579D01*
X118808063Y-89527519D01*
X118708173Y-89299793D01*
X118572164Y-89091615D01*
X118403744Y-88908662D01*
X118381612Y-88891436D01*
X118207514Y-88755929D01*
X118207510Y-88755926D01*
X118207509Y-88755926D01*
X117988810Y-88637572D01*
X117988806Y-88637570D01*
X117988805Y-88637570D01*
X117753615Y-88556829D01*
X117508335Y-88515900D01*
X117259665Y-88515900D01*
X117014384Y-88556829D01*
X116779194Y-88637570D01*
X116560485Y-88755929D01*
X116364259Y-88908659D01*
X116195837Y-89091614D01*
X116059825Y-89299795D01*
X115986746Y-89466400D01*
X115959937Y-89527519D01*
X115925667Y-89662847D01*
X115898891Y-89768583D01*
X115878356Y-90016400D01*
X115442723Y-90016400D01*
X115434929Y-85682802D01*
X148634385Y-85682802D01*
X148663997Y-85901403D01*
X148729918Y-86104289D01*
X148732164Y-86111199D01*
X148836697Y-86305453D01*
X148941823Y-86437277D01*
X148974235Y-86477920D01*
X149140358Y-86623057D01*
X149329726Y-86736200D01*
X149536253Y-86813711D01*
X149753302Y-86853100D01*
X149753303Y-86853100D01*
X150167675Y-86853100D01*
X150234714Y-86872785D01*
X150280469Y-86925589D01*
X150288966Y-86951320D01*
X150296614Y-86987303D01*
X150298643Y-87000119D01*
X150302925Y-87040855D01*
X150315582Y-87079809D01*
X150318942Y-87092346D01*
X150327456Y-87132405D01*
X150344112Y-87169813D01*
X150348764Y-87181931D01*
X150361421Y-87220884D01*
X150381900Y-87256355D01*
X150387787Y-87267908D01*
X150404449Y-87305330D01*
X150404450Y-87305332D01*
X150428518Y-87338460D01*
X150435584Y-87349340D01*
X150456067Y-87384816D01*
X150483467Y-87415247D01*
X150483477Y-87415257D01*
X150491641Y-87425339D01*
X150515712Y-87458471D01*
X150546144Y-87485872D01*
X150555320Y-87495047D01*
X150582730Y-87525489D01*
X150615858Y-87549557D01*
X150625947Y-87557727D01*
X150656381Y-87585131D01*
X150656383Y-87585132D01*
X150656384Y-87585133D01*
X150691866Y-87605619D01*
X150702736Y-87612678D01*
X150735870Y-87636751D01*
X150773283Y-87653408D01*
X150784839Y-87659296D01*
X150820316Y-87679779D01*
X150859266Y-87692434D01*
X150871378Y-87697083D01*
X150908797Y-87713744D01*
X150948867Y-87722260D01*
X150961382Y-87725614D01*
X151000344Y-87738274D01*
X151041085Y-87742555D01*
X151053894Y-87744585D01*
X151093954Y-87753100D01*
X151283243Y-87753100D01*
X151283246Y-87753100D01*
X151323326Y-87744580D01*
X151336103Y-87742556D01*
X151376856Y-87738274D01*
X151415820Y-87725612D01*
X151428341Y-87722258D01*
X151454460Y-87716707D01*
X151468399Y-87713745D01*
X151468399Y-87713744D01*
X151468403Y-87713744D01*
X151505834Y-87697077D01*
X151517924Y-87692436D01*
X151556884Y-87679779D01*
X151592357Y-87659298D01*
X151603907Y-87653411D01*
X151641330Y-87636751D01*
X151674472Y-87612671D01*
X151685334Y-87605618D01*
X151720816Y-87585133D01*
X151751254Y-87557725D01*
X151761340Y-87549558D01*
X151761341Y-87549557D01*
X151794471Y-87525488D01*
X151821884Y-87495041D01*
X151831041Y-87485884D01*
X151861488Y-87458471D01*
X151885558Y-87425339D01*
X151893725Y-87415254D01*
X151921133Y-87384816D01*
X151941618Y-87349334D01*
X151948671Y-87338472D01*
X151972751Y-87305330D01*
X151989411Y-87267907D01*
X151995300Y-87256353D01*
X152015779Y-87220884D01*
X152028434Y-87181932D01*
X152028435Y-87181931D01*
X152028436Y-87181924D01*
X152033077Y-87169834D01*
X152049744Y-87132403D01*
X152058258Y-87092341D01*
X152061616Y-87079809D01*
X152074274Y-87040856D01*
X152078556Y-87000103D01*
X152080580Y-86987326D01*
X152089100Y-86947246D01*
X152089100Y-86906292D01*
X152089779Y-86893331D01*
X152094060Y-86852600D01*
X152089779Y-86811866D01*
X152089100Y-86798906D01*
X152089100Y-86757953D01*
X152080586Y-86717900D01*
X152078555Y-86705080D01*
X152074274Y-86664344D01*
X152061614Y-86625382D01*
X152058260Y-86612867D01*
X152049744Y-86572797D01*
X152033083Y-86535378D01*
X152028431Y-86523258D01*
X152025497Y-86514229D01*
X152015779Y-86484316D01*
X151995296Y-86448839D01*
X151989405Y-86437277D01*
X151972751Y-86399870D01*
X151948678Y-86366736D01*
X151941615Y-86355860D01*
X151921131Y-86320381D01*
X151893727Y-86289947D01*
X151885557Y-86279858D01*
X151861489Y-86246730D01*
X151831047Y-86219320D01*
X151821874Y-86210146D01*
X151794471Y-86179712D01*
X151761339Y-86155641D01*
X151751262Y-86147481D01*
X151720816Y-86120067D01*
X151720815Y-86120066D01*
X151685340Y-86099584D01*
X151674461Y-86092518D01*
X151646363Y-86072105D01*
X151603695Y-86016777D01*
X151597714Y-85947164D01*
X151598332Y-85944290D01*
X151632917Y-85792768D01*
X151642814Y-85572396D01*
X151623009Y-85426191D01*
X152534432Y-85426191D01*
X152544205Y-85631356D01*
X152592629Y-85830961D01*
X152677954Y-86017799D01*
X152744465Y-86111199D01*
X152797094Y-86185106D01*
X152945746Y-86326845D01*
X153065407Y-86403747D01*
X153117580Y-86437277D01*
X153118536Y-86437891D01*
X153309218Y-86514229D01*
X153510902Y-86553100D01*
X154311878Y-86553100D01*
X154314832Y-86553100D01*
X154317783Y-86552818D01*
X154317787Y-86552818D01*
X154373105Y-86547535D01*
X154468066Y-86538468D01*
X154665141Y-86480601D01*
X154847704Y-86386484D01*
X155009156Y-86259516D01*
X155143661Y-86104289D01*
X155246359Y-85926411D01*
X155313537Y-85732312D01*
X155342768Y-85529007D01*
X155332995Y-85323844D01*
X155284571Y-85124238D01*
X155199247Y-84937404D01*
X155199246Y-84937403D01*
X155199245Y-84937400D01*
X155084931Y-84776870D01*
X155080106Y-84770094D01*
X154931454Y-84628355D01*
X154838656Y-84568717D01*
X154758665Y-84517309D01*
X154631721Y-84466488D01*
X154567982Y-84440971D01*
X154567981Y-84440970D01*
X154567979Y-84440970D01*
X154366298Y-84402100D01*
X153562368Y-84402100D01*
X153559438Y-84402379D01*
X153559412Y-84402381D01*
X153409136Y-84416731D01*
X153212060Y-84474598D01*
X153029493Y-84568717D01*
X152868045Y-84695682D01*
X152733537Y-84850912D01*
X152630841Y-85028787D01*
X152563662Y-85222887D01*
X152534432Y-85426191D01*
X151623009Y-85426191D01*
X151613203Y-85353798D01*
X151545036Y-85144001D01*
X151440503Y-84949747D01*
X151302965Y-84777280D01*
X151302019Y-84776453D01*
X151136841Y-84632142D01*
X150947473Y-84518999D01*
X150740946Y-84441488D01*
X150523898Y-84402100D01*
X150523897Y-84402100D01*
X149808568Y-84402100D01*
X149805818Y-84402347D01*
X149805806Y-84402348D01*
X149643890Y-84416921D01*
X149431251Y-84475606D01*
X149232500Y-84571319D01*
X149054040Y-84700978D01*
X149054037Y-84700980D01*
X149054037Y-84700981D01*
X148987958Y-84770094D01*
X148901590Y-84860428D01*
X148780068Y-85044528D01*
X148693369Y-85247367D01*
X148644283Y-85462431D01*
X148634385Y-85682802D01*
X115434929Y-85682802D01*
X115431032Y-83516399D01*
X115878356Y-83516399D01*
X115898891Y-83764216D01*
X115898891Y-83764219D01*
X115898892Y-83764221D01*
X115959937Y-84005281D01*
X116004960Y-84107923D01*
X116059825Y-84233004D01*
X116059827Y-84233007D01*
X116195836Y-84441185D01*
X116364256Y-84624138D01*
X116364259Y-84624140D01*
X116560485Y-84776870D01*
X116560487Y-84776871D01*
X116560491Y-84776874D01*
X116779190Y-84895228D01*
X117014386Y-84975971D01*
X117259665Y-85016900D01*
X117508335Y-85016900D01*
X117753614Y-84975971D01*
X117988810Y-84895228D01*
X118207509Y-84776874D01*
X118403744Y-84624138D01*
X118572164Y-84441185D01*
X118708173Y-84233007D01*
X118808063Y-84005281D01*
X118869108Y-83764221D01*
X118889643Y-83516400D01*
X120378858Y-83516400D01*
X120399386Y-83764132D01*
X120460413Y-84005121D01*
X120560268Y-84232770D01*
X120660563Y-84386282D01*
X120660564Y-84386282D01*
X121358070Y-83688776D01*
X121360884Y-83702315D01*
X121430442Y-83836556D01*
X121533638Y-83947052D01*
X121662819Y-84025609D01*
X121714002Y-84039949D01*
X121013942Y-84740009D01*
X121013942Y-84740010D01*
X121060766Y-84776455D01*
X121279393Y-84894768D01*
X121514506Y-84975483D01*
X121759707Y-85016400D01*
X122008293Y-85016400D01*
X122253493Y-84975483D01*
X122488606Y-84894768D01*
X122707233Y-84776453D01*
X122754056Y-84740009D01*
X122055568Y-84041521D01*
X122172458Y-83990749D01*
X122289739Y-83895334D01*
X122376928Y-83771815D01*
X122407354Y-83686202D01*
X123107434Y-84386282D01*
X123207730Y-84232769D01*
X123307586Y-84005121D01*
X123368613Y-83764132D01*
X123389141Y-83516399D01*
X123368613Y-83268667D01*
X123307586Y-83027678D01*
X123207730Y-82800030D01*
X123107434Y-82646516D01*
X122409929Y-83344022D01*
X122407116Y-83330485D01*
X122337558Y-83196244D01*
X122234362Y-83085748D01*
X122105181Y-83007191D01*
X122053997Y-82992850D01*
X122754057Y-82292790D01*
X122754056Y-82292788D01*
X122707235Y-82256347D01*
X122488606Y-82138031D01*
X122253493Y-82057316D01*
X122008293Y-82016400D01*
X121759707Y-82016400D01*
X121514506Y-82057316D01*
X121279393Y-82138031D01*
X121060764Y-82256346D01*
X121013942Y-82292788D01*
X121013942Y-82292790D01*
X121712431Y-82991278D01*
X121595542Y-83042051D01*
X121478261Y-83137466D01*
X121391072Y-83260985D01*
X121360645Y-83346597D01*
X120660564Y-82646516D01*
X120560266Y-82800034D01*
X120460413Y-83027678D01*
X120399386Y-83268667D01*
X120378858Y-83516400D01*
X118889643Y-83516400D01*
X118869108Y-83268579D01*
X118808063Y-83027519D01*
X118708173Y-82799793D01*
X118572164Y-82591615D01*
X118403744Y-82408662D01*
X118381612Y-82391436D01*
X118207514Y-82255929D01*
X118207510Y-82255926D01*
X118207509Y-82255926D01*
X117988810Y-82137572D01*
X117988806Y-82137570D01*
X117988805Y-82137570D01*
X117753615Y-82056829D01*
X117508335Y-82015900D01*
X117259665Y-82015900D01*
X117014384Y-82056829D01*
X116779194Y-82137570D01*
X116560485Y-82255929D01*
X116364259Y-82408659D01*
X116195837Y-82591614D01*
X116059825Y-82799795D01*
X115986746Y-82966400D01*
X115959937Y-83027519D01*
X115925667Y-83162847D01*
X115898891Y-83268583D01*
X115878356Y-83516399D01*
X115431032Y-83516399D01*
X115422259Y-78638400D01*
X116703540Y-78638400D01*
X116724136Y-78873807D01*
X116753256Y-78982483D01*
X116785297Y-79102063D01*
X116885165Y-79316229D01*
X117020705Y-79509801D01*
X117187799Y-79676895D01*
X117381371Y-79812435D01*
X117595537Y-79912303D01*
X117823792Y-79973463D01*
X118000234Y-79988900D01*
X118002942Y-79988900D01*
X118115458Y-79988900D01*
X118118166Y-79988900D01*
X118294608Y-79973463D01*
X118522863Y-79912303D01*
X118737029Y-79812435D01*
X118930601Y-79676895D01*
X119097695Y-79509801D01*
X119233235Y-79316230D01*
X119333103Y-79102063D01*
X119394263Y-78873808D01*
X119414859Y-78638400D01*
X119394263Y-78402992D01*
X119333103Y-78174737D01*
X119233235Y-77960571D01*
X119225832Y-77949999D01*
X130149494Y-77949999D01*
X130149495Y-77950000D01*
X130984314Y-77950000D01*
X130972359Y-77961955D01*
X130914835Y-78074852D01*
X130895014Y-78200000D01*
X130914835Y-78325148D01*
X130972359Y-78438045D01*
X130984314Y-78450000D01*
X130149495Y-78450000D01*
X130199651Y-78626278D01*
X130296712Y-78821205D01*
X130427944Y-78994985D01*
X130588868Y-79141685D01*
X130774012Y-79256322D01*
X130977069Y-79334986D01*
X131050000Y-79348619D01*
X131050000Y-78515685D01*
X131061955Y-78527641D01*
X131174852Y-78585165D01*
X131268519Y-78600000D01*
X131331481Y-78600000D01*
X131425148Y-78585165D01*
X131538045Y-78527641D01*
X131549999Y-78515686D01*
X131549999Y-79348619D01*
X131622930Y-79334986D01*
X131825987Y-79256322D01*
X132011131Y-79141685D01*
X132172052Y-78994987D01*
X132200730Y-78957011D01*
X132256838Y-78915374D01*
X132326550Y-78910681D01*
X132387733Y-78944422D01*
X132398640Y-78957009D01*
X132427573Y-78995323D01*
X132552993Y-79109657D01*
X132588568Y-79142088D01*
X132681179Y-79199430D01*
X132773791Y-79256773D01*
X132927267Y-79316230D01*
X132976931Y-79335470D01*
X133191074Y-79375500D01*
X133191076Y-79375500D01*
X133408924Y-79375500D01*
X133408926Y-79375500D01*
X133623069Y-79335470D01*
X133758496Y-79283004D01*
X133826208Y-79256773D01*
X133826210Y-79256772D01*
X134011432Y-79142088D01*
X134172427Y-78995322D01*
X134201045Y-78957424D01*
X134257153Y-78915788D01*
X134326865Y-78911095D01*
X134388047Y-78944836D01*
X134398955Y-78957425D01*
X134427572Y-78995322D01*
X134552993Y-79109657D01*
X134588568Y-79142088D01*
X134681179Y-79199430D01*
X134773791Y-79256773D01*
X134927267Y-79316230D01*
X134976931Y-79335470D01*
X135191074Y-79375500D01*
X135191076Y-79375500D01*
X135408924Y-79375500D01*
X135408926Y-79375500D01*
X135623069Y-79335470D01*
X135758496Y-79283004D01*
X135826208Y-79256773D01*
X135826210Y-79256772D01*
X136011432Y-79142088D01*
X136022409Y-79132080D01*
X136085208Y-79101463D01*
X136154596Y-79109657D01*
X136205214Y-79149404D01*
X136267454Y-79232546D01*
X136382669Y-79318796D01*
X136517517Y-79369091D01*
X136577127Y-79375500D01*
X138022872Y-79375499D01*
X138082483Y-79369091D01*
X138217331Y-79318796D01*
X138332546Y-79232546D01*
X138418796Y-79117331D01*
X138469091Y-78982483D01*
X138475500Y-78922873D01*
X138475499Y-77949999D01*
X140549494Y-77949999D01*
X140549495Y-77950000D01*
X141384314Y-77950000D01*
X141372359Y-77961955D01*
X141314835Y-78074852D01*
X141295014Y-78200000D01*
X141314835Y-78325148D01*
X141372359Y-78438045D01*
X141384314Y-78450000D01*
X140549495Y-78450000D01*
X140599651Y-78626278D01*
X140696712Y-78821205D01*
X140827944Y-78994985D01*
X140988868Y-79141685D01*
X141174012Y-79256322D01*
X141377069Y-79334986D01*
X141450000Y-79348619D01*
X141450000Y-78515686D01*
X141461955Y-78527641D01*
X141574852Y-78585165D01*
X141668519Y-78600000D01*
X141731481Y-78600000D01*
X141825148Y-78585165D01*
X141938045Y-78527641D01*
X141950000Y-78515686D01*
X141950000Y-79348619D01*
X142022930Y-79334986D01*
X142225987Y-79256322D01*
X142411131Y-79141685D01*
X142572052Y-78994987D01*
X142600730Y-78957011D01*
X142656838Y-78915374D01*
X142726550Y-78910681D01*
X142787733Y-78944422D01*
X142798640Y-78957009D01*
X142827573Y-78995323D01*
X142952993Y-79109657D01*
X142988568Y-79142088D01*
X143081178Y-79199430D01*
X143173791Y-79256773D01*
X143327267Y-79316230D01*
X143376931Y-79335470D01*
X143591074Y-79375500D01*
X143591076Y-79375500D01*
X143808924Y-79375500D01*
X143808926Y-79375500D01*
X144023069Y-79335470D01*
X144158496Y-79283004D01*
X144226208Y-79256773D01*
X144226210Y-79256772D01*
X144411432Y-79142088D01*
X144572427Y-78995322D01*
X144601045Y-78957424D01*
X144657153Y-78915788D01*
X144726865Y-78911095D01*
X144788047Y-78944836D01*
X144798955Y-78957425D01*
X144827572Y-78995322D01*
X144952993Y-79109657D01*
X144988568Y-79142088D01*
X145081178Y-79199430D01*
X145173791Y-79256773D01*
X145327267Y-79316230D01*
X145376931Y-79335470D01*
X145591074Y-79375500D01*
X145591076Y-79375500D01*
X145808924Y-79375500D01*
X145808926Y-79375500D01*
X146023069Y-79335470D01*
X146158496Y-79283004D01*
X146226208Y-79256773D01*
X146226210Y-79256772D01*
X146411432Y-79142088D01*
X146422409Y-79132080D01*
X146485208Y-79101463D01*
X146554596Y-79109657D01*
X146605214Y-79149404D01*
X146667454Y-79232546D01*
X146782669Y-79318796D01*
X146917517Y-79369091D01*
X146977127Y-79375500D01*
X148422872Y-79375499D01*
X148482483Y-79369091D01*
X148617331Y-79318796D01*
X148732546Y-79232546D01*
X148818796Y-79117331D01*
X148869091Y-78982483D01*
X148875500Y-78922873D01*
X148875500Y-78892400D01*
X153482740Y-78892400D01*
X153503336Y-79127807D01*
X153558979Y-79335468D01*
X153564497Y-79356063D01*
X153664365Y-79570229D01*
X153799905Y-79763801D01*
X153966999Y-79930895D01*
X154160571Y-80066435D01*
X154374737Y-80166303D01*
X154602992Y-80227463D01*
X154779434Y-80242900D01*
X154782142Y-80242900D01*
X154894658Y-80242900D01*
X154897366Y-80242900D01*
X155073808Y-80227463D01*
X155302063Y-80166303D01*
X155516229Y-80066435D01*
X155709801Y-79930895D01*
X155876895Y-79763801D01*
X156012435Y-79570230D01*
X156112303Y-79356063D01*
X156173463Y-79127808D01*
X156194059Y-78892400D01*
X156173463Y-78656992D01*
X156112303Y-78428737D01*
X156012435Y-78214571D01*
X155876895Y-78020999D01*
X155709801Y-77853905D01*
X155516229Y-77718365D01*
X155302063Y-77618497D01*
X155302062Y-77618496D01*
X155073807Y-77557336D01*
X154900067Y-77542136D01*
X154900059Y-77542135D01*
X154897366Y-77541900D01*
X154779434Y-77541900D01*
X154776741Y-77542135D01*
X154776732Y-77542136D01*
X154602992Y-77557336D01*
X154374736Y-77618497D01*
X154160570Y-77718365D01*
X153966998Y-77853905D01*
X153799908Y-78020995D01*
X153799905Y-78020998D01*
X153799905Y-78020999D01*
X153687479Y-78181561D01*
X153664364Y-78214572D01*
X153564497Y-78428737D01*
X153503336Y-78656992D01*
X153482740Y-78892400D01*
X148875500Y-78892400D01*
X148875499Y-77477128D01*
X148869091Y-77417517D01*
X148818796Y-77282669D01*
X148732546Y-77167454D01*
X148617331Y-77081204D01*
X148482483Y-77030909D01*
X148422873Y-77024500D01*
X148419550Y-77024500D01*
X146980439Y-77024500D01*
X146980420Y-77024500D01*
X146977128Y-77024501D01*
X146973848Y-77024853D01*
X146973840Y-77024854D01*
X146917515Y-77030909D01*
X146782669Y-77081204D01*
X146667451Y-77167455D01*
X146605214Y-77250594D01*
X146549281Y-77292465D01*
X146479589Y-77297449D01*
X146422410Y-77267920D01*
X146411432Y-77257912D01*
X146411429Y-77257910D01*
X146411428Y-77257909D01*
X146226208Y-77143226D01*
X146023073Y-77064531D01*
X146023070Y-77064530D01*
X146023069Y-77064530D01*
X145808926Y-77024500D01*
X145591074Y-77024500D01*
X145394387Y-77061267D01*
X145376926Y-77064531D01*
X145173791Y-77143226D01*
X144988567Y-77257912D01*
X144827573Y-77404677D01*
X144798954Y-77442575D01*
X144742845Y-77484211D01*
X144673133Y-77488902D01*
X144611951Y-77455160D01*
X144601046Y-77442575D01*
X144578075Y-77412157D01*
X144572427Y-77404678D01*
X144528350Y-77364497D01*
X144411432Y-77257912D01*
X144226208Y-77143226D01*
X144023073Y-77064531D01*
X144023070Y-77064530D01*
X144023069Y-77064530D01*
X143808926Y-77024500D01*
X143591074Y-77024500D01*
X143394387Y-77061267D01*
X143376926Y-77064531D01*
X143173791Y-77143226D01*
X142988567Y-77257912D01*
X142827572Y-77404678D01*
X142798639Y-77442991D01*
X142742530Y-77484626D01*
X142672818Y-77489317D01*
X142611636Y-77455574D01*
X142600731Y-77442989D01*
X142572054Y-77405013D01*
X142411131Y-77258314D01*
X142225987Y-77143677D01*
X142022927Y-77065011D01*
X141950001Y-77051378D01*
X141950000Y-77051379D01*
X141950000Y-77884314D01*
X141938045Y-77872359D01*
X141825148Y-77814835D01*
X141731481Y-77800000D01*
X141668519Y-77800000D01*
X141574852Y-77814835D01*
X141461955Y-77872359D01*
X141450000Y-77884313D01*
X141450000Y-77051379D01*
X141449998Y-77051378D01*
X141377072Y-77065011D01*
X141174012Y-77143677D01*
X140988868Y-77258314D01*
X140827944Y-77405014D01*
X140696712Y-77578794D01*
X140599651Y-77773721D01*
X140549494Y-77949999D01*
X138475499Y-77949999D01*
X138475499Y-77477128D01*
X138469091Y-77417517D01*
X138418796Y-77282669D01*
X138332546Y-77167454D01*
X138217331Y-77081204D01*
X138082483Y-77030909D01*
X138022873Y-77024500D01*
X138019550Y-77024500D01*
X136580439Y-77024500D01*
X136580420Y-77024500D01*
X136577128Y-77024501D01*
X136573848Y-77024853D01*
X136573840Y-77024854D01*
X136517515Y-77030909D01*
X136382669Y-77081204D01*
X136267451Y-77167455D01*
X136205214Y-77250594D01*
X136149281Y-77292465D01*
X136079589Y-77297449D01*
X136022410Y-77267920D01*
X136011432Y-77257912D01*
X136011429Y-77257910D01*
X136011428Y-77257909D01*
X135826208Y-77143226D01*
X135623073Y-77064531D01*
X135623070Y-77064530D01*
X135623069Y-77064530D01*
X135408926Y-77024500D01*
X135191074Y-77024500D01*
X134994387Y-77061267D01*
X134976926Y-77064531D01*
X134773791Y-77143226D01*
X134588567Y-77257912D01*
X134427573Y-77404677D01*
X134398954Y-77442575D01*
X134342845Y-77484211D01*
X134273133Y-77488902D01*
X134211951Y-77455160D01*
X134201046Y-77442575D01*
X134178075Y-77412157D01*
X134172427Y-77404678D01*
X134128350Y-77364497D01*
X134011432Y-77257912D01*
X133826208Y-77143226D01*
X133623073Y-77064531D01*
X133623070Y-77064530D01*
X133623069Y-77064530D01*
X133408926Y-77024500D01*
X133191074Y-77024500D01*
X132994387Y-77061267D01*
X132976926Y-77064531D01*
X132773791Y-77143226D01*
X132588567Y-77257912D01*
X132427572Y-77404678D01*
X132398639Y-77442991D01*
X132342530Y-77484626D01*
X132272818Y-77489317D01*
X132211636Y-77455574D01*
X132200731Y-77442989D01*
X132172054Y-77405013D01*
X132011131Y-77258314D01*
X131825987Y-77143677D01*
X131622927Y-77065011D01*
X131550000Y-77051378D01*
X131549999Y-77051379D01*
X131549999Y-77884313D01*
X131538045Y-77872359D01*
X131425148Y-77814835D01*
X131331481Y-77800000D01*
X131268519Y-77800000D01*
X131174852Y-77814835D01*
X131061955Y-77872359D01*
X131050000Y-77884314D01*
X131050000Y-77051379D01*
X131049998Y-77051378D01*
X130977072Y-77065011D01*
X130774012Y-77143677D01*
X130588868Y-77258314D01*
X130427944Y-77405014D01*
X130296712Y-77578794D01*
X130199651Y-77773721D01*
X130149494Y-77949999D01*
X119225832Y-77949999D01*
X119097695Y-77766999D01*
X118930601Y-77599905D01*
X118737029Y-77464365D01*
X118522863Y-77364497D01*
X118294607Y-77303336D01*
X118120867Y-77288136D01*
X118120859Y-77288135D01*
X118118166Y-77287900D01*
X118000234Y-77287900D01*
X117997541Y-77288135D01*
X117997532Y-77288136D01*
X117823792Y-77303336D01*
X117595536Y-77364497D01*
X117381370Y-77464365D01*
X117187798Y-77599905D01*
X117020708Y-77766995D01*
X117020705Y-77766998D01*
X117020705Y-77766999D01*
X116892567Y-77950000D01*
X116885164Y-77960572D01*
X116785297Y-78174737D01*
X116724136Y-78402992D01*
X116703540Y-78638400D01*
X115422259Y-78638400D01*
X115421958Y-78471212D01*
X115423446Y-78451857D01*
X115430884Y-78404299D01*
X115431450Y-78400681D01*
X115441270Y-78340182D01*
X115468098Y-78174908D01*
X115470625Y-78163059D01*
X115505281Y-78032389D01*
X115554216Y-77860007D01*
X115557578Y-77849861D01*
X115608664Y-77715508D01*
X115609934Y-77712310D01*
X115674442Y-77556386D01*
X115678291Y-77547989D01*
X115744670Y-77416487D01*
X115746967Y-77412157D01*
X115827440Y-77267594D01*
X115831439Y-77260919D01*
X115911845Y-77135908D01*
X115915419Y-77130657D01*
X116011519Y-76997073D01*
X116015364Y-76992012D01*
X116108312Y-76876049D01*
X116113381Y-76870122D01*
X116224856Y-76747865D01*
X116228236Y-76744305D01*
X116331800Y-76639573D01*
X116338534Y-76633257D01*
X116465922Y-76522468D01*
X116468465Y-76520320D01*
X116579642Y-76429140D01*
X116588191Y-76422728D01*
X116736022Y-76321559D01*
X116844994Y-76249729D01*
X116857581Y-76242459D01*
X117117564Y-76112060D01*
X117173155Y-76098900D01*
X119024299Y-76098900D01*
X155317446Y-76274167D01*
G37*
%TD.AperFunction*%
%TD*%
M02*
