M48
; DRILL file {KiCad 7.0.2} date Thu Apr 27 00:23:43 2023
; FORMAT={-:-/ absolute / inch / decimal}
; #@! TF.CreationDate,2023-04-27T00:23:43+05:30
; #@! TF.GenerationSoftware,Kicad,Pcbnew,7.0.2
; #@! TF.FileFunction,MixedPlating,1,2
FMAT,2
INCH
; #@! TA.AperFunction,Plated,PTH,ViaDrill
T1C0.0118
; #@! TA.AperFunction,Plated,PTH,ComponentDrill
T2C0.0217
; #@! TA.AperFunction,Plated,PTH,ComponentDrill
T3C0.0315
; #@! TA.AperFunction,Plated,PTH,ComponentDrill
T4C0.0335
; #@! TA.AperFunction,Plated,PTH,ComponentDrill
T5C0.0433
; #@! TA.AperFunction,NonPlated,NPTH,ComponentDrill
T6C0.0315
; #@! TA.AperFunction,NonPlated,NPTH,ComponentDrill
T7C0.0866
%
G90
G05
T1
X4.938Y-3.663
X4.999Y-3.468
X5.052Y-3.852
X5.06Y-3.71
X5.067Y-3.671
X5.093Y-3.501
X5.142Y-3.419
X5.207Y-3.957
X5.264Y-3.602
X5.274Y-3.462
X5.279Y-3.957
X5.324Y-3.812
X5.347Y-3.8911
X5.432Y-3.887
X5.45Y-3.688
X5.655Y-3.489
X5.751Y-3.704
X5.78Y-3.697
X5.819Y-3.472
X5.892Y-3.894
X6.002Y-3.76
T3
X5.1693Y-3.0787
X5.2047Y-4.0197
X5.248Y-3.0787
X5.2835Y-4.0197
X5.3268Y-3.0787
X5.3622Y-4.0197
X5.4055Y-3.0787
X5.4409Y-4.0197
X5.5787Y-3.0787
X5.6575Y-3.0787
X5.7362Y-3.0787
X5.815Y-3.0787
T5
X4.6214Y-3.288
X4.6214Y-3.544
X4.7986Y-3.288
X4.7986Y-3.544
T6
X5.9523Y-3.4194
X5.9523Y-3.6162
T7
X4.648Y-3.096
X4.652Y-3.986
X6.096Y-3.106
X6.1Y-3.996
T2
G00X6.0478Y-3.3653
M15
G01X6.0734Y-3.3653
M16
G05
G00X6.0478Y-3.6704
M15
G01X6.0734Y-3.6704
M16
G05
T4
G00X5.9001Y-3.3712
M15
G01X5.9218Y-3.3712
M16
G05
G00X5.9001Y-3.6645
M15
G01X5.9218Y-3.6645
M16
G05
T0
M30
