%TF.GenerationSoftware,KiCad,Pcbnew,7.0.2*%
%TF.CreationDate,2023-04-27T00:23:47+05:30*%
%TF.ProjectId,stm32_pcb_design,73746d33-325f-4706-9362-5f6465736967,rev?*%
%TF.SameCoordinates,Original*%
%TF.FileFunction,Legend,Top*%
%TF.FilePolarity,Positive*%
%FSLAX46Y46*%
G04 Gerber Fmt 4.6, Leading zero omitted, Abs format (unit mm)*
G04 Created by KiCad (PCBNEW 7.0.2) date 2023-04-27 00:23:47*
%MOMM*%
%LPD*%
G01*
G04 APERTURE LIST*
%ADD10C,0.150000*%
%ADD11C,0.120000*%
G04 APERTURE END LIST*
D10*
X152015952Y-98415119D02*
X151920714Y-98367500D01*
X151920714Y-98367500D02*
X151873095Y-98319880D01*
X151873095Y-98319880D02*
X151825476Y-98224642D01*
X151825476Y-98224642D02*
X151825476Y-97938928D01*
X151825476Y-97938928D02*
X151873095Y-97843690D01*
X151873095Y-97843690D02*
X151920714Y-97796071D01*
X151920714Y-97796071D02*
X152015952Y-97748452D01*
X152015952Y-97748452D02*
X152158809Y-97748452D01*
X152158809Y-97748452D02*
X152254047Y-97796071D01*
X152254047Y-97796071D02*
X152301666Y-97843690D01*
X152301666Y-97843690D02*
X152349285Y-97938928D01*
X152349285Y-97938928D02*
X152349285Y-98224642D01*
X152349285Y-98224642D02*
X152301666Y-98319880D01*
X152301666Y-98319880D02*
X152254047Y-98367500D01*
X152254047Y-98367500D02*
X152158809Y-98415119D01*
X152158809Y-98415119D02*
X152015952Y-98415119D01*
X152777857Y-97748452D02*
X152777857Y-98415119D01*
X152777857Y-97843690D02*
X152825476Y-97796071D01*
X152825476Y-97796071D02*
X152920714Y-97748452D01*
X152920714Y-97748452D02*
X153063571Y-97748452D01*
X153063571Y-97748452D02*
X153158809Y-97796071D01*
X153158809Y-97796071D02*
X153206428Y-97891309D01*
X153206428Y-97891309D02*
X153206428Y-98415119D01*
X150479095Y-83104019D02*
X150479095Y-83913542D01*
X150479095Y-83913542D02*
X150526714Y-84008780D01*
X150526714Y-84008780D02*
X150574333Y-84056400D01*
X150574333Y-84056400D02*
X150669571Y-84104019D01*
X150669571Y-84104019D02*
X150860047Y-84104019D01*
X150860047Y-84104019D02*
X150955285Y-84056400D01*
X150955285Y-84056400D02*
X151002904Y-84008780D01*
X151002904Y-84008780D02*
X151050523Y-83913542D01*
X151050523Y-83913542D02*
X151050523Y-83104019D01*
X151479095Y-84056400D02*
X151621952Y-84104019D01*
X151621952Y-84104019D02*
X151860047Y-84104019D01*
X151860047Y-84104019D02*
X151955285Y-84056400D01*
X151955285Y-84056400D02*
X152002904Y-84008780D01*
X152002904Y-84008780D02*
X152050523Y-83913542D01*
X152050523Y-83913542D02*
X152050523Y-83818304D01*
X152050523Y-83818304D02*
X152002904Y-83723066D01*
X152002904Y-83723066D02*
X151955285Y-83675447D01*
X151955285Y-83675447D02*
X151860047Y-83627828D01*
X151860047Y-83627828D02*
X151669571Y-83580209D01*
X151669571Y-83580209D02*
X151574333Y-83532590D01*
X151574333Y-83532590D02*
X151526714Y-83484971D01*
X151526714Y-83484971D02*
X151479095Y-83389733D01*
X151479095Y-83389733D02*
X151479095Y-83294495D01*
X151479095Y-83294495D02*
X151526714Y-83199257D01*
X151526714Y-83199257D02*
X151574333Y-83151638D01*
X151574333Y-83151638D02*
X151669571Y-83104019D01*
X151669571Y-83104019D02*
X151907666Y-83104019D01*
X151907666Y-83104019D02*
X152050523Y-83151638D01*
X152812428Y-83580209D02*
X152955285Y-83627828D01*
X152955285Y-83627828D02*
X153002904Y-83675447D01*
X153002904Y-83675447D02*
X153050523Y-83770685D01*
X153050523Y-83770685D02*
X153050523Y-83913542D01*
X153050523Y-83913542D02*
X153002904Y-84008780D01*
X153002904Y-84008780D02*
X152955285Y-84056400D01*
X152955285Y-84056400D02*
X152860047Y-84104019D01*
X152860047Y-84104019D02*
X152479095Y-84104019D01*
X152479095Y-84104019D02*
X152479095Y-83104019D01*
X152479095Y-83104019D02*
X152812428Y-83104019D01*
X152812428Y-83104019D02*
X152907666Y-83151638D01*
X152907666Y-83151638D02*
X152955285Y-83199257D01*
X152955285Y-83199257D02*
X153002904Y-83294495D01*
X153002904Y-83294495D02*
X153002904Y-83389733D01*
X153002904Y-83389733D02*
X152955285Y-83484971D01*
X152955285Y-83484971D02*
X152907666Y-83532590D01*
X152907666Y-83532590D02*
X152812428Y-83580209D01*
X152812428Y-83580209D02*
X152479095Y-83580209D01*
X117157428Y-92546409D02*
X117300285Y-92594028D01*
X117300285Y-92594028D02*
X117347904Y-92641647D01*
X117347904Y-92641647D02*
X117395523Y-92736885D01*
X117395523Y-92736885D02*
X117395523Y-92879742D01*
X117395523Y-92879742D02*
X117347904Y-92974980D01*
X117347904Y-92974980D02*
X117300285Y-93022600D01*
X117300285Y-93022600D02*
X117205047Y-93070219D01*
X117205047Y-93070219D02*
X116824095Y-93070219D01*
X116824095Y-93070219D02*
X116824095Y-92070219D01*
X116824095Y-92070219D02*
X117157428Y-92070219D01*
X117157428Y-92070219D02*
X117252666Y-92117838D01*
X117252666Y-92117838D02*
X117300285Y-92165457D01*
X117300285Y-92165457D02*
X117347904Y-92260695D01*
X117347904Y-92260695D02*
X117347904Y-92355933D01*
X117347904Y-92355933D02*
X117300285Y-92451171D01*
X117300285Y-92451171D02*
X117252666Y-92498790D01*
X117252666Y-92498790D02*
X117157428Y-92546409D01*
X117157428Y-92546409D02*
X116824095Y-92546409D01*
X118014571Y-92070219D02*
X118205047Y-92070219D01*
X118205047Y-92070219D02*
X118300285Y-92117838D01*
X118300285Y-92117838D02*
X118395523Y-92213076D01*
X118395523Y-92213076D02*
X118443142Y-92403552D01*
X118443142Y-92403552D02*
X118443142Y-92736885D01*
X118443142Y-92736885D02*
X118395523Y-92927361D01*
X118395523Y-92927361D02*
X118300285Y-93022600D01*
X118300285Y-93022600D02*
X118205047Y-93070219D01*
X118205047Y-93070219D02*
X118014571Y-93070219D01*
X118014571Y-93070219D02*
X117919333Y-93022600D01*
X117919333Y-93022600D02*
X117824095Y-92927361D01*
X117824095Y-92927361D02*
X117776476Y-92736885D01*
X117776476Y-92736885D02*
X117776476Y-92403552D01*
X117776476Y-92403552D02*
X117824095Y-92213076D01*
X117824095Y-92213076D02*
X117919333Y-92117838D01*
X117919333Y-92117838D02*
X118014571Y-92070219D01*
X119062190Y-92070219D02*
X119252666Y-92070219D01*
X119252666Y-92070219D02*
X119347904Y-92117838D01*
X119347904Y-92117838D02*
X119443142Y-92213076D01*
X119443142Y-92213076D02*
X119490761Y-92403552D01*
X119490761Y-92403552D02*
X119490761Y-92736885D01*
X119490761Y-92736885D02*
X119443142Y-92927361D01*
X119443142Y-92927361D02*
X119347904Y-93022600D01*
X119347904Y-93022600D02*
X119252666Y-93070219D01*
X119252666Y-93070219D02*
X119062190Y-93070219D01*
X119062190Y-93070219D02*
X118966952Y-93022600D01*
X118966952Y-93022600D02*
X118871714Y-92927361D01*
X118871714Y-92927361D02*
X118824095Y-92736885D01*
X118824095Y-92736885D02*
X118824095Y-92403552D01*
X118824095Y-92403552D02*
X118871714Y-92213076D01*
X118871714Y-92213076D02*
X118966952Y-92117838D01*
X118966952Y-92117838D02*
X119062190Y-92070219D01*
X119776476Y-92070219D02*
X120347904Y-92070219D01*
X120062190Y-93070219D02*
X120062190Y-92070219D01*
X128254095Y-102798419D02*
X128254095Y-101798419D01*
X128682666Y-101893657D02*
X128730285Y-101846038D01*
X128730285Y-101846038D02*
X128825523Y-101798419D01*
X128825523Y-101798419D02*
X129063618Y-101798419D01*
X129063618Y-101798419D02*
X129158856Y-101846038D01*
X129158856Y-101846038D02*
X129206475Y-101893657D01*
X129206475Y-101893657D02*
X129254094Y-101988895D01*
X129254094Y-101988895D02*
X129254094Y-102084133D01*
X129254094Y-102084133D02*
X129206475Y-102226990D01*
X129206475Y-102226990D02*
X128635047Y-102798419D01*
X128635047Y-102798419D02*
X129254094Y-102798419D01*
X130254094Y-102703180D02*
X130206475Y-102750800D01*
X130206475Y-102750800D02*
X130063618Y-102798419D01*
X130063618Y-102798419D02*
X129968380Y-102798419D01*
X129968380Y-102798419D02*
X129825523Y-102750800D01*
X129825523Y-102750800D02*
X129730285Y-102655561D01*
X129730285Y-102655561D02*
X129682666Y-102560323D01*
X129682666Y-102560323D02*
X129635047Y-102369847D01*
X129635047Y-102369847D02*
X129635047Y-102226990D01*
X129635047Y-102226990D02*
X129682666Y-102036514D01*
X129682666Y-102036514D02*
X129730285Y-101941276D01*
X129730285Y-101941276D02*
X129825523Y-101846038D01*
X129825523Y-101846038D02*
X129968380Y-101798419D01*
X129968380Y-101798419D02*
X130063618Y-101798419D01*
X130063618Y-101798419D02*
X130206475Y-101846038D01*
X130206475Y-101846038D02*
X130254094Y-101893657D01*
X131251295Y-79903619D02*
X131251295Y-80713142D01*
X131251295Y-80713142D02*
X131298914Y-80808380D01*
X131298914Y-80808380D02*
X131346533Y-80856000D01*
X131346533Y-80856000D02*
X131441771Y-80903619D01*
X131441771Y-80903619D02*
X131632247Y-80903619D01*
X131632247Y-80903619D02*
X131727485Y-80856000D01*
X131727485Y-80856000D02*
X131775104Y-80808380D01*
X131775104Y-80808380D02*
X131822723Y-80713142D01*
X131822723Y-80713142D02*
X131822723Y-79903619D01*
X132251295Y-80617904D02*
X132727485Y-80617904D01*
X132156057Y-80903619D02*
X132489390Y-79903619D01*
X132489390Y-79903619D02*
X132822723Y-80903619D01*
X133727485Y-80903619D02*
X133394152Y-80427428D01*
X133156057Y-80903619D02*
X133156057Y-79903619D01*
X133156057Y-79903619D02*
X133537009Y-79903619D01*
X133537009Y-79903619D02*
X133632247Y-79951238D01*
X133632247Y-79951238D02*
X133679866Y-79998857D01*
X133679866Y-79998857D02*
X133727485Y-80094095D01*
X133727485Y-80094095D02*
X133727485Y-80236952D01*
X133727485Y-80236952D02*
X133679866Y-80332190D01*
X133679866Y-80332190D02*
X133632247Y-80379809D01*
X133632247Y-80379809D02*
X133537009Y-80427428D01*
X133537009Y-80427428D02*
X133156057Y-80427428D01*
X134013200Y-79903619D02*
X134584628Y-79903619D01*
X134298914Y-80903619D02*
X134298914Y-79903619D01*
X142735276Y-80856000D02*
X142878133Y-80903619D01*
X142878133Y-80903619D02*
X143116228Y-80903619D01*
X143116228Y-80903619D02*
X143211466Y-80856000D01*
X143211466Y-80856000D02*
X143259085Y-80808380D01*
X143259085Y-80808380D02*
X143306704Y-80713142D01*
X143306704Y-80713142D02*
X143306704Y-80617904D01*
X143306704Y-80617904D02*
X143259085Y-80522666D01*
X143259085Y-80522666D02*
X143211466Y-80475047D01*
X143211466Y-80475047D02*
X143116228Y-80427428D01*
X143116228Y-80427428D02*
X142925752Y-80379809D01*
X142925752Y-80379809D02*
X142830514Y-80332190D01*
X142830514Y-80332190D02*
X142782895Y-80284571D01*
X142782895Y-80284571D02*
X142735276Y-80189333D01*
X142735276Y-80189333D02*
X142735276Y-80094095D01*
X142735276Y-80094095D02*
X142782895Y-79998857D01*
X142782895Y-79998857D02*
X142830514Y-79951238D01*
X142830514Y-79951238D02*
X142925752Y-79903619D01*
X142925752Y-79903619D02*
X143163847Y-79903619D01*
X143163847Y-79903619D02*
X143306704Y-79951238D01*
X143640038Y-79903619D02*
X143878133Y-80903619D01*
X143878133Y-80903619D02*
X144068609Y-80189333D01*
X144068609Y-80189333D02*
X144259085Y-80903619D01*
X144259085Y-80903619D02*
X144497181Y-79903619D01*
X144878133Y-80903619D02*
X144878133Y-79903619D01*
X144878133Y-79903619D02*
X145116228Y-79903619D01*
X145116228Y-79903619D02*
X145259085Y-79951238D01*
X145259085Y-79951238D02*
X145354323Y-80046476D01*
X145354323Y-80046476D02*
X145401942Y-80141714D01*
X145401942Y-80141714D02*
X145449561Y-80332190D01*
X145449561Y-80332190D02*
X145449561Y-80475047D01*
X145449561Y-80475047D02*
X145401942Y-80665523D01*
X145401942Y-80665523D02*
X145354323Y-80760761D01*
X145354323Y-80760761D02*
X145259085Y-80856000D01*
X145259085Y-80856000D02*
X145116228Y-80903619D01*
X145116228Y-80903619D02*
X144878133Y-80903619D01*
%TO.C,C7*%
X132475380Y-84545466D02*
X132523000Y-84593085D01*
X132523000Y-84593085D02*
X132570619Y-84735942D01*
X132570619Y-84735942D02*
X132570619Y-84831180D01*
X132570619Y-84831180D02*
X132523000Y-84974037D01*
X132523000Y-84974037D02*
X132427761Y-85069275D01*
X132427761Y-85069275D02*
X132332523Y-85116894D01*
X132332523Y-85116894D02*
X132142047Y-85164513D01*
X132142047Y-85164513D02*
X131999190Y-85164513D01*
X131999190Y-85164513D02*
X131808714Y-85116894D01*
X131808714Y-85116894D02*
X131713476Y-85069275D01*
X131713476Y-85069275D02*
X131618238Y-84974037D01*
X131618238Y-84974037D02*
X131570619Y-84831180D01*
X131570619Y-84831180D02*
X131570619Y-84735942D01*
X131570619Y-84735942D02*
X131618238Y-84593085D01*
X131618238Y-84593085D02*
X131665857Y-84545466D01*
X131570619Y-84212132D02*
X131570619Y-83545466D01*
X131570619Y-83545466D02*
X132570619Y-83974037D01*
%TO.C,C6*%
X142301933Y-87311580D02*
X142254314Y-87359200D01*
X142254314Y-87359200D02*
X142111457Y-87406819D01*
X142111457Y-87406819D02*
X142016219Y-87406819D01*
X142016219Y-87406819D02*
X141873362Y-87359200D01*
X141873362Y-87359200D02*
X141778124Y-87263961D01*
X141778124Y-87263961D02*
X141730505Y-87168723D01*
X141730505Y-87168723D02*
X141682886Y-86978247D01*
X141682886Y-86978247D02*
X141682886Y-86835390D01*
X141682886Y-86835390D02*
X141730505Y-86644914D01*
X141730505Y-86644914D02*
X141778124Y-86549676D01*
X141778124Y-86549676D02*
X141873362Y-86454438D01*
X141873362Y-86454438D02*
X142016219Y-86406819D01*
X142016219Y-86406819D02*
X142111457Y-86406819D01*
X142111457Y-86406819D02*
X142254314Y-86454438D01*
X142254314Y-86454438D02*
X142301933Y-86502057D01*
X143159076Y-86406819D02*
X142968600Y-86406819D01*
X142968600Y-86406819D02*
X142873362Y-86454438D01*
X142873362Y-86454438D02*
X142825743Y-86502057D01*
X142825743Y-86502057D02*
X142730505Y-86644914D01*
X142730505Y-86644914D02*
X142682886Y-86835390D01*
X142682886Y-86835390D02*
X142682886Y-87216342D01*
X142682886Y-87216342D02*
X142730505Y-87311580D01*
X142730505Y-87311580D02*
X142778124Y-87359200D01*
X142778124Y-87359200D02*
X142873362Y-87406819D01*
X142873362Y-87406819D02*
X143063838Y-87406819D01*
X143063838Y-87406819D02*
X143159076Y-87359200D01*
X143159076Y-87359200D02*
X143206695Y-87311580D01*
X143206695Y-87311580D02*
X143254314Y-87216342D01*
X143254314Y-87216342D02*
X143254314Y-86978247D01*
X143254314Y-86978247D02*
X143206695Y-86883009D01*
X143206695Y-86883009D02*
X143159076Y-86835390D01*
X143159076Y-86835390D02*
X143063838Y-86787771D01*
X143063838Y-86787771D02*
X142873362Y-86787771D01*
X142873362Y-86787771D02*
X142778124Y-86835390D01*
X142778124Y-86835390D02*
X142730505Y-86883009D01*
X142730505Y-86883009D02*
X142682886Y-86978247D01*
%TO.C,C5*%
X139888933Y-96455580D02*
X139841314Y-96503200D01*
X139841314Y-96503200D02*
X139698457Y-96550819D01*
X139698457Y-96550819D02*
X139603219Y-96550819D01*
X139603219Y-96550819D02*
X139460362Y-96503200D01*
X139460362Y-96503200D02*
X139365124Y-96407961D01*
X139365124Y-96407961D02*
X139317505Y-96312723D01*
X139317505Y-96312723D02*
X139269886Y-96122247D01*
X139269886Y-96122247D02*
X139269886Y-95979390D01*
X139269886Y-95979390D02*
X139317505Y-95788914D01*
X139317505Y-95788914D02*
X139365124Y-95693676D01*
X139365124Y-95693676D02*
X139460362Y-95598438D01*
X139460362Y-95598438D02*
X139603219Y-95550819D01*
X139603219Y-95550819D02*
X139698457Y-95550819D01*
X139698457Y-95550819D02*
X139841314Y-95598438D01*
X139841314Y-95598438D02*
X139888933Y-95646057D01*
X140793695Y-95550819D02*
X140317505Y-95550819D01*
X140317505Y-95550819D02*
X140269886Y-96027009D01*
X140269886Y-96027009D02*
X140317505Y-95979390D01*
X140317505Y-95979390D02*
X140412743Y-95931771D01*
X140412743Y-95931771D02*
X140650838Y-95931771D01*
X140650838Y-95931771D02*
X140746076Y-95979390D01*
X140746076Y-95979390D02*
X140793695Y-96027009D01*
X140793695Y-96027009D02*
X140841314Y-96122247D01*
X140841314Y-96122247D02*
X140841314Y-96360342D01*
X140841314Y-96360342D02*
X140793695Y-96455580D01*
X140793695Y-96455580D02*
X140746076Y-96503200D01*
X140746076Y-96503200D02*
X140650838Y-96550819D01*
X140650838Y-96550819D02*
X140412743Y-96550819D01*
X140412743Y-96550819D02*
X140317505Y-96503200D01*
X140317505Y-96503200D02*
X140269886Y-96455580D01*
%TO.C,Y1*%
X123171009Y-92442428D02*
X123171009Y-92918619D01*
X122837676Y-91918619D02*
X123171009Y-92442428D01*
X123171009Y-92442428D02*
X123504342Y-91918619D01*
X124361485Y-92918619D02*
X123790057Y-92918619D01*
X124075771Y-92918619D02*
X124075771Y-91918619D01*
X124075771Y-91918619D02*
X123980533Y-92061476D01*
X123980533Y-92061476D02*
X123885295Y-92156714D01*
X123885295Y-92156714D02*
X123790057Y-92204333D01*
%TO.C,U1*%
X135534495Y-88057819D02*
X135534495Y-88867342D01*
X135534495Y-88867342D02*
X135582114Y-88962580D01*
X135582114Y-88962580D02*
X135629733Y-89010200D01*
X135629733Y-89010200D02*
X135724971Y-89057819D01*
X135724971Y-89057819D02*
X135915447Y-89057819D01*
X135915447Y-89057819D02*
X136010685Y-89010200D01*
X136010685Y-89010200D02*
X136058304Y-88962580D01*
X136058304Y-88962580D02*
X136105923Y-88867342D01*
X136105923Y-88867342D02*
X136105923Y-88057819D01*
X137105923Y-89057819D02*
X136534495Y-89057819D01*
X136820209Y-89057819D02*
X136820209Y-88057819D01*
X136820209Y-88057819D02*
X136724971Y-88200676D01*
X136724971Y-88200676D02*
X136629733Y-88295914D01*
X136629733Y-88295914D02*
X136534495Y-88343533D01*
%TO.C,R5*%
X137833333Y-100062619D02*
X137500000Y-99586428D01*
X137261905Y-100062619D02*
X137261905Y-99062619D01*
X137261905Y-99062619D02*
X137642857Y-99062619D01*
X137642857Y-99062619D02*
X137738095Y-99110238D01*
X137738095Y-99110238D02*
X137785714Y-99157857D01*
X137785714Y-99157857D02*
X137833333Y-99253095D01*
X137833333Y-99253095D02*
X137833333Y-99395952D01*
X137833333Y-99395952D02*
X137785714Y-99491190D01*
X137785714Y-99491190D02*
X137738095Y-99538809D01*
X137738095Y-99538809D02*
X137642857Y-99586428D01*
X137642857Y-99586428D02*
X137261905Y-99586428D01*
X138738095Y-99062619D02*
X138261905Y-99062619D01*
X138261905Y-99062619D02*
X138214286Y-99538809D01*
X138214286Y-99538809D02*
X138261905Y-99491190D01*
X138261905Y-99491190D02*
X138357143Y-99443571D01*
X138357143Y-99443571D02*
X138595238Y-99443571D01*
X138595238Y-99443571D02*
X138690476Y-99491190D01*
X138690476Y-99491190D02*
X138738095Y-99538809D01*
X138738095Y-99538809D02*
X138785714Y-99634047D01*
X138785714Y-99634047D02*
X138785714Y-99872142D01*
X138785714Y-99872142D02*
X138738095Y-99967380D01*
X138738095Y-99967380D02*
X138690476Y-100015000D01*
X138690476Y-100015000D02*
X138595238Y-100062619D01*
X138595238Y-100062619D02*
X138357143Y-100062619D01*
X138357143Y-100062619D02*
X138261905Y-100015000D01*
X138261905Y-100015000D02*
X138214286Y-99967380D01*
%TO.C,R4*%
X131333333Y-100062619D02*
X131000000Y-99586428D01*
X130761905Y-100062619D02*
X130761905Y-99062619D01*
X130761905Y-99062619D02*
X131142857Y-99062619D01*
X131142857Y-99062619D02*
X131238095Y-99110238D01*
X131238095Y-99110238D02*
X131285714Y-99157857D01*
X131285714Y-99157857D02*
X131333333Y-99253095D01*
X131333333Y-99253095D02*
X131333333Y-99395952D01*
X131333333Y-99395952D02*
X131285714Y-99491190D01*
X131285714Y-99491190D02*
X131238095Y-99538809D01*
X131238095Y-99538809D02*
X131142857Y-99586428D01*
X131142857Y-99586428D02*
X130761905Y-99586428D01*
X132190476Y-99395952D02*
X132190476Y-100062619D01*
X131952381Y-99015000D02*
X131714286Y-99729285D01*
X131714286Y-99729285D02*
X132333333Y-99729285D01*
%TO.C,R1*%
X149439333Y-95407819D02*
X149106000Y-94931628D01*
X148867905Y-95407819D02*
X148867905Y-94407819D01*
X148867905Y-94407819D02*
X149248857Y-94407819D01*
X149248857Y-94407819D02*
X149344095Y-94455438D01*
X149344095Y-94455438D02*
X149391714Y-94503057D01*
X149391714Y-94503057D02*
X149439333Y-94598295D01*
X149439333Y-94598295D02*
X149439333Y-94741152D01*
X149439333Y-94741152D02*
X149391714Y-94836390D01*
X149391714Y-94836390D02*
X149344095Y-94884009D01*
X149344095Y-94884009D02*
X149248857Y-94931628D01*
X149248857Y-94931628D02*
X148867905Y-94931628D01*
X150391714Y-95407819D02*
X149820286Y-95407819D01*
X150106000Y-95407819D02*
X150106000Y-94407819D01*
X150106000Y-94407819D02*
X150010762Y-94550676D01*
X150010762Y-94550676D02*
X149915524Y-94645914D01*
X149915524Y-94645914D02*
X149820286Y-94693533D01*
%TO.C,R3*%
X146717419Y-89119466D02*
X146241228Y-89452799D01*
X146717419Y-89690894D02*
X145717419Y-89690894D01*
X145717419Y-89690894D02*
X145717419Y-89309942D01*
X145717419Y-89309942D02*
X145765038Y-89214704D01*
X145765038Y-89214704D02*
X145812657Y-89167085D01*
X145812657Y-89167085D02*
X145907895Y-89119466D01*
X145907895Y-89119466D02*
X146050752Y-89119466D01*
X146050752Y-89119466D02*
X146145990Y-89167085D01*
X146145990Y-89167085D02*
X146193609Y-89214704D01*
X146193609Y-89214704D02*
X146241228Y-89309942D01*
X146241228Y-89309942D02*
X146241228Y-89690894D01*
X145717419Y-88786132D02*
X145717419Y-88167085D01*
X145717419Y-88167085D02*
X146098371Y-88500418D01*
X146098371Y-88500418D02*
X146098371Y-88357561D01*
X146098371Y-88357561D02*
X146145990Y-88262323D01*
X146145990Y-88262323D02*
X146193609Y-88214704D01*
X146193609Y-88214704D02*
X146288847Y-88167085D01*
X146288847Y-88167085D02*
X146526942Y-88167085D01*
X146526942Y-88167085D02*
X146622180Y-88214704D01*
X146622180Y-88214704D02*
X146669800Y-88262323D01*
X146669800Y-88262323D02*
X146717419Y-88357561D01*
X146717419Y-88357561D02*
X146717419Y-88643275D01*
X146717419Y-88643275D02*
X146669800Y-88738513D01*
X146669800Y-88738513D02*
X146622180Y-88786132D01*
%TO.C,R2*%
X126784533Y-82757019D02*
X126451200Y-82280828D01*
X126213105Y-82757019D02*
X126213105Y-81757019D01*
X126213105Y-81757019D02*
X126594057Y-81757019D01*
X126594057Y-81757019D02*
X126689295Y-81804638D01*
X126689295Y-81804638D02*
X126736914Y-81852257D01*
X126736914Y-81852257D02*
X126784533Y-81947495D01*
X126784533Y-81947495D02*
X126784533Y-82090352D01*
X126784533Y-82090352D02*
X126736914Y-82185590D01*
X126736914Y-82185590D02*
X126689295Y-82233209D01*
X126689295Y-82233209D02*
X126594057Y-82280828D01*
X126594057Y-82280828D02*
X126213105Y-82280828D01*
X127165486Y-81852257D02*
X127213105Y-81804638D01*
X127213105Y-81804638D02*
X127308343Y-81757019D01*
X127308343Y-81757019D02*
X127546438Y-81757019D01*
X127546438Y-81757019D02*
X127641676Y-81804638D01*
X127641676Y-81804638D02*
X127689295Y-81852257D01*
X127689295Y-81852257D02*
X127736914Y-81947495D01*
X127736914Y-81947495D02*
X127736914Y-82042733D01*
X127736914Y-82042733D02*
X127689295Y-82185590D01*
X127689295Y-82185590D02*
X127117867Y-82757019D01*
X127117867Y-82757019D02*
X127736914Y-82757019D01*
%TO.C,J3*%
X137266666Y-80062619D02*
X137266666Y-80776904D01*
X137266666Y-80776904D02*
X137219047Y-80919761D01*
X137219047Y-80919761D02*
X137123809Y-81015000D01*
X137123809Y-81015000D02*
X136980952Y-81062619D01*
X136980952Y-81062619D02*
X136885714Y-81062619D01*
X137647619Y-80062619D02*
X138266666Y-80062619D01*
X138266666Y-80062619D02*
X137933333Y-80443571D01*
X137933333Y-80443571D02*
X138076190Y-80443571D01*
X138076190Y-80443571D02*
X138171428Y-80491190D01*
X138171428Y-80491190D02*
X138219047Y-80538809D01*
X138219047Y-80538809D02*
X138266666Y-80634047D01*
X138266666Y-80634047D02*
X138266666Y-80872142D01*
X138266666Y-80872142D02*
X138219047Y-80967380D01*
X138219047Y-80967380D02*
X138171428Y-81015000D01*
X138171428Y-81015000D02*
X138076190Y-81062619D01*
X138076190Y-81062619D02*
X137790476Y-81062619D01*
X137790476Y-81062619D02*
X137695238Y-81015000D01*
X137695238Y-81015000D02*
X137647619Y-80967380D01*
%TO.C,J2*%
X147466666Y-80062619D02*
X147466666Y-80776904D01*
X147466666Y-80776904D02*
X147419047Y-80919761D01*
X147419047Y-80919761D02*
X147323809Y-81015000D01*
X147323809Y-81015000D02*
X147180952Y-81062619D01*
X147180952Y-81062619D02*
X147085714Y-81062619D01*
X147895238Y-80157857D02*
X147942857Y-80110238D01*
X147942857Y-80110238D02*
X148038095Y-80062619D01*
X148038095Y-80062619D02*
X148276190Y-80062619D01*
X148276190Y-80062619D02*
X148371428Y-80110238D01*
X148371428Y-80110238D02*
X148419047Y-80157857D01*
X148419047Y-80157857D02*
X148466666Y-80253095D01*
X148466666Y-80253095D02*
X148466666Y-80348333D01*
X148466666Y-80348333D02*
X148419047Y-80491190D01*
X148419047Y-80491190D02*
X147847619Y-81062619D01*
X147847619Y-81062619D02*
X148466666Y-81062619D01*
%TO.C,FB1*%
X130408466Y-97881209D02*
X130075133Y-97881209D01*
X130075133Y-98405019D02*
X130075133Y-97405019D01*
X130075133Y-97405019D02*
X130551323Y-97405019D01*
X131265609Y-97881209D02*
X131408466Y-97928828D01*
X131408466Y-97928828D02*
X131456085Y-97976447D01*
X131456085Y-97976447D02*
X131503704Y-98071685D01*
X131503704Y-98071685D02*
X131503704Y-98214542D01*
X131503704Y-98214542D02*
X131456085Y-98309780D01*
X131456085Y-98309780D02*
X131408466Y-98357400D01*
X131408466Y-98357400D02*
X131313228Y-98405019D01*
X131313228Y-98405019D02*
X130932276Y-98405019D01*
X130932276Y-98405019D02*
X130932276Y-97405019D01*
X130932276Y-97405019D02*
X131265609Y-97405019D01*
X131265609Y-97405019D02*
X131360847Y-97452638D01*
X131360847Y-97452638D02*
X131408466Y-97500257D01*
X131408466Y-97500257D02*
X131456085Y-97595495D01*
X131456085Y-97595495D02*
X131456085Y-97690733D01*
X131456085Y-97690733D02*
X131408466Y-97785971D01*
X131408466Y-97785971D02*
X131360847Y-97833590D01*
X131360847Y-97833590D02*
X131265609Y-97881209D01*
X131265609Y-97881209D02*
X130932276Y-97881209D01*
X132456085Y-98405019D02*
X131884657Y-98405019D01*
X132170371Y-98405019D02*
X132170371Y-97405019D01*
X132170371Y-97405019D02*
X132075133Y-97547876D01*
X132075133Y-97547876D02*
X131979895Y-97643114D01*
X131979895Y-97643114D02*
X131884657Y-97690733D01*
%TO.C,D1*%
X150087105Y-101376819D02*
X150087105Y-100376819D01*
X150087105Y-100376819D02*
X150325200Y-100376819D01*
X150325200Y-100376819D02*
X150468057Y-100424438D01*
X150468057Y-100424438D02*
X150563295Y-100519676D01*
X150563295Y-100519676D02*
X150610914Y-100614914D01*
X150610914Y-100614914D02*
X150658533Y-100805390D01*
X150658533Y-100805390D02*
X150658533Y-100948247D01*
X150658533Y-100948247D02*
X150610914Y-101138723D01*
X150610914Y-101138723D02*
X150563295Y-101233961D01*
X150563295Y-101233961D02*
X150468057Y-101329200D01*
X150468057Y-101329200D02*
X150325200Y-101376819D01*
X150325200Y-101376819D02*
X150087105Y-101376819D01*
X151610914Y-101376819D02*
X151039486Y-101376819D01*
X151325200Y-101376819D02*
X151325200Y-100376819D01*
X151325200Y-100376819D02*
X151229962Y-100519676D01*
X151229962Y-100519676D02*
X151134724Y-100614914D01*
X151134724Y-100614914D02*
X151039486Y-100662533D01*
%TO.C,C2*%
X148674133Y-97979780D02*
X148626514Y-98027400D01*
X148626514Y-98027400D02*
X148483657Y-98075019D01*
X148483657Y-98075019D02*
X148388419Y-98075019D01*
X148388419Y-98075019D02*
X148245562Y-98027400D01*
X148245562Y-98027400D02*
X148150324Y-97932161D01*
X148150324Y-97932161D02*
X148102705Y-97836923D01*
X148102705Y-97836923D02*
X148055086Y-97646447D01*
X148055086Y-97646447D02*
X148055086Y-97503590D01*
X148055086Y-97503590D02*
X148102705Y-97313114D01*
X148102705Y-97313114D02*
X148150324Y-97217876D01*
X148150324Y-97217876D02*
X148245562Y-97122638D01*
X148245562Y-97122638D02*
X148388419Y-97075019D01*
X148388419Y-97075019D02*
X148483657Y-97075019D01*
X148483657Y-97075019D02*
X148626514Y-97122638D01*
X148626514Y-97122638D02*
X148674133Y-97170257D01*
X149055086Y-97170257D02*
X149102705Y-97122638D01*
X149102705Y-97122638D02*
X149197943Y-97075019D01*
X149197943Y-97075019D02*
X149436038Y-97075019D01*
X149436038Y-97075019D02*
X149531276Y-97122638D01*
X149531276Y-97122638D02*
X149578895Y-97170257D01*
X149578895Y-97170257D02*
X149626514Y-97265495D01*
X149626514Y-97265495D02*
X149626514Y-97360733D01*
X149626514Y-97360733D02*
X149578895Y-97503590D01*
X149578895Y-97503590D02*
X149007467Y-98075019D01*
X149007467Y-98075019D02*
X149626514Y-98075019D01*
%TO.C,C1*%
X142482333Y-92315380D02*
X142434714Y-92363000D01*
X142434714Y-92363000D02*
X142291857Y-92410619D01*
X142291857Y-92410619D02*
X142196619Y-92410619D01*
X142196619Y-92410619D02*
X142053762Y-92363000D01*
X142053762Y-92363000D02*
X141958524Y-92267761D01*
X141958524Y-92267761D02*
X141910905Y-92172523D01*
X141910905Y-92172523D02*
X141863286Y-91982047D01*
X141863286Y-91982047D02*
X141863286Y-91839190D01*
X141863286Y-91839190D02*
X141910905Y-91648714D01*
X141910905Y-91648714D02*
X141958524Y-91553476D01*
X141958524Y-91553476D02*
X142053762Y-91458238D01*
X142053762Y-91458238D02*
X142196619Y-91410619D01*
X142196619Y-91410619D02*
X142291857Y-91410619D01*
X142291857Y-91410619D02*
X142434714Y-91458238D01*
X142434714Y-91458238D02*
X142482333Y-91505857D01*
X143434714Y-92410619D02*
X142863286Y-92410619D01*
X143149000Y-92410619D02*
X143149000Y-91410619D01*
X143149000Y-91410619D02*
X143053762Y-91553476D01*
X143053762Y-91553476D02*
X142958524Y-91648714D01*
X142958524Y-91648714D02*
X142863286Y-91696333D01*
%TO.C,C13*%
X126255542Y-93763180D02*
X126207923Y-93810800D01*
X126207923Y-93810800D02*
X126065066Y-93858419D01*
X126065066Y-93858419D02*
X125969828Y-93858419D01*
X125969828Y-93858419D02*
X125826971Y-93810800D01*
X125826971Y-93810800D02*
X125731733Y-93715561D01*
X125731733Y-93715561D02*
X125684114Y-93620323D01*
X125684114Y-93620323D02*
X125636495Y-93429847D01*
X125636495Y-93429847D02*
X125636495Y-93286990D01*
X125636495Y-93286990D02*
X125684114Y-93096514D01*
X125684114Y-93096514D02*
X125731733Y-93001276D01*
X125731733Y-93001276D02*
X125826971Y-92906038D01*
X125826971Y-92906038D02*
X125969828Y-92858419D01*
X125969828Y-92858419D02*
X126065066Y-92858419D01*
X126065066Y-92858419D02*
X126207923Y-92906038D01*
X126207923Y-92906038D02*
X126255542Y-92953657D01*
X127207923Y-93858419D02*
X126636495Y-93858419D01*
X126922209Y-93858419D02*
X126922209Y-92858419D01*
X126922209Y-92858419D02*
X126826971Y-93001276D01*
X126826971Y-93001276D02*
X126731733Y-93096514D01*
X126731733Y-93096514D02*
X126636495Y-93144133D01*
X127541257Y-92858419D02*
X128160304Y-92858419D01*
X128160304Y-92858419D02*
X127826971Y-93239371D01*
X127826971Y-93239371D02*
X127969828Y-93239371D01*
X127969828Y-93239371D02*
X128065066Y-93286990D01*
X128065066Y-93286990D02*
X128112685Y-93334609D01*
X128112685Y-93334609D02*
X128160304Y-93429847D01*
X128160304Y-93429847D02*
X128160304Y-93667942D01*
X128160304Y-93667942D02*
X128112685Y-93763180D01*
X128112685Y-93763180D02*
X128065066Y-93810800D01*
X128065066Y-93810800D02*
X127969828Y-93858419D01*
X127969828Y-93858419D02*
X127684114Y-93858419D01*
X127684114Y-93858419D02*
X127588876Y-93810800D01*
X127588876Y-93810800D02*
X127541257Y-93763180D01*
%TO.C,C12*%
X126757142Y-88267380D02*
X126709523Y-88315000D01*
X126709523Y-88315000D02*
X126566666Y-88362619D01*
X126566666Y-88362619D02*
X126471428Y-88362619D01*
X126471428Y-88362619D02*
X126328571Y-88315000D01*
X126328571Y-88315000D02*
X126233333Y-88219761D01*
X126233333Y-88219761D02*
X126185714Y-88124523D01*
X126185714Y-88124523D02*
X126138095Y-87934047D01*
X126138095Y-87934047D02*
X126138095Y-87791190D01*
X126138095Y-87791190D02*
X126185714Y-87600714D01*
X126185714Y-87600714D02*
X126233333Y-87505476D01*
X126233333Y-87505476D02*
X126328571Y-87410238D01*
X126328571Y-87410238D02*
X126471428Y-87362619D01*
X126471428Y-87362619D02*
X126566666Y-87362619D01*
X126566666Y-87362619D02*
X126709523Y-87410238D01*
X126709523Y-87410238D02*
X126757142Y-87457857D01*
X127709523Y-88362619D02*
X127138095Y-88362619D01*
X127423809Y-88362619D02*
X127423809Y-87362619D01*
X127423809Y-87362619D02*
X127328571Y-87505476D01*
X127328571Y-87505476D02*
X127233333Y-87600714D01*
X127233333Y-87600714D02*
X127138095Y-87648333D01*
X128090476Y-87457857D02*
X128138095Y-87410238D01*
X128138095Y-87410238D02*
X128233333Y-87362619D01*
X128233333Y-87362619D02*
X128471428Y-87362619D01*
X128471428Y-87362619D02*
X128566666Y-87410238D01*
X128566666Y-87410238D02*
X128614285Y-87457857D01*
X128614285Y-87457857D02*
X128661904Y-87553095D01*
X128661904Y-87553095D02*
X128661904Y-87648333D01*
X128661904Y-87648333D02*
X128614285Y-87791190D01*
X128614285Y-87791190D02*
X128042857Y-88362619D01*
X128042857Y-88362619D02*
X128661904Y-88362619D01*
%TO.C,C11*%
X133057142Y-98367380D02*
X133009523Y-98415000D01*
X133009523Y-98415000D02*
X132866666Y-98462619D01*
X132866666Y-98462619D02*
X132771428Y-98462619D01*
X132771428Y-98462619D02*
X132628571Y-98415000D01*
X132628571Y-98415000D02*
X132533333Y-98319761D01*
X132533333Y-98319761D02*
X132485714Y-98224523D01*
X132485714Y-98224523D02*
X132438095Y-98034047D01*
X132438095Y-98034047D02*
X132438095Y-97891190D01*
X132438095Y-97891190D02*
X132485714Y-97700714D01*
X132485714Y-97700714D02*
X132533333Y-97605476D01*
X132533333Y-97605476D02*
X132628571Y-97510238D01*
X132628571Y-97510238D02*
X132771428Y-97462619D01*
X132771428Y-97462619D02*
X132866666Y-97462619D01*
X132866666Y-97462619D02*
X133009523Y-97510238D01*
X133009523Y-97510238D02*
X133057142Y-97557857D01*
X134009523Y-98462619D02*
X133438095Y-98462619D01*
X133723809Y-98462619D02*
X133723809Y-97462619D01*
X133723809Y-97462619D02*
X133628571Y-97605476D01*
X133628571Y-97605476D02*
X133533333Y-97700714D01*
X133533333Y-97700714D02*
X133438095Y-97748333D01*
X134961904Y-98462619D02*
X134390476Y-98462619D01*
X134676190Y-98462619D02*
X134676190Y-97462619D01*
X134676190Y-97462619D02*
X134580952Y-97605476D01*
X134580952Y-97605476D02*
X134485714Y-97700714D01*
X134485714Y-97700714D02*
X134390476Y-97748333D01*
%TO.C,C10*%
X125807142Y-97088980D02*
X125759523Y-97136600D01*
X125759523Y-97136600D02*
X125616666Y-97184219D01*
X125616666Y-97184219D02*
X125521428Y-97184219D01*
X125521428Y-97184219D02*
X125378571Y-97136600D01*
X125378571Y-97136600D02*
X125283333Y-97041361D01*
X125283333Y-97041361D02*
X125235714Y-96946123D01*
X125235714Y-96946123D02*
X125188095Y-96755647D01*
X125188095Y-96755647D02*
X125188095Y-96612790D01*
X125188095Y-96612790D02*
X125235714Y-96422314D01*
X125235714Y-96422314D02*
X125283333Y-96327076D01*
X125283333Y-96327076D02*
X125378571Y-96231838D01*
X125378571Y-96231838D02*
X125521428Y-96184219D01*
X125521428Y-96184219D02*
X125616666Y-96184219D01*
X125616666Y-96184219D02*
X125759523Y-96231838D01*
X125759523Y-96231838D02*
X125807142Y-96279457D01*
X126759523Y-97184219D02*
X126188095Y-97184219D01*
X126473809Y-97184219D02*
X126473809Y-96184219D01*
X126473809Y-96184219D02*
X126378571Y-96327076D01*
X126378571Y-96327076D02*
X126283333Y-96422314D01*
X126283333Y-96422314D02*
X126188095Y-96469933D01*
X127378571Y-96184219D02*
X127473809Y-96184219D01*
X127473809Y-96184219D02*
X127569047Y-96231838D01*
X127569047Y-96231838D02*
X127616666Y-96279457D01*
X127616666Y-96279457D02*
X127664285Y-96374695D01*
X127664285Y-96374695D02*
X127711904Y-96565171D01*
X127711904Y-96565171D02*
X127711904Y-96803266D01*
X127711904Y-96803266D02*
X127664285Y-96993742D01*
X127664285Y-96993742D02*
X127616666Y-97088980D01*
X127616666Y-97088980D02*
X127569047Y-97136600D01*
X127569047Y-97136600D02*
X127473809Y-97184219D01*
X127473809Y-97184219D02*
X127378571Y-97184219D01*
X127378571Y-97184219D02*
X127283333Y-97136600D01*
X127283333Y-97136600D02*
X127235714Y-97088980D01*
X127235714Y-97088980D02*
X127188095Y-96993742D01*
X127188095Y-96993742D02*
X127140476Y-96803266D01*
X127140476Y-96803266D02*
X127140476Y-96565171D01*
X127140476Y-96565171D02*
X127188095Y-96374695D01*
X127188095Y-96374695D02*
X127235714Y-96279457D01*
X127235714Y-96279457D02*
X127283333Y-96231838D01*
X127283333Y-96231838D02*
X127378571Y-96184219D01*
%TO.C,C9*%
X126885333Y-95615780D02*
X126837714Y-95663400D01*
X126837714Y-95663400D02*
X126694857Y-95711019D01*
X126694857Y-95711019D02*
X126599619Y-95711019D01*
X126599619Y-95711019D02*
X126456762Y-95663400D01*
X126456762Y-95663400D02*
X126361524Y-95568161D01*
X126361524Y-95568161D02*
X126313905Y-95472923D01*
X126313905Y-95472923D02*
X126266286Y-95282447D01*
X126266286Y-95282447D02*
X126266286Y-95139590D01*
X126266286Y-95139590D02*
X126313905Y-94949114D01*
X126313905Y-94949114D02*
X126361524Y-94853876D01*
X126361524Y-94853876D02*
X126456762Y-94758638D01*
X126456762Y-94758638D02*
X126599619Y-94711019D01*
X126599619Y-94711019D02*
X126694857Y-94711019D01*
X126694857Y-94711019D02*
X126837714Y-94758638D01*
X126837714Y-94758638D02*
X126885333Y-94806257D01*
X127361524Y-95711019D02*
X127552000Y-95711019D01*
X127552000Y-95711019D02*
X127647238Y-95663400D01*
X127647238Y-95663400D02*
X127694857Y-95615780D01*
X127694857Y-95615780D02*
X127790095Y-95472923D01*
X127790095Y-95472923D02*
X127837714Y-95282447D01*
X127837714Y-95282447D02*
X127837714Y-94901495D01*
X127837714Y-94901495D02*
X127790095Y-94806257D01*
X127790095Y-94806257D02*
X127742476Y-94758638D01*
X127742476Y-94758638D02*
X127647238Y-94711019D01*
X127647238Y-94711019D02*
X127456762Y-94711019D01*
X127456762Y-94711019D02*
X127361524Y-94758638D01*
X127361524Y-94758638D02*
X127313905Y-94806257D01*
X127313905Y-94806257D02*
X127266286Y-94901495D01*
X127266286Y-94901495D02*
X127266286Y-95139590D01*
X127266286Y-95139590D02*
X127313905Y-95234828D01*
X127313905Y-95234828D02*
X127361524Y-95282447D01*
X127361524Y-95282447D02*
X127456762Y-95330066D01*
X127456762Y-95330066D02*
X127647238Y-95330066D01*
X127647238Y-95330066D02*
X127742476Y-95282447D01*
X127742476Y-95282447D02*
X127790095Y-95234828D01*
X127790095Y-95234828D02*
X127837714Y-95139590D01*
%TO.C,C8*%
X130033333Y-93767380D02*
X129985714Y-93815000D01*
X129985714Y-93815000D02*
X129842857Y-93862619D01*
X129842857Y-93862619D02*
X129747619Y-93862619D01*
X129747619Y-93862619D02*
X129604762Y-93815000D01*
X129604762Y-93815000D02*
X129509524Y-93719761D01*
X129509524Y-93719761D02*
X129461905Y-93624523D01*
X129461905Y-93624523D02*
X129414286Y-93434047D01*
X129414286Y-93434047D02*
X129414286Y-93291190D01*
X129414286Y-93291190D02*
X129461905Y-93100714D01*
X129461905Y-93100714D02*
X129509524Y-93005476D01*
X129509524Y-93005476D02*
X129604762Y-92910238D01*
X129604762Y-92910238D02*
X129747619Y-92862619D01*
X129747619Y-92862619D02*
X129842857Y-92862619D01*
X129842857Y-92862619D02*
X129985714Y-92910238D01*
X129985714Y-92910238D02*
X130033333Y-92957857D01*
X130604762Y-93291190D02*
X130509524Y-93243571D01*
X130509524Y-93243571D02*
X130461905Y-93195952D01*
X130461905Y-93195952D02*
X130414286Y-93100714D01*
X130414286Y-93100714D02*
X130414286Y-93053095D01*
X130414286Y-93053095D02*
X130461905Y-92957857D01*
X130461905Y-92957857D02*
X130509524Y-92910238D01*
X130509524Y-92910238D02*
X130604762Y-92862619D01*
X130604762Y-92862619D02*
X130795238Y-92862619D01*
X130795238Y-92862619D02*
X130890476Y-92910238D01*
X130890476Y-92910238D02*
X130938095Y-92957857D01*
X130938095Y-92957857D02*
X130985714Y-93053095D01*
X130985714Y-93053095D02*
X130985714Y-93100714D01*
X130985714Y-93100714D02*
X130938095Y-93195952D01*
X130938095Y-93195952D02*
X130890476Y-93243571D01*
X130890476Y-93243571D02*
X130795238Y-93291190D01*
X130795238Y-93291190D02*
X130604762Y-93291190D01*
X130604762Y-93291190D02*
X130509524Y-93338809D01*
X130509524Y-93338809D02*
X130461905Y-93386428D01*
X130461905Y-93386428D02*
X130414286Y-93481666D01*
X130414286Y-93481666D02*
X130414286Y-93672142D01*
X130414286Y-93672142D02*
X130461905Y-93767380D01*
X130461905Y-93767380D02*
X130509524Y-93815000D01*
X130509524Y-93815000D02*
X130604762Y-93862619D01*
X130604762Y-93862619D02*
X130795238Y-93862619D01*
X130795238Y-93862619D02*
X130890476Y-93815000D01*
X130890476Y-93815000D02*
X130938095Y-93767380D01*
X130938095Y-93767380D02*
X130985714Y-93672142D01*
X130985714Y-93672142D02*
X130985714Y-93481666D01*
X130985714Y-93481666D02*
X130938095Y-93386428D01*
X130938095Y-93386428D02*
X130890476Y-93338809D01*
X130890476Y-93338809D02*
X130795238Y-93291190D01*
%TO.C,C3*%
X131233333Y-82067380D02*
X131185714Y-82115000D01*
X131185714Y-82115000D02*
X131042857Y-82162619D01*
X131042857Y-82162619D02*
X130947619Y-82162619D01*
X130947619Y-82162619D02*
X130804762Y-82115000D01*
X130804762Y-82115000D02*
X130709524Y-82019761D01*
X130709524Y-82019761D02*
X130661905Y-81924523D01*
X130661905Y-81924523D02*
X130614286Y-81734047D01*
X130614286Y-81734047D02*
X130614286Y-81591190D01*
X130614286Y-81591190D02*
X130661905Y-81400714D01*
X130661905Y-81400714D02*
X130709524Y-81305476D01*
X130709524Y-81305476D02*
X130804762Y-81210238D01*
X130804762Y-81210238D02*
X130947619Y-81162619D01*
X130947619Y-81162619D02*
X131042857Y-81162619D01*
X131042857Y-81162619D02*
X131185714Y-81210238D01*
X131185714Y-81210238D02*
X131233333Y-81257857D01*
X131566667Y-81162619D02*
X132185714Y-81162619D01*
X132185714Y-81162619D02*
X131852381Y-81543571D01*
X131852381Y-81543571D02*
X131995238Y-81543571D01*
X131995238Y-81543571D02*
X132090476Y-81591190D01*
X132090476Y-81591190D02*
X132138095Y-81638809D01*
X132138095Y-81638809D02*
X132185714Y-81734047D01*
X132185714Y-81734047D02*
X132185714Y-81972142D01*
X132185714Y-81972142D02*
X132138095Y-82067380D01*
X132138095Y-82067380D02*
X132090476Y-82115000D01*
X132090476Y-82115000D02*
X131995238Y-82162619D01*
X131995238Y-82162619D02*
X131709524Y-82162619D01*
X131709524Y-82162619D02*
X131614286Y-82115000D01*
X131614286Y-82115000D02*
X131566667Y-82067380D01*
%TO.C,C4*%
X129424933Y-86495780D02*
X129377314Y-86543400D01*
X129377314Y-86543400D02*
X129234457Y-86591019D01*
X129234457Y-86591019D02*
X129139219Y-86591019D01*
X129139219Y-86591019D02*
X128996362Y-86543400D01*
X128996362Y-86543400D02*
X128901124Y-86448161D01*
X128901124Y-86448161D02*
X128853505Y-86352923D01*
X128853505Y-86352923D02*
X128805886Y-86162447D01*
X128805886Y-86162447D02*
X128805886Y-86019590D01*
X128805886Y-86019590D02*
X128853505Y-85829114D01*
X128853505Y-85829114D02*
X128901124Y-85733876D01*
X128901124Y-85733876D02*
X128996362Y-85638638D01*
X128996362Y-85638638D02*
X129139219Y-85591019D01*
X129139219Y-85591019D02*
X129234457Y-85591019D01*
X129234457Y-85591019D02*
X129377314Y-85638638D01*
X129377314Y-85638638D02*
X129424933Y-85686257D01*
X130282076Y-85924352D02*
X130282076Y-86591019D01*
X130043981Y-85543400D02*
X129805886Y-86257685D01*
X129805886Y-86257685D02*
X130424933Y-86257685D01*
D11*
%TO.C,SW1*%
X118884000Y-90266400D02*
X120384000Y-90266400D01*
X122884000Y-89016400D02*
X122884000Y-84516400D01*
X120384000Y-83266400D02*
X118884000Y-83266400D01*
X116384000Y-84516400D02*
X116384000Y-89016400D01*
%TO.C,C7*%
X133371764Y-84586400D02*
X133587436Y-84586400D01*
X133371764Y-83866400D02*
X133587436Y-83866400D01*
%TO.C,C6*%
X141940000Y-88392164D02*
X141940000Y-88607836D01*
X142660000Y-88392164D02*
X142660000Y-88607836D01*
%TO.C,C5*%
X138690236Y-96668000D02*
X138474564Y-96668000D01*
X138690236Y-97388000D02*
X138474564Y-97388000D01*
%TO.C,Y1*%
X124500000Y-88600000D02*
X124500000Y-92600000D01*
X127800000Y-88600000D02*
X124500000Y-88600000D01*
%TO.C,U2*%
X147810000Y-95100000D02*
X147810000Y-101110000D01*
X140990000Y-97350000D02*
X140990000Y-101110000D01*
X140990000Y-101110000D02*
X142250000Y-101110000D01*
X147810000Y-101110000D02*
X146550000Y-101110000D01*
%TO.C,U1*%
X139322500Y-87140000D02*
X139772500Y-87140000D01*
X132552500Y-94360000D02*
X132552500Y-93910000D01*
X132552500Y-87140000D02*
X132552500Y-87590000D01*
X139322500Y-94360000D02*
X139772500Y-94360000D01*
X139772500Y-94360000D02*
X139772500Y-93910000D01*
X133002500Y-87140000D02*
X132552500Y-87140000D01*
X133002500Y-94360000D02*
X132552500Y-94360000D01*
X132552500Y-87590000D02*
X131262500Y-87590000D01*
X139772500Y-87140000D02*
X139772500Y-87590000D01*
%TO.C,R5*%
X135646359Y-99220000D02*
X135953641Y-99220000D01*
X135646359Y-99980000D02*
X135953641Y-99980000D01*
%TO.C,R4*%
X133653641Y-99980000D02*
X133346359Y-99980000D01*
X133653641Y-99220000D02*
X133346359Y-99220000D01*
%TO.C,R1*%
X151280000Y-96333641D02*
X151280000Y-96026359D01*
X150520000Y-96333641D02*
X150520000Y-96026359D01*
%TO.C,R3*%
X145464800Y-88799159D02*
X145464800Y-89106441D01*
X144704800Y-88799159D02*
X144704800Y-89106441D01*
%TO.C,R2*%
X126797559Y-83844400D02*
X127104841Y-83844400D01*
X126797559Y-83084400D02*
X127104841Y-83084400D01*
%TO.C,J4*%
X133200000Y-101040000D02*
X139260000Y-101040000D01*
X133200000Y-103160000D02*
X133200000Y-101040000D01*
X131140000Y-103160000D02*
X131140000Y-102100000D01*
X139260000Y-103160000D02*
X139260000Y-101040000D01*
X132200000Y-103160000D02*
X131140000Y-103160000D01*
X133200000Y-103160000D02*
X139260000Y-103160000D01*
%TO.C,J3*%
X136300000Y-79260000D02*
X130240000Y-79260000D01*
X136300000Y-77140000D02*
X136300000Y-79260000D01*
X138360000Y-77140000D02*
X138360000Y-78200000D01*
X130240000Y-77140000D02*
X130240000Y-79260000D01*
X137300000Y-77140000D02*
X138360000Y-77140000D01*
X136300000Y-77140000D02*
X130240000Y-77140000D01*
%TO.C,J2*%
X146700000Y-79260000D02*
X140640000Y-79260000D01*
X146700000Y-77140000D02*
X146700000Y-79260000D01*
X148760000Y-77140000D02*
X148760000Y-78200000D01*
X140640000Y-77140000D02*
X140640000Y-79260000D01*
X147700000Y-77140000D02*
X148760000Y-77140000D01*
X146700000Y-77140000D02*
X140640000Y-77140000D01*
D10*
%TO.C,J1*%
X149588600Y-91152600D02*
X149588600Y-92152600D01*
X155288600Y-93202600D02*
X155738600Y-93202600D01*
X155138600Y-93502600D02*
X155288600Y-93502600D01*
X149163600Y-91152600D02*
X149588600Y-91152600D01*
X152738600Y-85202600D02*
X151338600Y-85202600D01*
X155288600Y-93502600D02*
X155288600Y-93202600D01*
X149163600Y-90427600D02*
X149163600Y-91152600D01*
X151338600Y-93502600D02*
X152738600Y-93502600D01*
X155738600Y-85502600D02*
X155288600Y-85502600D01*
X155288600Y-85202600D02*
X155138600Y-85202600D01*
X155288600Y-85502600D02*
X155288600Y-85202600D01*
X149588600Y-87552600D02*
X149588600Y-86552600D01*
D11*
%TO.C,FB1*%
X130890000Y-95537221D02*
X130890000Y-95862779D01*
X131910000Y-95537221D02*
X131910000Y-95862779D01*
%TO.C,D1*%
X151635000Y-99680000D02*
X151635000Y-97395000D01*
X151635000Y-97395000D02*
X150165000Y-97395000D01*
X150165000Y-97395000D02*
X150165000Y-99680000D01*
%TO.C,C2*%
X149000800Y-99320236D02*
X149000800Y-99104564D01*
X148280800Y-99320236D02*
X148280800Y-99104564D01*
%TO.C,C1*%
X143198964Y-94467000D02*
X143414636Y-94467000D01*
X143198964Y-93747000D02*
X143414636Y-93747000D01*
%TO.C,C13*%
X128240000Y-91592164D02*
X128240000Y-91807836D01*
X128960000Y-91592164D02*
X128960000Y-91807836D01*
%TO.C,C12*%
X128140000Y-89507836D02*
X128140000Y-89292164D01*
X128860000Y-89507836D02*
X128860000Y-89292164D01*
%TO.C,C11*%
X133692164Y-97160000D02*
X133907836Y-97160000D01*
X133692164Y-96440000D02*
X133907836Y-96440000D01*
%TO.C,C10*%
X128857836Y-96981600D02*
X128642164Y-96981600D01*
X128857836Y-96261600D02*
X128642164Y-96261600D01*
%TO.C,C9*%
X129139836Y-94788400D02*
X128924164Y-94788400D01*
X129139836Y-95508400D02*
X128924164Y-95508400D01*
%TO.C,C8*%
X130460000Y-91927836D02*
X130460000Y-91712164D01*
X129740000Y-91927836D02*
X129740000Y-91712164D01*
%TO.C,C3*%
X133272164Y-82160000D02*
X133487836Y-82160000D01*
X133272164Y-81440000D02*
X133487836Y-81440000D01*
%TO.C,C4*%
X130001600Y-87636236D02*
X130001600Y-87420564D01*
X129281600Y-87636236D02*
X129281600Y-87420564D01*
%TD*%
M02*
